ISO-10303-21;
HEADER;
/* Generated by software containing ST-Developer
 * from STEP Tools, Inc. (www.steptools.com) 
 */
/* OPTION: using custom renumber hook */

FILE_DESCRIPTION(
/* description */ ('STEP AP242 Edition 2',
'CAx-IF Rec.Pracs.---Representation and Presentation of Product Manufa
cturing Information (PMI)---4.0---2014-10-13',
'CAx-IF Rec.Pracs.---3D Tessellated Geometry---0.4---2014-09-14','2;1',
'CAx-IF Rec.Pracs.---User Defined Attributes---1.5---2016-08-15'),
/* implementation_level */ '2;1');

FILE_NAME(
/* name */ 'aoa_bottom',
/* time_stamp */ '2026-06-11T15:31:35Z',
/* author */ (''),
/* organization */ (''),
/* preprocessor_version */ 'ST-DEVELOPER v20',
/* originating_system */ 'ONSHAPE BY PTC INC, 1.216',
/* authorisation */ '  ');

FILE_SCHEMA (('AP242_MANAGED_MODEL_BASED_3D_ENGINEERING_MIM_LF { 1 0 10303 442 3 1 4 }'));
ENDSEC;

DATA;
#10=SHAPE_REPRESENTATION_RELATIONSHIP('','',#1286,#11);
#11=ADVANCED_BREP_SHAPE_REPRESENTATION('',(#1284),#2170);
#12=CYLINDRICAL_SURFACE('',#1339,0.0015);
#13=CYLINDRICAL_SURFACE('',#1340,0.0015);
#14=CYLINDRICAL_SURFACE('',#1341,0.0015);
#15=CYLINDRICAL_SURFACE('',#1342,0.0015);
#16=CYLINDRICAL_SURFACE('',#1377,0.00155);
#17=CYLINDRICAL_SURFACE('',#1381,0.00155);
#18=CYLINDRICAL_SURFACE('',#1384,0.00155);
#19=CYLINDRICAL_SURFACE('',#1386,0.001);
#20=CYLINDRICAL_SURFACE('',#1387,0.001);
#21=CYLINDRICAL_SURFACE('',#1388,0.001);
#22=CYLINDRICAL_SURFACE('',#1389,0.001);
#23=CYLINDRICAL_SURFACE('',#1390,0.001);
#24=CYLINDRICAL_SURFACE('',#1391,0.001);
#25=CYLINDRICAL_SURFACE('',#1392,0.001);
#26=CYLINDRICAL_SURFACE('',#1393,0.001);
#27=CYLINDRICAL_SURFACE('',#1394,0.001);
#28=CYLINDRICAL_SURFACE('',#1395,0.001);
#29=CYLINDRICAL_SURFACE('',#1396,0.001);
#30=CYLINDRICAL_SURFACE('',#1397,0.001);
#31=CYLINDRICAL_SURFACE('',#1398,0.001);
#32=CYLINDRICAL_SURFACE('',#1399,0.001);
#33=CYLINDRICAL_SURFACE('',#1400,0.001);
#34=CYLINDRICAL_SURFACE('',#1401,0.001);
#35=CYLINDRICAL_SURFACE('',#1402,0.001);
#36=CYLINDRICAL_SURFACE('',#1403,0.001);
#37=CYLINDRICAL_SURFACE('',#1404,0.001);
#38=CYLINDRICAL_SURFACE('',#1413,0.0005);
#39=CYLINDRICAL_SURFACE('',#1414,0.0005);
#40=CYLINDRICAL_SURFACE('',#1415,0.0005);
#41=CYLINDRICAL_SURFACE('',#1416,0.0005);
#42=CYLINDRICAL_SURFACE('',#1417,0.0005);
#43=CYLINDRICAL_SURFACE('',#1418,0.0005);
#44=CYLINDRICAL_SURFACE('',#1419,0.0005);
#45=CYLINDRICAL_SURFACE('',#1420,0.0005);
#46=CIRCLE('',#1289,0.001);
#47=CIRCLE('',#1290,0.001);
#48=CIRCLE('',#1291,0.001);
#49=CIRCLE('',#1292,0.001);
#50=CIRCLE('',#1293,0.0015);
#51=CIRCLE('',#1294,0.0015);
#52=CIRCLE('',#1295,0.0015);
#53=CIRCLE('',#1296,0.0015);
#54=CIRCLE('',#1297,0.0005);
#55=CIRCLE('',#1298,0.0005);
#56=CIRCLE('',#1299,0.0005);
#57=CIRCLE('',#1300,0.0005);
#58=CIRCLE('',#1301,0.0005);
#59=CIRCLE('',#1302,0.0005);
#60=CIRCLE('',#1303,0.0005);
#61=CIRCLE('',#1304,0.0005);
#62=CIRCLE('',#1306,0.0005);
#63=CIRCLE('',#1307,0.0005);
#64=CIRCLE('',#1308,0.0005);
#65=CIRCLE('',#1309,0.0005);
#66=CIRCLE('',#1310,0.0015);
#67=CIRCLE('',#1311,0.0015);
#68=CIRCLE('',#1312,0.0015);
#69=CIRCLE('',#1313,0.0015);
#70=CIRCLE('',#1314,0.001);
#71=CIRCLE('',#1315,0.001);
#72=CIRCLE('',#1316,0.001);
#73=CIRCLE('',#1317,0.001);
#74=CIRCLE('',#1318,0.001);
#75=CIRCLE('',#1319,0.001);
#76=CIRCLE('',#1320,0.001);
#77=CIRCLE('',#1321,0.001);
#78=CIRCLE('',#1322,0.001);
#79=CIRCLE('',#1323,0.001);
#80=CIRCLE('',#1324,0.001);
#81=CIRCLE('',#1325,0.001);
#82=CIRCLE('',#1326,0.001);
#83=CIRCLE('',#1327,0.001);
#84=CIRCLE('',#1328,0.001);
#85=CIRCLE('',#1329,0.00155);
#86=CIRCLE('',#1330,0.00155);
#87=CIRCLE('',#1331,0.00155);
#88=CIRCLE('',#1332,0.0005);
#89=CIRCLE('',#1333,0.0005);
#90=CIRCLE('',#1334,0.0005);
#91=CIRCLE('',#1335,0.0005);
#92=CIRCLE('',#1352,0.001);
#93=CIRCLE('',#1353,0.001);
#94=CIRCLE('',#1354,0.001);
#95=CIRCLE('',#1355,0.001);
#96=CIRCLE('',#1356,0.001);
#97=CIRCLE('',#1357,0.001);
#98=CIRCLE('',#1358,0.001);
#99=CIRCLE('',#1359,0.001);
#100=CIRCLE('',#1360,0.001);
#101=CIRCLE('',#1361,0.001);
#102=CIRCLE('',#1362,0.001);
#103=CIRCLE('',#1363,0.001);
#104=CIRCLE('',#1364,0.001);
#105=CIRCLE('',#1365,0.001);
#106=CIRCLE('',#1366,0.001);
#107=CIRCLE('',#1367,0.001);
#108=CIRCLE('',#1368,0.001);
#109=CIRCLE('',#1369,0.001);
#110=CIRCLE('',#1370,0.001);
#111=CIRCLE('',#1371,0.00155);
#112=CIRCLE('',#1372,0.00155);
#113=CIRCLE('',#1373,0.00155);
#114=ORIENTED_EDGE('',*,*,#472,.T.);
#115=ORIENTED_EDGE('',*,*,#473,.T.);
#116=ORIENTED_EDGE('',*,*,#474,.T.);
#117=ORIENTED_EDGE('',*,*,#475,.T.);
#118=ORIENTED_EDGE('',*,*,#476,.F.);
#119=ORIENTED_EDGE('',*,*,#477,.T.);
#120=ORIENTED_EDGE('',*,*,#478,.F.);
#121=ORIENTED_EDGE('',*,*,#479,.T.);
#122=ORIENTED_EDGE('',*,*,#480,.F.);
#123=ORIENTED_EDGE('',*,*,#481,.F.);
#124=ORIENTED_EDGE('',*,*,#482,.F.);
#125=ORIENTED_EDGE('',*,*,#483,.F.);
#126=ORIENTED_EDGE('',*,*,#484,.F.);
#127=ORIENTED_EDGE('',*,*,#485,.T.);
#128=ORIENTED_EDGE('',*,*,#486,.T.);
#129=ORIENTED_EDGE('',*,*,#487,.T.);
#130=ORIENTED_EDGE('',*,*,#488,.T.);
#131=ORIENTED_EDGE('',*,*,#489,.T.);
#132=ORIENTED_EDGE('',*,*,#490,.F.);
#133=ORIENTED_EDGE('',*,*,#491,.T.);
#134=ORIENTED_EDGE('',*,*,#492,.F.);
#135=ORIENTED_EDGE('',*,*,#493,.T.);
#136=ORIENTED_EDGE('',*,*,#494,.T.);
#137=ORIENTED_EDGE('',*,*,#495,.T.);
#138=ORIENTED_EDGE('',*,*,#496,.T.);
#139=ORIENTED_EDGE('',*,*,#497,.T.);
#140=ORIENTED_EDGE('',*,*,#498,.F.);
#141=ORIENTED_EDGE('',*,*,#499,.T.);
#142=ORIENTED_EDGE('',*,*,#500,.F.);
#143=ORIENTED_EDGE('',*,*,#501,.T.);
#144=ORIENTED_EDGE('',*,*,#502,.T.);
#145=ORIENTED_EDGE('',*,*,#503,.T.);
#146=ORIENTED_EDGE('',*,*,#504,.T.);
#147=ORIENTED_EDGE('',*,*,#505,.T.);
#148=ORIENTED_EDGE('',*,*,#506,.F.);
#149=ORIENTED_EDGE('',*,*,#507,.T.);
#150=ORIENTED_EDGE('',*,*,#508,.T.);
#151=ORIENTED_EDGE('',*,*,#509,.T.);
#152=ORIENTED_EDGE('',*,*,#510,.T.);
#153=ORIENTED_EDGE('',*,*,#511,.T.);
#154=ORIENTED_EDGE('',*,*,#512,.T.);
#155=ORIENTED_EDGE('',*,*,#513,.T.);
#156=ORIENTED_EDGE('',*,*,#514,.F.);
#157=ORIENTED_EDGE('',*,*,#515,.T.);
#158=ORIENTED_EDGE('',*,*,#516,.T.);
#159=ORIENTED_EDGE('',*,*,#517,.T.);
#160=ORIENTED_EDGE('',*,*,#518,.T.);
#161=ORIENTED_EDGE('',*,*,#519,.T.);
#162=ORIENTED_EDGE('',*,*,#520,.F.);
#163=ORIENTED_EDGE('',*,*,#521,.F.);
#164=ORIENTED_EDGE('',*,*,#522,.T.);
#165=ORIENTED_EDGE('',*,*,#523,.F.);
#166=ORIENTED_EDGE('',*,*,#524,.T.);
#167=ORIENTED_EDGE('',*,*,#525,.T.);
#168=ORIENTED_EDGE('',*,*,#526,.T.);
#169=ORIENTED_EDGE('',*,*,#527,.T.);
#170=ORIENTED_EDGE('',*,*,#528,.T.);
#171=ORIENTED_EDGE('',*,*,#529,.T.);
#172=ORIENTED_EDGE('',*,*,#530,.T.);
#173=ORIENTED_EDGE('',*,*,#531,.F.);
#174=ORIENTED_EDGE('',*,*,#532,.T.);
#175=ORIENTED_EDGE('',*,*,#533,.T.);
#176=ORIENTED_EDGE('',*,*,#534,.T.);
#177=ORIENTED_EDGE('',*,*,#535,.T.);
#178=ORIENTED_EDGE('',*,*,#536,.T.);
#179=ORIENTED_EDGE('',*,*,#537,.T.);
#180=ORIENTED_EDGE('',*,*,#538,.T.);
#181=ORIENTED_EDGE('',*,*,#539,.T.);
#182=ORIENTED_EDGE('',*,*,#540,.T.);
#183=ORIENTED_EDGE('',*,*,#541,.F.);
#184=ORIENTED_EDGE('',*,*,#542,.T.);
#185=ORIENTED_EDGE('',*,*,#543,.T.);
#186=ORIENTED_EDGE('',*,*,#544,.T.);
#187=ORIENTED_EDGE('',*,*,#545,.F.);
#188=ORIENTED_EDGE('',*,*,#546,.F.);
#189=ORIENTED_EDGE('',*,*,#547,.T.);
#190=ORIENTED_EDGE('',*,*,#548,.T.);
#191=ORIENTED_EDGE('',*,*,#549,.T.);
#192=ORIENTED_EDGE('',*,*,#550,.T.);
#193=ORIENTED_EDGE('',*,*,#551,.T.);
#194=ORIENTED_EDGE('',*,*,#552,.F.);
#195=ORIENTED_EDGE('',*,*,#553,.T.);
#196=ORIENTED_EDGE('',*,*,#533,.F.);
#197=ORIENTED_EDGE('',*,*,#554,.T.);
#198=ORIENTED_EDGE('',*,*,#555,.T.);
#199=ORIENTED_EDGE('',*,*,#556,.T.);
#200=ORIENTED_EDGE('',*,*,#557,.F.);
#201=ORIENTED_EDGE('',*,*,#558,.T.);
#202=ORIENTED_EDGE('',*,*,#514,.T.);
#203=ORIENTED_EDGE('',*,*,#559,.T.);
#204=ORIENTED_EDGE('',*,*,#512,.F.);
#205=ORIENTED_EDGE('',*,*,#560,.T.);
#206=ORIENTED_EDGE('',*,*,#561,.T.);
#207=ORIENTED_EDGE('',*,*,#562,.T.);
#208=ORIENTED_EDGE('',*,*,#482,.T.);
#209=ORIENTED_EDGE('',*,*,#510,.F.);
#210=ORIENTED_EDGE('',*,*,#481,.T.);
#211=ORIENTED_EDGE('',*,*,#509,.F.);
#212=ORIENTED_EDGE('',*,*,#480,.T.);
#213=ORIENTED_EDGE('',*,*,#508,.F.);
#214=ORIENTED_EDGE('',*,*,#483,.T.);
#215=ORIENTED_EDGE('',*,*,#511,.F.);
#216=ORIENTED_EDGE('',*,*,#563,.F.);
#217=ORIENTED_EDGE('',*,*,#564,.T.);
#218=ORIENTED_EDGE('',*,*,#478,.T.);
#219=ORIENTED_EDGE('',*,*,#565,.T.);
#220=ORIENTED_EDGE('',*,*,#566,.T.);
#221=ORIENTED_EDGE('',*,*,#567,.T.);
#222=ORIENTED_EDGE('',*,*,#472,.F.);
#223=ORIENTED_EDGE('',*,*,#568,.T.);
#224=ORIENTED_EDGE('',*,*,#474,.F.);
#225=ORIENTED_EDGE('',*,*,#569,.T.);
#226=ORIENTED_EDGE('',*,*,#570,.T.);
#227=ORIENTED_EDGE('',*,*,#571,.T.);
#228=ORIENTED_EDGE('',*,*,#476,.T.);
#229=ORIENTED_EDGE('',*,*,#572,.T.);
#230=ORIENTED_EDGE('',*,*,#573,.F.);
#231=ORIENTED_EDGE('',*,*,#574,.T.);
#232=ORIENTED_EDGE('',*,*,#525,.F.);
#233=ORIENTED_EDGE('',*,*,#575,.T.);
#234=ORIENTED_EDGE('',*,*,#576,.T.);
#235=ORIENTED_EDGE('',*,*,#577,.T.);
#236=ORIENTED_EDGE('',*,*,#523,.T.);
#237=ORIENTED_EDGE('',*,*,#578,.T.);
#238=ORIENTED_EDGE('',*,*,#579,.F.);
#239=ORIENTED_EDGE('',*,*,#580,.T.);
#240=ORIENTED_EDGE('',*,*,#581,.F.);
#241=ORIENTED_EDGE('',*,*,#582,.T.);
#242=ORIENTED_EDGE('',*,*,#521,.T.);
#243=ORIENTED_EDGE('',*,*,#583,.T.);
#244=ORIENTED_EDGE('',*,*,#584,.T.);
#245=ORIENTED_EDGE('',*,*,#585,.T.);
#246=ORIENTED_EDGE('',*,*,#535,.F.);
#247=ORIENTED_EDGE('',*,*,#586,.T.);
#248=ORIENTED_EDGE('',*,*,#557,.T.);
#249=ORIENTED_EDGE('',*,*,#587,.T.);
#250=ORIENTED_EDGE('',*,*,#561,.F.);
#251=ORIENTED_EDGE('',*,*,#588,.T.);
#252=ORIENTED_EDGE('',*,*,#589,.T.);
#253=ORIENTED_EDGE('',*,*,#590,.T.);
#254=ORIENTED_EDGE('',*,*,#591,.F.);
#255=ORIENTED_EDGE('',*,*,#592,.T.);
#256=ORIENTED_EDGE('',*,*,#593,.F.);
#257=ORIENTED_EDGE('',*,*,#594,.T.);
#258=ORIENTED_EDGE('',*,*,#584,.F.);
#259=ORIENTED_EDGE('',*,*,#595,.T.);
#260=ORIENTED_EDGE('',*,*,#555,.F.);
#261=ORIENTED_EDGE('',*,*,#596,.T.);
#262=ORIENTED_EDGE('',*,*,#597,.T.);
#263=ORIENTED_EDGE('',*,*,#598,.T.);
#264=ORIENTED_EDGE('',*,*,#599,.F.);
#265=ORIENTED_EDGE('',*,*,#600,.T.);
#266=ORIENTED_EDGE('',*,*,#601,.F.);
#267=ORIENTED_EDGE('',*,*,#602,.T.);
#268=ORIENTED_EDGE('',*,*,#576,.F.);
#269=ORIENTED_EDGE('',*,*,#603,.T.);
#270=ORIENTED_EDGE('',*,*,#579,.T.);
#271=ORIENTED_EDGE('',*,*,#604,.T.);
#272=ORIENTED_EDGE('',*,*,#581,.T.);
#273=ORIENTED_EDGE('',*,*,#605,.T.);
#274=ORIENTED_EDGE('',*,*,#606,.T.);
#275=ORIENTED_EDGE('',*,*,#607,.F.);
#276=ORIENTED_EDGE('',*,*,#608,.T.);
#277=ORIENTED_EDGE('',*,*,#609,.F.);
#278=ORIENTED_EDGE('',*,*,#610,.T.);
#279=ORIENTED_EDGE('',*,*,#566,.F.);
#280=ORIENTED_EDGE('',*,*,#611,.T.);
#281=ORIENTED_EDGE('',*,*,#563,.T.);
#282=ORIENTED_EDGE('',*,*,#612,.T.);
#283=ORIENTED_EDGE('',*,*,#573,.T.);
#284=ORIENTED_EDGE('',*,*,#613,.T.);
#285=ORIENTED_EDGE('',*,*,#570,.F.);
#286=ORIENTED_EDGE('',*,*,#614,.T.);
#287=ORIENTED_EDGE('',*,*,#615,.F.);
#288=ORIENTED_EDGE('',*,*,#616,.F.);
#289=ORIENTED_EDGE('',*,*,#617,.T.);
#290=ORIENTED_EDGE('',*,*,#593,.T.);
#291=ORIENTED_EDGE('',*,*,#618,.T.);
#292=ORIENTED_EDGE('',*,*,#537,.F.);
#293=ORIENTED_EDGE('',*,*,#619,.T.);
#294=ORIENTED_EDGE('',*,*,#589,.F.);
#295=ORIENTED_EDGE('',*,*,#620,.T.);
#296=ORIENTED_EDGE('',*,*,#541,.T.);
#297=ORIENTED_EDGE('',*,*,#621,.T.);
#298=ORIENTED_EDGE('',*,*,#591,.T.);
#299=ORIENTED_EDGE('',*,*,#622,.T.);
#300=ORIENTED_EDGE('',*,*,#539,.F.);
#301=ORIENTED_EDGE('',*,*,#623,.T.);
#302=ORIENTED_EDGE('',*,*,#543,.F.);
#303=ORIENTED_EDGE('',*,*,#615,.T.);
#304=ORIENTED_EDGE('',*,*,#516,.F.);
#305=ORIENTED_EDGE('',*,*,#624,.T.);
#306=ORIENTED_EDGE('',*,*,#609,.T.);
#307=ORIENTED_EDGE('',*,*,#625,.T.);
#308=ORIENTED_EDGE('',*,*,#520,.T.);
#309=ORIENTED_EDGE('',*,*,#626,.T.);
#310=ORIENTED_EDGE('',*,*,#605,.F.);
#311=ORIENTED_EDGE('',*,*,#583,.F.);
#312=ORIENTED_EDGE('',*,*,#518,.F.);
#313=ORIENTED_EDGE('',*,*,#627,.T.);
#314=ORIENTED_EDGE('',*,*,#607,.T.);
#315=ORIENTED_EDGE('',*,*,#628,.T.);
#316=ORIENTED_EDGE('',*,*,#544,.F.);
#317=ORIENTED_EDGE('',*,*,#616,.T.);
#318=ORIENTED_EDGE('',*,*,#531,.T.);
#319=ORIENTED_EDGE('',*,*,#629,.T.);
#320=ORIENTED_EDGE('',*,*,#597,.F.);
#321=ORIENTED_EDGE('',*,*,#630,.T.);
#322=ORIENTED_EDGE('',*,*,#529,.F.);
#323=ORIENTED_EDGE('',*,*,#631,.T.);
#324=ORIENTED_EDGE('',*,*,#599,.T.);
#325=ORIENTED_EDGE('',*,*,#632,.T.);
#326=ORIENTED_EDGE('',*,*,#545,.T.);
#327=ORIENTED_EDGE('',*,*,#617,.F.);
#328=ORIENTED_EDGE('',*,*,#527,.F.);
#329=ORIENTED_EDGE('',*,*,#633,.T.);
#330=ORIENTED_EDGE('',*,*,#601,.T.);
#331=ORIENTED_EDGE('',*,*,#634,.T.);
#332=ORIENTED_EDGE('',*,*,#614,.F.);
#333=ORIENTED_EDGE('',*,*,#569,.F.);
#334=ORIENTED_EDGE('',*,*,#473,.F.);
#335=ORIENTED_EDGE('',*,*,#567,.F.);
#336=ORIENTED_EDGE('',*,*,#611,.F.);
#337=ORIENTED_EDGE('',*,*,#568,.F.);
#338=ORIENTED_EDGE('',*,*,#479,.F.);
#339=ORIENTED_EDGE('',*,*,#564,.F.);
#340=ORIENTED_EDGE('',*,*,#613,.F.);
#341=ORIENTED_EDGE('',*,*,#572,.F.);
#342=ORIENTED_EDGE('',*,*,#475,.F.);
#343=ORIENTED_EDGE('',*,*,#571,.F.);
#344=ORIENTED_EDGE('',*,*,#612,.F.);
#345=ORIENTED_EDGE('',*,*,#565,.F.);
#346=ORIENTED_EDGE('',*,*,#477,.F.);
#347=ORIENTED_EDGE('',*,*,#574,.F.);
#348=ORIENTED_EDGE('',*,*,#542,.F.);
#349=ORIENTED_EDGE('',*,*,#620,.F.);
#350=ORIENTED_EDGE('',*,*,#588,.F.);
#351=ORIENTED_EDGE('',*,*,#560,.F.);
#352=ORIENTED_EDGE('',*,*,#515,.F.);
#353=ORIENTED_EDGE('',*,*,#558,.F.);
#354=ORIENTED_EDGE('',*,*,#610,.F.);
#355=ORIENTED_EDGE('',*,*,#624,.F.);
#356=ORIENTED_EDGE('',*,*,#587,.F.);
#357=ORIENTED_EDGE('',*,*,#559,.F.);
#358=ORIENTED_EDGE('',*,*,#513,.F.);
#359=ORIENTED_EDGE('',*,*,#562,.F.);
#360=ORIENTED_EDGE('',*,*,#517,.F.);
#361=ORIENTED_EDGE('',*,*,#625,.F.);
#362=ORIENTED_EDGE('',*,*,#608,.F.);
#363=ORIENTED_EDGE('',*,*,#627,.F.);
#364=ORIENTED_EDGE('',*,*,#519,.F.);
#365=ORIENTED_EDGE('',*,*,#628,.F.);
#366=ORIENTED_EDGE('',*,*,#606,.F.);
#367=ORIENTED_EDGE('',*,*,#626,.F.);
#368=ORIENTED_EDGE('',*,*,#604,.F.);
#369=ORIENTED_EDGE('',*,*,#578,.F.);
#370=ORIENTED_EDGE('',*,*,#522,.F.);
#371=ORIENTED_EDGE('',*,*,#582,.F.);
#372=ORIENTED_EDGE('',*,*,#603,.F.);
#373=ORIENTED_EDGE('',*,*,#575,.F.);
#374=ORIENTED_EDGE('',*,*,#524,.F.);
#375=ORIENTED_EDGE('',*,*,#580,.F.);
#376=ORIENTED_EDGE('',*,*,#526,.F.);
#377=ORIENTED_EDGE('',*,*,#577,.F.);
#378=ORIENTED_EDGE('',*,*,#602,.F.);
#379=ORIENTED_EDGE('',*,*,#633,.F.);
#380=ORIENTED_EDGE('',*,*,#528,.F.);
#381=ORIENTED_EDGE('',*,*,#634,.F.);
#382=ORIENTED_EDGE('',*,*,#600,.F.);
#383=ORIENTED_EDGE('',*,*,#631,.F.);
#384=ORIENTED_EDGE('',*,*,#530,.F.);
#385=ORIENTED_EDGE('',*,*,#632,.F.);
#386=ORIENTED_EDGE('',*,*,#598,.F.);
#387=ORIENTED_EDGE('',*,*,#629,.F.);
#388=ORIENTED_EDGE('',*,*,#532,.F.);
#389=ORIENTED_EDGE('',*,*,#630,.F.);
#390=ORIENTED_EDGE('',*,*,#596,.F.);
#391=ORIENTED_EDGE('',*,*,#554,.F.);
#392=ORIENTED_EDGE('',*,*,#540,.F.);
#393=ORIENTED_EDGE('',*,*,#622,.F.);
#394=ORIENTED_EDGE('',*,*,#590,.F.);
#395=ORIENTED_EDGE('',*,*,#621,.F.);
#396=ORIENTED_EDGE('',*,*,#538,.F.);
#397=ORIENTED_EDGE('',*,*,#618,.F.);
#398=ORIENTED_EDGE('',*,*,#592,.F.);
#399=ORIENTED_EDGE('',*,*,#623,.F.);
#400=ORIENTED_EDGE('',*,*,#536,.F.);
#401=ORIENTED_EDGE('',*,*,#585,.F.);
#402=ORIENTED_EDGE('',*,*,#594,.F.);
#403=ORIENTED_EDGE('',*,*,#619,.F.);
#404=ORIENTED_EDGE('',*,*,#595,.F.);
#405=ORIENTED_EDGE('',*,*,#586,.F.);
#406=ORIENTED_EDGE('',*,*,#534,.F.);
#407=ORIENTED_EDGE('',*,*,#556,.F.);
#408=ORIENTED_EDGE('',*,*,#502,.F.);
#409=ORIENTED_EDGE('',*,*,#635,.T.);
#410=ORIENTED_EDGE('',*,*,#488,.F.);
#411=ORIENTED_EDGE('',*,*,#636,.T.);
#412=ORIENTED_EDGE('',*,*,#490,.T.);
#413=ORIENTED_EDGE('',*,*,#637,.T.);
#414=ORIENTED_EDGE('',*,*,#500,.T.);
#415=ORIENTED_EDGE('',*,*,#638,.T.);
#416=ORIENTED_EDGE('',*,*,#506,.T.);
#417=ORIENTED_EDGE('',*,*,#639,.T.);
#418=ORIENTED_EDGE('',*,*,#484,.T.);
#419=ORIENTED_EDGE('',*,*,#640,.T.);
#420=ORIENTED_EDGE('',*,*,#486,.F.);
#421=ORIENTED_EDGE('',*,*,#641,.T.);
#422=ORIENTED_EDGE('',*,*,#504,.F.);
#423=ORIENTED_EDGE('',*,*,#642,.T.);
#424=ORIENTED_EDGE('',*,*,#548,.F.);
#425=ORIENTED_EDGE('',*,*,#643,.T.);
#426=ORIENTED_EDGE('',*,*,#496,.F.);
#427=ORIENTED_EDGE('',*,*,#644,.T.);
#428=ORIENTED_EDGE('',*,*,#498,.T.);
#429=ORIENTED_EDGE('',*,*,#645,.T.);
#430=ORIENTED_EDGE('',*,*,#546,.T.);
#431=ORIENTED_EDGE('',*,*,#646,.T.);
#432=ORIENTED_EDGE('',*,*,#492,.T.);
#433=ORIENTED_EDGE('',*,*,#647,.T.);
#434=ORIENTED_EDGE('',*,*,#552,.T.);
#435=ORIENTED_EDGE('',*,*,#648,.T.);
#436=ORIENTED_EDGE('',*,*,#550,.F.);
#437=ORIENTED_EDGE('',*,*,#649,.T.);
#438=ORIENTED_EDGE('',*,*,#494,.F.);
#439=ORIENTED_EDGE('',*,*,#650,.T.);
#440=ORIENTED_EDGE('',*,*,#489,.F.);
#441=ORIENTED_EDGE('',*,*,#635,.F.);
#442=ORIENTED_EDGE('',*,*,#501,.F.);
#443=ORIENTED_EDGE('',*,*,#637,.F.);
#444=ORIENTED_EDGE('',*,*,#485,.F.);
#445=ORIENTED_EDGE('',*,*,#639,.F.);
#446=ORIENTED_EDGE('',*,*,#505,.F.);
#447=ORIENTED_EDGE('',*,*,#641,.F.);
#448=ORIENTED_EDGE('',*,*,#491,.F.);
#449=ORIENTED_EDGE('',*,*,#638,.F.);
#450=ORIENTED_EDGE('',*,*,#507,.F.);
#451=ORIENTED_EDGE('',*,*,#640,.F.);
#452=ORIENTED_EDGE('',*,*,#487,.F.);
#453=ORIENTED_EDGE('',*,*,#642,.F.);
#454=ORIENTED_EDGE('',*,*,#503,.F.);
#455=ORIENTED_EDGE('',*,*,#636,.F.);
#456=ORIENTED_EDGE('',*,*,#497,.F.);
#457=ORIENTED_EDGE('',*,*,#643,.F.);
#458=ORIENTED_EDGE('',*,*,#547,.F.);
#459=ORIENTED_EDGE('',*,*,#645,.F.);
#460=ORIENTED_EDGE('',*,*,#495,.F.);
#461=ORIENTED_EDGE('',*,*,#649,.F.);
#462=ORIENTED_EDGE('',*,*,#549,.F.);
#463=ORIENTED_EDGE('',*,*,#644,.F.);
#464=ORIENTED_EDGE('',*,*,#499,.F.);
#465=ORIENTED_EDGE('',*,*,#646,.F.);
#466=ORIENTED_EDGE('',*,*,#553,.F.);
#467=ORIENTED_EDGE('',*,*,#647,.F.);
#468=ORIENTED_EDGE('',*,*,#493,.F.);
#469=ORIENTED_EDGE('',*,*,#648,.F.);
#470=ORIENTED_EDGE('',*,*,#551,.F.);
#471=ORIENTED_EDGE('',*,*,#650,.F.);
#472=EDGE_CURVE('',#651,#652,#775,.T.);
#473=EDGE_CURVE('',#652,#653,#46,.T.);
#474=EDGE_CURVE('',#653,#654,#776,.T.);
#475=EDGE_CURVE('',#654,#655,#47,.T.);
#476=EDGE_CURVE('',#656,#655,#777,.T.);
#477=EDGE_CURVE('',#656,#657,#48,.T.);
#478=EDGE_CURVE('',#658,#657,#778,.T.);
#479=EDGE_CURVE('',#658,#651,#49,.T.);
#480=EDGE_CURVE('',#659,#659,#50,.T.);
#481=EDGE_CURVE('',#660,#660,#51,.T.);
#482=EDGE_CURVE('',#661,#661,#52,.T.);
#483=EDGE_CURVE('',#662,#662,#53,.T.);
#484=EDGE_CURVE('',#663,#664,#779,.T.);
#485=EDGE_CURVE('',#663,#665,#54,.F.);
#486=EDGE_CURVE('',#665,#666,#780,.T.);
#487=EDGE_CURVE('',#666,#667,#55,.F.);
#488=EDGE_CURVE('',#667,#668,#781,.T.);
#489=EDGE_CURVE('',#668,#669,#56,.F.);
#490=EDGE_CURVE('',#670,#669,#782,.T.);
#491=EDGE_CURVE('',#670,#664,#57,.F.);
#492=EDGE_CURVE('',#671,#672,#783,.T.);
#493=EDGE_CURVE('',#671,#673,#58,.F.);
#494=EDGE_CURVE('',#673,#674,#784,.T.);
#495=EDGE_CURVE('',#674,#675,#59,.F.);
#496=EDGE_CURVE('',#675,#676,#785,.T.);
#497=EDGE_CURVE('',#676,#677,#60,.F.);
#498=EDGE_CURVE('',#678,#677,#786,.T.);
#499=EDGE_CURVE('',#678,#672,#61,.F.);
#500=EDGE_CURVE('',#679,#680,#787,.T.);
#501=EDGE_CURVE('',#679,#681,#62,.T.);
#502=EDGE_CURVE('',#681,#682,#788,.T.);
#503=EDGE_CURVE('',#682,#683,#63,.T.);
#504=EDGE_CURVE('',#683,#684,#789,.T.);
#505=EDGE_CURVE('',#684,#685,#64,.T.);
#506=EDGE_CURVE('',#686,#685,#790,.T.);
#507=EDGE_CURVE('',#686,#680,#65,.T.);
#508=EDGE_CURVE('',#687,#687,#66,.T.);
#509=EDGE_CURVE('',#688,#688,#67,.T.);
#510=EDGE_CURVE('',#689,#689,#68,.T.);
#511=EDGE_CURVE('',#690,#690,#69,.T.);
#512=EDGE_CURVE('',#691,#692,#791,.T.);
#513=EDGE_CURVE('',#692,#693,#70,.F.);
#514=EDGE_CURVE('',#694,#693,#792,.T.);
#515=EDGE_CURVE('',#694,#695,#71,.T.);
#516=EDGE_CURVE('',#695,#696,#793,.T.);
#517=EDGE_CURVE('',#696,#697,#72,.F.);
#518=EDGE_CURVE('',#697,#698,#794,.T.);
#519=EDGE_CURVE('',#698,#699,#73,.F.);
#520=EDGE_CURVE('',#700,#699,#795,.T.);
#521=EDGE_CURVE('',#701,#700,#796,.T.);
#522=EDGE_CURVE('',#701,#702,#74,.F.);
#523=EDGE_CURVE('',#703,#702,#797,.T.);
#524=EDGE_CURVE('',#703,#704,#75,.F.);
#525=EDGE_CURVE('',#704,#705,#798,.T.);
#526=EDGE_CURVE('',#705,#706,#76,.T.);
#527=EDGE_CURVE('',#706,#707,#799,.T.);
#528=EDGE_CURVE('',#707,#708,#77,.F.);
#529=EDGE_CURVE('',#708,#709,#800,.T.);
#530=EDGE_CURVE('',#709,#710,#78,.F.);
#531=EDGE_CURVE('',#711,#710,#801,.T.);
#532=EDGE_CURVE('',#711,#712,#79,.T.);
#533=EDGE_CURVE('',#712,#713,#802,.T.);
#534=EDGE_CURVE('',#713,#714,#80,.F.);
#535=EDGE_CURVE('',#714,#715,#803,.T.);
#536=EDGE_CURVE('',#715,#716,#81,.T.);
#537=EDGE_CURVE('',#716,#717,#804,.T.);
#538=EDGE_CURVE('',#717,#718,#82,.F.);
#539=EDGE_CURVE('',#718,#719,#805,.T.);
#540=EDGE_CURVE('',#719,#720,#83,.F.);
#541=EDGE_CURVE('',#721,#720,#806,.T.);
#542=EDGE_CURVE('',#721,#691,#84,.T.);
#543=EDGE_CURVE('',#722,#722,#85,.T.);
#544=EDGE_CURVE('',#723,#723,#86,.T.);
#545=EDGE_CURVE('',#724,#724,#87,.T.);
#546=EDGE_CURVE('',#725,#726,#807,.T.);
#547=EDGE_CURVE('',#725,#727,#88,.T.);
#548=EDGE_CURVE('',#727,#728,#808,.T.);
#549=EDGE_CURVE('',#728,#729,#89,.T.);
#550=EDGE_CURVE('',#729,#730,#809,.T.);
#551=EDGE_CURVE('',#730,#731,#90,.T.);
#552=EDGE_CURVE('',#732,#731,#810,.T.);
#553=EDGE_CURVE('',#732,#726,#91,.T.);
#554=EDGE_CURVE('',#712,#733,#811,.T.);
#555=EDGE_CURVE('',#733,#734,#812,.T.);
#556=EDGE_CURVE('',#734,#713,#813,.T.);
#557=EDGE_CURVE('',#735,#736,#814,.T.);
#558=EDGE_CURVE('',#735,#694,#815,.F.);
#559=EDGE_CURVE('',#693,#736,#816,.F.);
#560=EDGE_CURVE('',#691,#737,#817,.T.);
#561=EDGE_CURVE('',#737,#738,#818,.T.);
#562=EDGE_CURVE('',#738,#692,#819,.T.);
#563=EDGE_CURVE('',#739,#740,#820,.T.);
#564=EDGE_CURVE('',#739,#658,#821,.T.);
#565=EDGE_CURVE('',#657,#740,#822,.F.);
#566=EDGE_CURVE('',#741,#742,#823,.T.);
#567=EDGE_CURVE('',#742,#652,#824,.T.);
#568=EDGE_CURVE('',#651,#741,#825,.F.);
#569=EDGE_CURVE('',#653,#743,#826,.F.);
#570=EDGE_CURVE('',#743,#744,#827,.T.);
#571=EDGE_CURVE('',#744,#654,#828,.T.);
#572=EDGE_CURVE('',#655,#745,#829,.F.);
#573=EDGE_CURVE('',#746,#745,#830,.T.);
#574=EDGE_CURVE('',#746,#656,#831,.T.);
#575=EDGE_CURVE('',#704,#747,#832,.F.);
#576=EDGE_CURVE('',#747,#748,#833,.T.);
#577=EDGE_CURVE('',#748,#705,#834,.F.);
#578=EDGE_CURVE('',#702,#749,#835,.F.);
#579=EDGE_CURVE('',#750,#749,#836,.T.);
#580=EDGE_CURVE('',#750,#703,#837,.T.);
#581=EDGE_CURVE('',#751,#752,#838,.T.);
#582=EDGE_CURVE('',#751,#701,#839,.T.);
#583=EDGE_CURVE('',#700,#752,#840,.T.);
#584=EDGE_CURVE('',#753,#754,#841,.T.);
#585=EDGE_CURVE('',#754,#715,#842,.F.);
#586=EDGE_CURVE('',#714,#753,#843,.F.);
#587=EDGE_CURVE('',#736,#738,#92,.T.);
#588=EDGE_CURVE('',#737,#755,#93,.F.);
#589=EDGE_CURVE('',#755,#756,#844,.T.);
#590=EDGE_CURVE('',#756,#757,#94,.T.);
#591=EDGE_CURVE('',#758,#757,#845,.T.);
#592=EDGE_CURVE('',#758,#759,#95,.T.);
#593=EDGE_CURVE('',#760,#759,#846,.T.);
#594=EDGE_CURVE('',#760,#754,#96,.F.);
#595=EDGE_CURVE('',#753,#734,#97,.T.);
#596=EDGE_CURVE('',#733,#761,#98,.F.);
#597=EDGE_CURVE('',#761,#762,#847,.T.);
#598=EDGE_CURVE('',#762,#763,#99,.T.);
#599=EDGE_CURVE('',#764,#763,#848,.T.);
#600=EDGE_CURVE('',#764,#765,#100,.T.);
#601=EDGE_CURVE('',#766,#765,#849,.T.);
#602=EDGE_CURVE('',#766,#748,#101,.F.);
#603=EDGE_CURVE('',#747,#750,#102,.T.);
#604=EDGE_CURVE('',#749,#751,#103,.T.);
#605=EDGE_CURVE('',#752,#767,#850,.T.);
#606=EDGE_CURVE('',#767,#768,#104,.T.);
#607=EDGE_CURVE('',#769,#768,#851,.T.);
#608=EDGE_CURVE('',#769,#770,#105,.T.);
#609=EDGE_CURVE('',#771,#770,#852,.T.);
#610=EDGE_CURVE('',#771,#735,#106,.F.);
#611=EDGE_CURVE('',#741,#739,#107,.F.);
#612=EDGE_CURVE('',#740,#746,#108,.F.);
#613=EDGE_CURVE('',#745,#744,#109,.F.);
#614=EDGE_CURVE('',#743,#742,#110,.F.);
#615=EDGE_CURVE('',#772,#772,#111,.T.);
#616=EDGE_CURVE('',#773,#773,#112,.T.);
#617=EDGE_CURVE('',#774,#774,#113,.T.);
#618=EDGE_CURVE('',#759,#717,#853,.F.);
#619=EDGE_CURVE('',#716,#760,#854,.T.);
#620=EDGE_CURVE('',#755,#721,#855,.F.);
#621=EDGE_CURVE('',#720,#756,#856,.T.);
#622=EDGE_CURVE('',#757,#719,#857,.F.);
#623=EDGE_CURVE('',#718,#758,#858,.T.);
#624=EDGE_CURVE('',#695,#771,#859,.T.);
#625=EDGE_CURVE('',#770,#696,#860,.F.);
#626=EDGE_CURVE('',#699,#767,#861,.T.);
#627=EDGE_CURVE('',#697,#769,#862,.T.);
#628=EDGE_CURVE('',#768,#698,#863,.F.);
#629=EDGE_CURVE('',#710,#762,#864,.T.);
#630=EDGE_CURVE('',#761,#711,#865,.F.);
#631=EDGE_CURVE('',#708,#764,#866,.T.);
#632=EDGE_CURVE('',#763,#709,#867,.F.);
#633=EDGE_CURVE('',#706,#766,#868,.T.);
#634=EDGE_CURVE('',#765,#707,#869,.F.);
#635=EDGE_CURVE('',#681,#668,#870,.F.);
#636=EDGE_CURVE('',#667,#682,#871,.T.);
#637=EDGE_CURVE('',#669,#679,#872,.T.);
#638=EDGE_CURVE('',#680,#670,#873,.F.);
#639=EDGE_CURVE('',#685,#663,#874,.F.);
#640=EDGE_CURVE('',#664,#686,#875,.T.);
#641=EDGE_CURVE('',#665,#684,#876,.T.);
#642=EDGE_CURVE('',#683,#666,#877,.F.);
#643=EDGE_CURVE('',#727,#676,#878,.F.);
#644=EDGE_CURVE('',#675,#728,#879,.T.);
#645=EDGE_CURVE('',#677,#725,#880,.T.);
#646=EDGE_CURVE('',#726,#678,#881,.F.);
#647=EDGE_CURVE('',#672,#732,#882,.T.);
#648=EDGE_CURVE('',#731,#671,#883,.F.);
#649=EDGE_CURVE('',#729,#674,#884,.F.);
#650=EDGE_CURVE('',#673,#730,#885,.T.);
#651=VERTEX_POINT('',#1803);
#652=VERTEX_POINT('',#1804);
#653=VERTEX_POINT('',#1806);
#654=VERTEX_POINT('',#1808);
#655=VERTEX_POINT('',#1810);
#656=VERTEX_POINT('',#1812);
#657=VERTEX_POINT('',#1814);
#658=VERTEX_POINT('',#1816);
#659=VERTEX_POINT('',#1819);
#660=VERTEX_POINT('',#1821);
#661=VERTEX_POINT('',#1823);
#662=VERTEX_POINT('',#1825);
#663=VERTEX_POINT('',#1827);
#664=VERTEX_POINT('',#1828);
#665=VERTEX_POINT('',#1830);
#666=VERTEX_POINT('',#1832);
#667=VERTEX_POINT('',#1834);
#668=VERTEX_POINT('',#1836);
#669=VERTEX_POINT('',#1838);
#670=VERTEX_POINT('',#1840);
#671=VERTEX_POINT('',#1843);
#672=VERTEX_POINT('',#1844);
#673=VERTEX_POINT('',#1846);
#674=VERTEX_POINT('',#1848);
#675=VERTEX_POINT('',#1850);
#676=VERTEX_POINT('',#1852);
#677=VERTEX_POINT('',#1854);
#678=VERTEX_POINT('',#1856);
#679=VERTEX_POINT('',#1860);
#680=VERTEX_POINT('',#1861);
#681=VERTEX_POINT('',#1863);
#682=VERTEX_POINT('',#1865);
#683=VERTEX_POINT('',#1867);
#684=VERTEX_POINT('',#1869);
#685=VERTEX_POINT('',#1871);
#686=VERTEX_POINT('',#1873);
#687=VERTEX_POINT('',#1876);
#688=VERTEX_POINT('',#1878);
#689=VERTEX_POINT('',#1880);
#690=VERTEX_POINT('',#1882);
#691=VERTEX_POINT('',#1884);
#692=VERTEX_POINT('',#1885);
#693=VERTEX_POINT('',#1887);
#694=VERTEX_POINT('',#1889);
#695=VERTEX_POINT('',#1891);
#696=VERTEX_POINT('',#1893);
#697=VERTEX_POINT('',#1895);
#698=VERTEX_POINT('',#1897);
#699=VERTEX_POINT('',#1899);
#700=VERTEX_POINT('',#1901);
#701=VERTEX_POINT('',#1903);
#702=VERTEX_POINT('',#1905);
#703=VERTEX_POINT('',#1907);
#704=VERTEX_POINT('',#1909);
#705=VERTEX_POINT('',#1911);
#706=VERTEX_POINT('',#1913);
#707=VERTEX_POINT('',#1915);
#708=VERTEX_POINT('',#1917);
#709=VERTEX_POINT('',#1919);
#710=VERTEX_POINT('',#1921);
#711=VERTEX_POINT('',#1923);
#712=VERTEX_POINT('',#1925);
#713=VERTEX_POINT('',#1927);
#714=VERTEX_POINT('',#1929);
#715=VERTEX_POINT('',#1931);
#716=VERTEX_POINT('',#1933);
#717=VERTEX_POINT('',#1935);
#718=VERTEX_POINT('',#1937);
#719=VERTEX_POINT('',#1939);
#720=VERTEX_POINT('',#1941);
#721=VERTEX_POINT('',#1943);
#722=VERTEX_POINT('',#1946);
#723=VERTEX_POINT('',#1948);
#724=VERTEX_POINT('',#1950);
#725=VERTEX_POINT('',#1952);
#726=VERTEX_POINT('',#1953);
#727=VERTEX_POINT('',#1955);
#728=VERTEX_POINT('',#1957);
#729=VERTEX_POINT('',#1959);
#730=VERTEX_POINT('',#1961);
#731=VERTEX_POINT('',#1963);
#732=VERTEX_POINT('',#1965);
#733=VERTEX_POINT('',#1969);
#734=VERTEX_POINT('',#1971);
#735=VERTEX_POINT('',#1975);
#736=VERTEX_POINT('',#1976);
#737=VERTEX_POINT('',#1981);
#738=VERTEX_POINT('',#1983);
#739=VERTEX_POINT('',#1991);
#740=VERTEX_POINT('',#1992);
#741=VERTEX_POINT('',#1997);
#742=VERTEX_POINT('',#1998);
#743=VERTEX_POINT('',#2003);
#744=VERTEX_POINT('',#2005);
#745=VERTEX_POINT('',#2009);
#746=VERTEX_POINT('',#2011);
#747=VERTEX_POINT('',#2015);
#748=VERTEX_POINT('',#2017);
#749=VERTEX_POINT('',#2021);
#750=VERTEX_POINT('',#2023);
#751=VERTEX_POINT('',#2027);
#752=VERTEX_POINT('',#2028);
#753=VERTEX_POINT('',#2033);
#754=VERTEX_POINT('',#2034);
#755=VERTEX_POINT('',#2040);
#756=VERTEX_POINT('',#2042);
#757=VERTEX_POINT('',#2044);
#758=VERTEX_POINT('',#2046);
#759=VERTEX_POINT('',#2048);
#760=VERTEX_POINT('',#2050);
#761=VERTEX_POINT('',#2054);
#762=VERTEX_POINT('',#2056);
#763=VERTEX_POINT('',#2058);
#764=VERTEX_POINT('',#2060);
#765=VERTEX_POINT('',#2062);
#766=VERTEX_POINT('',#2064);
#767=VERTEX_POINT('',#2069);
#768=VERTEX_POINT('',#2071);
#769=VERTEX_POINT('',#2073);
#770=VERTEX_POINT('',#2075);
#771=VERTEX_POINT('',#2077);
#772=VERTEX_POINT('',#2084);
#773=VERTEX_POINT('',#2086);
#774=VERTEX_POINT('',#2088);
#775=LINE('',#1802,#886);
#776=LINE('',#1807,#887);
#777=LINE('',#1811,#888);
#778=LINE('',#1815,#889);
#779=LINE('',#1826,#890);
#780=LINE('',#1831,#891);
#781=LINE('',#1835,#892);
#782=LINE('',#1839,#893);
#783=LINE('',#1842,#894);
#784=LINE('',#1847,#895);
#785=LINE('',#1851,#896);
#786=LINE('',#1855,#897);
#787=LINE('',#1859,#898);
#788=LINE('',#1864,#899);
#789=LINE('',#1868,#900);
#790=LINE('',#1872,#901);
#791=LINE('',#1883,#902);
#792=LINE('',#1888,#903);
#793=LINE('',#1892,#904);
#794=LINE('',#1896,#905);
#795=LINE('',#1900,#906);
#796=LINE('',#1902,#907);
#797=LINE('',#1906,#908);
#798=LINE('',#1910,#909);
#799=LINE('',#1914,#910);
#800=LINE('',#1918,#911);
#801=LINE('',#1922,#912);
#802=LINE('',#1926,#913);
#803=LINE('',#1930,#914);
#804=LINE('',#1934,#915);
#805=LINE('',#1938,#916);
#806=LINE('',#1942,#917);
#807=LINE('',#1951,#918);
#808=LINE('',#1956,#919);
#809=LINE('',#1960,#920);
#810=LINE('',#1964,#921);
#811=LINE('',#1968,#922);
#812=LINE('',#1970,#923);
#813=LINE('',#1972,#924);
#814=LINE('',#1974,#925);
#815=LINE('',#1977,#926);
#816=LINE('',#1978,#927);
#817=LINE('',#1980,#928);
#818=LINE('',#1982,#929);
#819=LINE('',#1984,#930);
#820=LINE('',#1990,#931);
#821=LINE('',#1993,#932);
#822=LINE('',#1994,#933);
#823=LINE('',#1996,#934);
#824=LINE('',#1999,#935);
#825=LINE('',#2000,#936);
#826=LINE('',#2002,#937);
#827=LINE('',#2004,#938);
#828=LINE('',#2006,#939);
#829=LINE('',#2008,#940);
#830=LINE('',#2010,#941);
#831=LINE('',#2012,#942);
#832=LINE('',#2014,#943);
#833=LINE('',#2016,#944);
#834=LINE('',#2018,#945);
#835=LINE('',#2020,#946);
#836=LINE('',#2022,#947);
#837=LINE('',#2024,#948);
#838=LINE('',#2026,#949);
#839=LINE('',#2029,#950);
#840=LINE('',#2030,#951);
#841=LINE('',#2032,#952);
#842=LINE('',#2035,#953);
#843=LINE('',#2036,#954);
#844=LINE('',#2041,#955);
#845=LINE('',#2045,#956);
#846=LINE('',#2049,#957);
#847=LINE('',#2055,#958);
#848=LINE('',#2059,#959);
#849=LINE('',#2063,#960);
#850=LINE('',#2068,#961);
#851=LINE('',#2072,#962);
#852=LINE('',#2076,#963);
#853=LINE('',#2090,#964);
#854=LINE('',#2091,#965);
#855=LINE('',#2093,#966);
#856=LINE('',#2094,#967);
#857=LINE('',#2096,#968);
#858=LINE('',#2097,#969);
#859=LINE('',#2100,#970);
#860=LINE('',#2101,#971);
#861=LINE('',#2103,#972);
#862=LINE('',#2105,#973);
#863=LINE('',#2106,#974);
#864=LINE('',#2109,#975);
#865=LINE('',#2110,#976);
#866=LINE('',#2112,#977);
#867=LINE('',#2113,#978);
#868=LINE('',#2116,#979);
#869=LINE('',#2117,#980);
#870=LINE('',#2138,#981);
#871=LINE('',#2139,#982);
#872=LINE('',#2141,#983);
#873=LINE('',#2142,#984);
#874=LINE('',#2144,#985);
#875=LINE('',#2145,#986);
#876=LINE('',#2147,#987);
#877=LINE('',#2148,#988);
#878=LINE('',#2150,#989);
#879=LINE('',#2151,#990);
#880=LINE('',#2153,#991);
#881=LINE('',#2154,#992);
#882=LINE('',#2156,#993);
#883=LINE('',#2157,#994);
#884=LINE('',#2159,#995);
#885=LINE('',#2160,#996);
#886=VECTOR('',#1425,1.);
#887=VECTOR('',#1428,1.);
#888=VECTOR('',#1431,1.);
#889=VECTOR('',#1434,1.);
#890=VECTOR('',#1445,1.);
#891=VECTOR('',#1448,1.);
#892=VECTOR('',#1451,1.);
#893=VECTOR('',#1454,1.);
#894=VECTOR('',#1457,1.);
#895=VECTOR('',#1460,1.);
#896=VECTOR('',#1463,1.);
#897=VECTOR('',#1466,1.);
#898=VECTOR('',#1471,1.);
#899=VECTOR('',#1474,1.);
#900=VECTOR('',#1477,1.);
#901=VECTOR('',#1480,1.);
#902=VECTOR('',#1491,1.);
#903=VECTOR('',#1494,1.);
#904=VECTOR('',#1497,1.);
#905=VECTOR('',#1500,1.);
#906=VECTOR('',#1503,1.);
#907=VECTOR('',#1504,1.);
#908=VECTOR('',#1507,1.);
#909=VECTOR('',#1510,1.);
#910=VECTOR('',#1513,1.);
#911=VECTOR('',#1516,1.);
#912=VECTOR('',#1519,1.);
#913=VECTOR('',#1522,1.);
#914=VECTOR('',#1525,1.);
#915=VECTOR('',#1528,1.);
#916=VECTOR('',#1531,1.);
#917=VECTOR('',#1534,1.);
#918=VECTOR('',#1543,1.);
#919=VECTOR('',#1546,1.);
#920=VECTOR('',#1549,1.);
#921=VECTOR('',#1552,1.);
#922=VECTOR('',#1557,1.);
#923=VECTOR('',#1558,1.);
#924=VECTOR('',#1559,1.);
#925=VECTOR('',#1562,1.);
#926=VECTOR('',#1563,1.);
#927=VECTOR('',#1564,1.);
#928=VECTOR('',#1567,1.);
#929=VECTOR('',#1568,1.);
#930=VECTOR('',#1569,1.);
#931=VECTOR('',#1580,1.);
#932=VECTOR('',#1581,1.);
#933=VECTOR('',#1582,1.);
#934=VECTOR('',#1585,1.);
#935=VECTOR('',#1586,1.);
#936=VECTOR('',#1587,1.);
#937=VECTOR('',#1590,1.);
#938=VECTOR('',#1591,1.);
#939=VECTOR('',#1592,1.);
#940=VECTOR('',#1595,1.);
#941=VECTOR('',#1596,1.);
#942=VECTOR('',#1597,1.);
#943=VECTOR('',#1600,1.);
#944=VECTOR('',#1601,1.);
#945=VECTOR('',#1602,1.);
#946=VECTOR('',#1605,1.);
#947=VECTOR('',#1606,1.);
#948=VECTOR('',#1607,1.);
#949=VECTOR('',#1610,1.);
#950=VECTOR('',#1611,1.);
#951=VECTOR('',#1612,1.);
#952=VECTOR('',#1615,1.);
#953=VECTOR('',#1616,1.);
#954=VECTOR('',#1617,1.);
#955=VECTOR('',#1624,1.);
#956=VECTOR('',#1627,1.);
#957=VECTOR('',#1630,1.);
#958=VECTOR('',#1637,1.);
#959=VECTOR('',#1640,1.);
#960=VECTOR('',#1643,1.);
#961=VECTOR('',#1650,1.);
#962=VECTOR('',#1653,1.);
#963=VECTOR('',#1656,1.);
#964=VECTOR('',#1675,1.);
#965=VECTOR('',#1676,1.);
#966=VECTOR('',#1679,1.);
#967=VECTOR('',#1680,1.);
#968=VECTOR('',#1683,1.);
#969=VECTOR('',#1684,1.);
#970=VECTOR('',#1689,1.);
#971=VECTOR('',#1690,1.);
#972=VECTOR('',#1693,1.);
#973=VECTOR('',#1696,1.);
#974=VECTOR('',#1697,1.);
#975=VECTOR('',#1702,1.);
#976=VECTOR('',#1703,1.);
#977=VECTOR('',#1706,1.);
#978=VECTOR('',#1707,1.);
#979=VECTOR('',#1712,1.);
#980=VECTOR('',#1713,1.);
#981=VECTOR('',#1754,1.);
#982=VECTOR('',#1755,1.);
#983=VECTOR('',#1758,1.);
#984=VECTOR('',#1759,1.);
#985=VECTOR('',#1762,1.);
#986=VECTOR('',#1763,1.);
#987=VECTOR('',#1766,1.);
#988=VECTOR('',#1767,1.);
#989=VECTOR('',#1770,1.);
#990=VECTOR('',#1771,1.);
#991=VECTOR('',#1774,1.);
#992=VECTOR('',#1775,1.);
#993=VECTOR('',#1778,1.);
#994=VECTOR('',#1779,1.);
#995=VECTOR('',#1782,1.);
#996=VECTOR('',#1783,1.);
#997=EDGE_LOOP('',(#114,#115,#116,#117,#118,#119,#120,#121));
#998=EDGE_LOOP('',(#122));
#999=EDGE_LOOP('',(#123));
#1000=EDGE_LOOP('',(#124));
#1001=EDGE_LOOP('',(#125));
#1002=EDGE_LOOP('',(#126,#127,#128,#129,#130,#131,#132,#133));
#1003=EDGE_LOOP('',(#134,#135,#136,#137,#138,#139,#140,#141));
#1004=EDGE_LOOP('',(#142,#143,#144,#145,#146,#147,#148,#149));
#1005=EDGE_LOOP('',(#150));
#1006=EDGE_LOOP('',(#151));
#1007=EDGE_LOOP('',(#152));
#1008=EDGE_LOOP('',(#153));
#1009=EDGE_LOOP('',(#154,#155,#156,#157,#158,#159,#160,#161,#162,#163,#164,
#165,#166,#167,#168,#169,#170,#171,#172,#173,#174,#175,#176,#177,#178,#179,
#180,#181,#182,#183,#184));
#1010=EDGE_LOOP('',(#185));
#1011=EDGE_LOOP('',(#186));
#1012=EDGE_LOOP('',(#187));
#1013=EDGE_LOOP('',(#188,#189,#190,#191,#192,#193,#194,#195));
#1014=EDGE_LOOP('',(#196,#197,#198,#199));
#1015=EDGE_LOOP('',(#200,#201,#202,#203));
#1016=EDGE_LOOP('',(#204,#205,#206,#207));
#1017=EDGE_LOOP('',(#208));
#1018=EDGE_LOOP('',(#209));
#1019=EDGE_LOOP('',(#210));
#1020=EDGE_LOOP('',(#211));
#1021=EDGE_LOOP('',(#212));
#1022=EDGE_LOOP('',(#213));
#1023=EDGE_LOOP('',(#214));
#1024=EDGE_LOOP('',(#215));
#1025=EDGE_LOOP('',(#216,#217,#218,#219));
#1026=EDGE_LOOP('',(#220,#221,#222,#223));
#1027=EDGE_LOOP('',(#224,#225,#226,#227));
#1028=EDGE_LOOP('',(#228,#229,#230,#231));
#1029=EDGE_LOOP('',(#232,#233,#234,#235));
#1030=EDGE_LOOP('',(#236,#237,#238,#239));
#1031=EDGE_LOOP('',(#240,#241,#242,#243));
#1032=EDGE_LOOP('',(#244,#245,#246,#247));
#1033=EDGE_LOOP('',(#248,#249,#250,#251,#252,#253,#254,#255,#256,#257,#258,
#259,#260,#261,#262,#263,#264,#265,#266,#267,#268,#269,#270,#271,#272,#273,
#274,#275,#276,#277,#278));
#1034=EDGE_LOOP('',(#279,#280,#281,#282,#283,#284,#285,#286));
#1035=EDGE_LOOP('',(#287));
#1036=EDGE_LOOP('',(#288));
#1037=EDGE_LOOP('',(#289));
#1038=EDGE_LOOP('',(#290,#291,#292,#293));
#1039=EDGE_LOOP('',(#294,#295,#296,#297));
#1040=EDGE_LOOP('',(#298,#299,#300,#301));
#1041=EDGE_LOOP('',(#302));
#1042=EDGE_LOOP('',(#303));
#1043=EDGE_LOOP('',(#304,#305,#306,#307));
#1044=EDGE_LOOP('',(#308,#309,#310,#311));
#1045=EDGE_LOOP('',(#312,#313,#314,#315));
#1046=EDGE_LOOP('',(#316));
#1047=EDGE_LOOP('',(#317));
#1048=EDGE_LOOP('',(#318,#319,#320,#321));
#1049=EDGE_LOOP('',(#322,#323,#324,#325));
#1050=EDGE_LOOP('',(#326));
#1051=EDGE_LOOP('',(#327));
#1052=EDGE_LOOP('',(#328,#329,#330,#331));
#1053=EDGE_LOOP('',(#332,#333,#334,#335));
#1054=EDGE_LOOP('',(#336,#337,#338,#339));
#1055=EDGE_LOOP('',(#340,#341,#342,#343));
#1056=EDGE_LOOP('',(#344,#345,#346,#347));
#1057=EDGE_LOOP('',(#348,#349,#350,#351));
#1058=EDGE_LOOP('',(#352,#353,#354,#355));
#1059=EDGE_LOOP('',(#356,#357,#358,#359));
#1060=EDGE_LOOP('',(#360,#361,#362,#363));
#1061=EDGE_LOOP('',(#364,#365,#366,#367));
#1062=EDGE_LOOP('',(#368,#369,#370,#371));
#1063=EDGE_LOOP('',(#372,#373,#374,#375));
#1064=EDGE_LOOP('',(#376,#377,#378,#379));
#1065=EDGE_LOOP('',(#380,#381,#382,#383));
#1066=EDGE_LOOP('',(#384,#385,#386,#387));
#1067=EDGE_LOOP('',(#388,#389,#390,#391));
#1068=EDGE_LOOP('',(#392,#393,#394,#395));
#1069=EDGE_LOOP('',(#396,#397,#398,#399));
#1070=EDGE_LOOP('',(#400,#401,#402,#403));
#1071=EDGE_LOOP('',(#404,#405,#406,#407));
#1072=EDGE_LOOP('',(#408,#409,#410,#411));
#1073=EDGE_LOOP('',(#412,#413,#414,#415));
#1074=EDGE_LOOP('',(#416,#417,#418,#419));
#1075=EDGE_LOOP('',(#420,#421,#422,#423));
#1076=EDGE_LOOP('',(#424,#425,#426,#427));
#1077=EDGE_LOOP('',(#428,#429,#430,#431));
#1078=EDGE_LOOP('',(#432,#433,#434,#435));
#1079=EDGE_LOOP('',(#436,#437,#438,#439));
#1080=EDGE_LOOP('',(#440,#441,#442,#443));
#1081=EDGE_LOOP('',(#444,#445,#446,#447));
#1082=EDGE_LOOP('',(#448,#449,#450,#451));
#1083=EDGE_LOOP('',(#452,#453,#454,#455));
#1084=EDGE_LOOP('',(#456,#457,#458,#459));
#1085=EDGE_LOOP('',(#460,#461,#462,#463));
#1086=EDGE_LOOP('',(#464,#465,#466,#467));
#1087=EDGE_LOOP('',(#468,#469,#470,#471));
#1088=FACE_BOUND('',#997,.T.);
#1089=FACE_BOUND('',#998,.T.);
#1090=FACE_BOUND('',#999,.T.);
#1091=FACE_BOUND('',#1000,.T.);
#1092=FACE_BOUND('',#1001,.T.);
#1093=FACE_BOUND('',#1002,.T.);
#1094=FACE_BOUND('',#1003,.T.);
#1095=FACE_BOUND('',#1004,.T.);
#1096=FACE_BOUND('',#1005,.T.);
#1097=FACE_BOUND('',#1006,.T.);
#1098=FACE_BOUND('',#1007,.T.);
#1099=FACE_BOUND('',#1008,.T.);
#1100=FACE_BOUND('',#1009,.T.);
#1101=FACE_BOUND('',#1010,.T.);
#1102=FACE_BOUND('',#1011,.T.);
#1103=FACE_BOUND('',#1012,.T.);
#1104=FACE_BOUND('',#1013,.T.);
#1105=FACE_BOUND('',#1014,.T.);
#1106=FACE_BOUND('',#1015,.T.);
#1107=FACE_BOUND('',#1016,.T.);
#1108=FACE_BOUND('',#1017,.T.);
#1109=FACE_BOUND('',#1018,.T.);
#1110=FACE_BOUND('',#1019,.T.);
#1111=FACE_BOUND('',#1020,.T.);
#1112=FACE_BOUND('',#1021,.T.);
#1113=FACE_BOUND('',#1022,.T.);
#1114=FACE_BOUND('',#1023,.T.);
#1115=FACE_BOUND('',#1024,.T.);
#1116=FACE_BOUND('',#1025,.T.);
#1117=FACE_BOUND('',#1026,.T.);
#1118=FACE_BOUND('',#1027,.T.);
#1119=FACE_BOUND('',#1028,.T.);
#1120=FACE_BOUND('',#1029,.T.);
#1121=FACE_BOUND('',#1030,.T.);
#1122=FACE_BOUND('',#1031,.T.);
#1123=FACE_BOUND('',#1032,.T.);
#1124=FACE_BOUND('',#1033,.T.);
#1125=FACE_BOUND('',#1034,.T.);
#1126=FACE_BOUND('',#1035,.T.);
#1127=FACE_BOUND('',#1036,.T.);
#1128=FACE_BOUND('',#1037,.T.);
#1129=FACE_BOUND('',#1038,.T.);
#1130=FACE_BOUND('',#1039,.T.);
#1131=FACE_BOUND('',#1040,.T.);
#1132=FACE_BOUND('',#1041,.T.);
#1133=FACE_BOUND('',#1042,.T.);
#1134=FACE_BOUND('',#1043,.T.);
#1135=FACE_BOUND('',#1044,.T.);
#1136=FACE_BOUND('',#1045,.T.);
#1137=FACE_BOUND('',#1046,.T.);
#1138=FACE_BOUND('',#1047,.T.);
#1139=FACE_BOUND('',#1048,.T.);
#1140=FACE_BOUND('',#1049,.T.);
#1141=FACE_BOUND('',#1050,.T.);
#1142=FACE_BOUND('',#1051,.T.);
#1143=FACE_BOUND('',#1052,.T.);
#1144=FACE_BOUND('',#1053,.T.);
#1145=FACE_BOUND('',#1054,.T.);
#1146=FACE_BOUND('',#1055,.T.);
#1147=FACE_BOUND('',#1056,.T.);
#1148=FACE_BOUND('',#1057,.T.);
#1149=FACE_BOUND('',#1058,.T.);
#1150=FACE_BOUND('',#1059,.T.);
#1151=FACE_BOUND('',#1060,.T.);
#1152=FACE_BOUND('',#1061,.T.);
#1153=FACE_BOUND('',#1062,.T.);
#1154=FACE_BOUND('',#1063,.T.);
#1155=FACE_BOUND('',#1064,.T.);
#1156=FACE_BOUND('',#1065,.T.);
#1157=FACE_BOUND('',#1066,.T.);
#1158=FACE_BOUND('',#1067,.T.);
#1159=FACE_BOUND('',#1068,.T.);
#1160=FACE_BOUND('',#1069,.T.);
#1161=FACE_BOUND('',#1070,.T.);
#1162=FACE_BOUND('',#1071,.T.);
#1163=FACE_BOUND('',#1072,.T.);
#1164=FACE_BOUND('',#1073,.T.);
#1165=FACE_BOUND('',#1074,.T.);
#1166=FACE_BOUND('',#1075,.T.);
#1167=FACE_BOUND('',#1076,.T.);
#1168=FACE_BOUND('',#1077,.T.);
#1169=FACE_BOUND('',#1078,.T.);
#1170=FACE_BOUND('',#1079,.T.);
#1171=FACE_BOUND('',#1080,.T.);
#1172=FACE_BOUND('',#1081,.T.);
#1173=FACE_BOUND('',#1082,.T.);
#1174=FACE_BOUND('',#1083,.T.);
#1175=FACE_BOUND('',#1084,.T.);
#1176=FACE_BOUND('',#1085,.T.);
#1177=FACE_BOUND('',#1086,.T.);
#1178=FACE_BOUND('',#1087,.T.);
#1179=PLANE('',#1288);
#1180=PLANE('',#1305);
#1181=PLANE('',#1336);
#1182=PLANE('',#1337);
#1183=PLANE('',#1338);
#1184=PLANE('',#1343);
#1185=PLANE('',#1344);
#1186=PLANE('',#1345);
#1187=PLANE('',#1346);
#1188=PLANE('',#1347);
#1189=PLANE('',#1348);
#1190=PLANE('',#1349);
#1191=PLANE('',#1350);
#1192=PLANE('',#1351);
#1193=PLANE('',#1374);
#1194=PLANE('',#1375);
#1195=PLANE('',#1376);
#1196=PLANE('',#1378);
#1197=PLANE('',#1379);
#1198=PLANE('',#1380);
#1199=PLANE('',#1382);
#1200=PLANE('',#1383);
#1201=PLANE('',#1385);
#1202=PLANE('',#1405);
#1203=PLANE('',#1406);
#1204=PLANE('',#1407);
#1205=PLANE('',#1408);
#1206=PLANE('',#1409);
#1207=PLANE('',#1410);
#1208=PLANE('',#1411);
#1209=PLANE('',#1412);
#1210=ADVANCED_FACE('',(#1088,#1089,#1090,#1091,#1092,#1093,#1094),#1179,
 .T.);
#1211=ADVANCED_FACE('',(#1095,#1096,#1097,#1098,#1099,#1100,#1101,#1102,
#1103,#1104),#1180,.F.);
#1212=ADVANCED_FACE('',(#1105),#1181,.T.);
#1213=ADVANCED_FACE('',(#1106),#1182,.F.);
#1214=ADVANCED_FACE('',(#1107),#1183,.T.);
#1215=ADVANCED_FACE('',(#1108,#1109),#12,.F.);
#1216=ADVANCED_FACE('',(#1110,#1111),#13,.F.);
#1217=ADVANCED_FACE('',(#1112,#1113),#14,.F.);
#1218=ADVANCED_FACE('',(#1114,#1115),#15,.F.);
#1219=ADVANCED_FACE('',(#1116),#1184,.F.);
#1220=ADVANCED_FACE('',(#1117),#1185,.T.);
#1221=ADVANCED_FACE('',(#1118),#1186,.T.);
#1222=ADVANCED_FACE('',(#1119),#1187,.F.);
#1223=ADVANCED_FACE('',(#1120),#1188,.T.);
#1224=ADVANCED_FACE('',(#1121),#1189,.F.);
#1225=ADVANCED_FACE('',(#1122),#1190,.F.);
#1226=ADVANCED_FACE('',(#1123),#1191,.T.);
#1227=ADVANCED_FACE('',(#1124,#1125,#1126,#1127,#1128),#1192,.T.);
#1228=ADVANCED_FACE('',(#1129),#1193,.F.);
#1229=ADVANCED_FACE('',(#1130),#1194,.T.);
#1230=ADVANCED_FACE('',(#1131),#1195,.F.);
#1231=ADVANCED_FACE('',(#1132,#1133),#16,.F.);
#1232=ADVANCED_FACE('',(#1134),#1196,.F.);
#1233=ADVANCED_FACE('',(#1135),#1197,.T.);
#1234=ADVANCED_FACE('',(#1136),#1198,.F.);
#1235=ADVANCED_FACE('',(#1137,#1138),#17,.F.);
#1236=ADVANCED_FACE('',(#1139),#1199,.T.);
#1237=ADVANCED_FACE('',(#1140),#1200,.F.);
#1238=ADVANCED_FACE('',(#1141,#1142),#18,.F.);
#1239=ADVANCED_FACE('',(#1143),#1201,.F.);
#1240=ADVANCED_FACE('',(#1144),#19,.F.);
#1241=ADVANCED_FACE('',(#1145),#20,.F.);
#1242=ADVANCED_FACE('',(#1146),#21,.F.);
#1243=ADVANCED_FACE('',(#1147),#22,.F.);
#1244=ADVANCED_FACE('',(#1148),#23,.F.);
#1245=ADVANCED_FACE('',(#1149),#24,.F.);
#1246=ADVANCED_FACE('',(#1150),#25,.T.);
#1247=ADVANCED_FACE('',(#1151),#26,.T.);
#1248=ADVANCED_FACE('',(#1152),#27,.T.);
#1249=ADVANCED_FACE('',(#1153),#28,.T.);
#1250=ADVANCED_FACE('',(#1154),#29,.T.);
#1251=ADVANCED_FACE('',(#1155),#30,.F.);
#1252=ADVANCED_FACE('',(#1156),#31,.T.);
#1253=ADVANCED_FACE('',(#1157),#32,.T.);
#1254=ADVANCED_FACE('',(#1158),#33,.F.);
#1255=ADVANCED_FACE('',(#1159),#34,.T.);
#1256=ADVANCED_FACE('',(#1160),#35,.T.);
#1257=ADVANCED_FACE('',(#1161),#36,.F.);
#1258=ADVANCED_FACE('',(#1162),#37,.T.);
#1259=ADVANCED_FACE('',(#1163),#1202,.T.);
#1260=ADVANCED_FACE('',(#1164),#1203,.F.);
#1261=ADVANCED_FACE('',(#1165),#1204,.F.);
#1262=ADVANCED_FACE('',(#1166),#1205,.T.);
#1263=ADVANCED_FACE('',(#1167),#1206,.T.);
#1264=ADVANCED_FACE('',(#1168),#1207,.F.);
#1265=ADVANCED_FACE('',(#1169),#1208,.F.);
#1266=ADVANCED_FACE('',(#1170),#1209,.T.);
#1267=ADVANCED_FACE('',(#1171),#38,.F.);
#1268=ADVANCED_FACE('',(#1172),#39,.F.);
#1269=ADVANCED_FACE('',(#1173),#40,.F.);
#1270=ADVANCED_FACE('',(#1174),#41,.F.);
#1271=ADVANCED_FACE('',(#1175),#42,.F.);
#1272=ADVANCED_FACE('',(#1176),#43,.F.);
#1273=ADVANCED_FACE('',(#1177),#44,.F.);
#1274=ADVANCED_FACE('',(#1178),#45,.F.);
#1275=CLOSED_SHELL('',(#1210,#1211,#1212,#1213,#1214,#1215,#1216,#1217,
#1218,#1219,#1220,#1221,#1222,#1223,#1224,#1225,#1226,#1227,#1228,#1229,
#1230,#1231,#1232,#1233,#1234,#1235,#1236,#1237,#1238,#1239,#1240,#1241,
#1242,#1243,#1244,#1245,#1246,#1247,#1248,#1249,#1250,#1251,#1252,#1253,
#1254,#1255,#1256,#1257,#1258,#1259,#1260,#1261,#1262,#1263,#1264,#1265,
#1266,#1267,#1268,#1269,#1270,#1271,#1272,#1273,#1274));
#1276=STYLED_ITEM('',(#1277),#1284);
#1277=PRESENTATION_STYLE_ASSIGNMENT((#1278));
#1278=SURFACE_STYLE_USAGE(.BOTH.,#1279);
#1279=SURFACE_SIDE_STYLE('',(#1280));
#1280=SURFACE_STYLE_FILL_AREA(#1281);
#1281=FILL_AREA_STYLE('',(#1282));
#1282=FILL_AREA_STYLE_COLOUR('',#1283);
#1283=COLOUR_RGB('',0.615686274509804,0.811764705882353,0.929411764705882);
#1284=MANIFOLD_SOLID_BREP('Part 1',#1275);
#1285=SHAPE_DEFINITION_REPRESENTATION(#2175,#1286);
#1286=SHAPE_REPRESENTATION('Part 1',(#1287),#2170);
#1287=AXIS2_PLACEMENT_3D('',#1800,#1421,#1422);
#1288=AXIS2_PLACEMENT_3D('',#1801,#1423,#1424);
#1289=AXIS2_PLACEMENT_3D('',#1805,#1426,#1427);
#1290=AXIS2_PLACEMENT_3D('',#1809,#1429,#1430);
#1291=AXIS2_PLACEMENT_3D('',#1813,#1432,#1433);
#1292=AXIS2_PLACEMENT_3D('',#1817,#1435,#1436);
#1293=AXIS2_PLACEMENT_3D('',#1818,#1437,#1438);
#1294=AXIS2_PLACEMENT_3D('',#1820,#1439,#1440);
#1295=AXIS2_PLACEMENT_3D('',#1822,#1441,#1442);
#1296=AXIS2_PLACEMENT_3D('',#1824,#1443,#1444);
#1297=AXIS2_PLACEMENT_3D('',#1829,#1446,#1447);
#1298=AXIS2_PLACEMENT_3D('',#1833,#1449,#1450);
#1299=AXIS2_PLACEMENT_3D('',#1837,#1452,#1453);
#1300=AXIS2_PLACEMENT_3D('',#1841,#1455,#1456);
#1301=AXIS2_PLACEMENT_3D('',#1845,#1458,#1459);
#1302=AXIS2_PLACEMENT_3D('',#1849,#1461,#1462);
#1303=AXIS2_PLACEMENT_3D('',#1853,#1464,#1465);
#1304=AXIS2_PLACEMENT_3D('',#1857,#1467,#1468);
#1305=AXIS2_PLACEMENT_3D('',#1858,#1469,#1470);
#1306=AXIS2_PLACEMENT_3D('',#1862,#1472,#1473);
#1307=AXIS2_PLACEMENT_3D('',#1866,#1475,#1476);
#1308=AXIS2_PLACEMENT_3D('',#1870,#1478,#1479);
#1309=AXIS2_PLACEMENT_3D('',#1874,#1481,#1482);
#1310=AXIS2_PLACEMENT_3D('',#1875,#1483,#1484);
#1311=AXIS2_PLACEMENT_3D('',#1877,#1485,#1486);
#1312=AXIS2_PLACEMENT_3D('',#1879,#1487,#1488);
#1313=AXIS2_PLACEMENT_3D('',#1881,#1489,#1490);
#1314=AXIS2_PLACEMENT_3D('',#1886,#1492,#1493);
#1315=AXIS2_PLACEMENT_3D('',#1890,#1495,#1496);
#1316=AXIS2_PLACEMENT_3D('',#1894,#1498,#1499);
#1317=AXIS2_PLACEMENT_3D('',#1898,#1501,#1502);
#1318=AXIS2_PLACEMENT_3D('',#1904,#1505,#1506);
#1319=AXIS2_PLACEMENT_3D('',#1908,#1508,#1509);
#1320=AXIS2_PLACEMENT_3D('',#1912,#1511,#1512);
#1321=AXIS2_PLACEMENT_3D('',#1916,#1514,#1515);
#1322=AXIS2_PLACEMENT_3D('',#1920,#1517,#1518);
#1323=AXIS2_PLACEMENT_3D('',#1924,#1520,#1521);
#1324=AXIS2_PLACEMENT_3D('',#1928,#1523,#1524);
#1325=AXIS2_PLACEMENT_3D('',#1932,#1526,#1527);
#1326=AXIS2_PLACEMENT_3D('',#1936,#1529,#1530);
#1327=AXIS2_PLACEMENT_3D('',#1940,#1532,#1533);
#1328=AXIS2_PLACEMENT_3D('',#1944,#1535,#1536);
#1329=AXIS2_PLACEMENT_3D('',#1945,#1537,#1538);
#1330=AXIS2_PLACEMENT_3D('',#1947,#1539,#1540);
#1331=AXIS2_PLACEMENT_3D('',#1949,#1541,#1542);
#1332=AXIS2_PLACEMENT_3D('',#1954,#1544,#1545);
#1333=AXIS2_PLACEMENT_3D('',#1958,#1547,#1548);
#1334=AXIS2_PLACEMENT_3D('',#1962,#1550,#1551);
#1335=AXIS2_PLACEMENT_3D('',#1966,#1553,#1554);
#1336=AXIS2_PLACEMENT_3D('',#1967,#1555,#1556);
#1337=AXIS2_PLACEMENT_3D('',#1973,#1560,#1561);
#1338=AXIS2_PLACEMENT_3D('',#1979,#1565,#1566);
#1339=AXIS2_PLACEMENT_3D('',#1985,#1570,#1571);
#1340=AXIS2_PLACEMENT_3D('',#1986,#1572,#1573);
#1341=AXIS2_PLACEMENT_3D('',#1987,#1574,#1575);
#1342=AXIS2_PLACEMENT_3D('',#1988,#1576,#1577);
#1343=AXIS2_PLACEMENT_3D('',#1989,#1578,#1579);
#1344=AXIS2_PLACEMENT_3D('',#1995,#1583,#1584);
#1345=AXIS2_PLACEMENT_3D('',#2001,#1588,#1589);
#1346=AXIS2_PLACEMENT_3D('',#2007,#1593,#1594);
#1347=AXIS2_PLACEMENT_3D('',#2013,#1598,#1599);
#1348=AXIS2_PLACEMENT_3D('',#2019,#1603,#1604);
#1349=AXIS2_PLACEMENT_3D('',#2025,#1608,#1609);
#1350=AXIS2_PLACEMENT_3D('',#2031,#1613,#1614);
#1351=AXIS2_PLACEMENT_3D('',#2037,#1618,#1619);
#1352=AXIS2_PLACEMENT_3D('',#2038,#1620,#1621);
#1353=AXIS2_PLACEMENT_3D('',#2039,#1622,#1623);
#1354=AXIS2_PLACEMENT_3D('',#2043,#1625,#1626);
#1355=AXIS2_PLACEMENT_3D('',#2047,#1628,#1629);
#1356=AXIS2_PLACEMENT_3D('',#2051,#1631,#1632);
#1357=AXIS2_PLACEMENT_3D('',#2052,#1633,#1634);
#1358=AXIS2_PLACEMENT_3D('',#2053,#1635,#1636);
#1359=AXIS2_PLACEMENT_3D('',#2057,#1638,#1639);
#1360=AXIS2_PLACEMENT_3D('',#2061,#1641,#1642);
#1361=AXIS2_PLACEMENT_3D('',#2065,#1644,#1645);
#1362=AXIS2_PLACEMENT_3D('',#2066,#1646,#1647);
#1363=AXIS2_PLACEMENT_3D('',#2067,#1648,#1649);
#1364=AXIS2_PLACEMENT_3D('',#2070,#1651,#1652);
#1365=AXIS2_PLACEMENT_3D('',#2074,#1654,#1655);
#1366=AXIS2_PLACEMENT_3D('',#2078,#1657,#1658);
#1367=AXIS2_PLACEMENT_3D('',#2079,#1659,#1660);
#1368=AXIS2_PLACEMENT_3D('',#2080,#1661,#1662);
#1369=AXIS2_PLACEMENT_3D('',#2081,#1663,#1664);
#1370=AXIS2_PLACEMENT_3D('',#2082,#1665,#1666);
#1371=AXIS2_PLACEMENT_3D('',#2083,#1667,#1668);
#1372=AXIS2_PLACEMENT_3D('',#2085,#1669,#1670);
#1373=AXIS2_PLACEMENT_3D('',#2087,#1671,#1672);
#1374=AXIS2_PLACEMENT_3D('',#2089,#1673,#1674);
#1375=AXIS2_PLACEMENT_3D('',#2092,#1677,#1678);
#1376=AXIS2_PLACEMENT_3D('',#2095,#1681,#1682);
#1377=AXIS2_PLACEMENT_3D('',#2098,#1685,#1686);
#1378=AXIS2_PLACEMENT_3D('',#2099,#1687,#1688);
#1379=AXIS2_PLACEMENT_3D('',#2102,#1691,#1692);
#1380=AXIS2_PLACEMENT_3D('',#2104,#1694,#1695);
#1381=AXIS2_PLACEMENT_3D('',#2107,#1698,#1699);
#1382=AXIS2_PLACEMENT_3D('',#2108,#1700,#1701);
#1383=AXIS2_PLACEMENT_3D('',#2111,#1704,#1705);
#1384=AXIS2_PLACEMENT_3D('',#2114,#1708,#1709);
#1385=AXIS2_PLACEMENT_3D('',#2115,#1710,#1711);
#1386=AXIS2_PLACEMENT_3D('',#2118,#1714,#1715);
#1387=AXIS2_PLACEMENT_3D('',#2119,#1716,#1717);
#1388=AXIS2_PLACEMENT_3D('',#2120,#1718,#1719);
#1389=AXIS2_PLACEMENT_3D('',#2121,#1720,#1721);
#1390=AXIS2_PLACEMENT_3D('',#2122,#1722,#1723);
#1391=AXIS2_PLACEMENT_3D('',#2123,#1724,#1725);
#1392=AXIS2_PLACEMENT_3D('',#2124,#1726,#1727);
#1393=AXIS2_PLACEMENT_3D('',#2125,#1728,#1729);
#1394=AXIS2_PLACEMENT_3D('',#2126,#1730,#1731);
#1395=AXIS2_PLACEMENT_3D('',#2127,#1732,#1733);
#1396=AXIS2_PLACEMENT_3D('',#2128,#1734,#1735);
#1397=AXIS2_PLACEMENT_3D('',#2129,#1736,#1737);
#1398=AXIS2_PLACEMENT_3D('',#2130,#1738,#1739);
#1399=AXIS2_PLACEMENT_3D('',#2131,#1740,#1741);
#1400=AXIS2_PLACEMENT_3D('',#2132,#1742,#1743);
#1401=AXIS2_PLACEMENT_3D('',#2133,#1744,#1745);
#1402=AXIS2_PLACEMENT_3D('',#2134,#1746,#1747);
#1403=AXIS2_PLACEMENT_3D('',#2135,#1748,#1749);
#1404=AXIS2_PLACEMENT_3D('',#2136,#1750,#1751);
#1405=AXIS2_PLACEMENT_3D('',#2137,#1752,#1753);
#1406=AXIS2_PLACEMENT_3D('',#2140,#1756,#1757);
#1407=AXIS2_PLACEMENT_3D('',#2143,#1760,#1761);
#1408=AXIS2_PLACEMENT_3D('',#2146,#1764,#1765);
#1409=AXIS2_PLACEMENT_3D('',#2149,#1768,#1769);
#1410=AXIS2_PLACEMENT_3D('',#2152,#1772,#1773);
#1411=AXIS2_PLACEMENT_3D('',#2155,#1776,#1777);
#1412=AXIS2_PLACEMENT_3D('',#2158,#1780,#1781);
#1413=AXIS2_PLACEMENT_3D('',#2161,#1784,#1785);
#1414=AXIS2_PLACEMENT_3D('',#2162,#1786,#1787);
#1415=AXIS2_PLACEMENT_3D('',#2163,#1788,#1789);
#1416=AXIS2_PLACEMENT_3D('',#2164,#1790,#1791);
#1417=AXIS2_PLACEMENT_3D('',#2165,#1792,#1793);
#1418=AXIS2_PLACEMENT_3D('',#2166,#1794,#1795);
#1419=AXIS2_PLACEMENT_3D('',#2167,#1796,#1797);
#1420=AXIS2_PLACEMENT_3D('',#2168,#1798,#1799);
#1421=DIRECTION('',(0.,0.,1.));
#1422=DIRECTION('',(1.,0.,0.));
#1423=DIRECTION('',(0.,0.,1.));
#1424=DIRECTION('',(1.,0.,0.));
#1425=DIRECTION('',(1.,0.,0.));
#1426=DIRECTION('',(0.,0.,1.));
#1427=DIRECTION('',(1.,0.,0.));
#1428=DIRECTION('',(-2.77555756156289E-16,1.,0.));
#1429=DIRECTION('',(0.,0.,1.));
#1430=DIRECTION('',(1.,0.,0.));
#1431=DIRECTION('',(1.,0.,0.));
#1432=DIRECTION('',(0.,0.,1.));
#1433=DIRECTION('',(1.,0.,0.));
#1434=DIRECTION('',(-1.82145964977564E-16,1.,0.));
#1435=DIRECTION('',(0.,0.,1.));
#1436=DIRECTION('',(1.,0.,0.));
#1437=DIRECTION('',(0.,0.,1.));
#1438=DIRECTION('',(1.,0.,0.));
#1439=DIRECTION('',(0.,0.,1.));
#1440=DIRECTION('',(1.,0.,0.));
#1441=DIRECTION('',(0.,0.,1.));
#1442=DIRECTION('',(1.,0.,0.));
#1443=DIRECTION('',(0.,0.,1.));
#1444=DIRECTION('',(1.,0.,0.));
#1445=DIRECTION('',(-1.,0.,0.));
#1446=DIRECTION('',(0.,0.,1.));
#1447=DIRECTION('',(1.,0.,0.));
#1448=DIRECTION('',(0.,-1.,0.));
#1449=DIRECTION('',(0.,0.,1.));
#1450=DIRECTION('',(1.,0.,0.));
#1451=DIRECTION('',(-1.,0.,0.));
#1452=DIRECTION('',(0.,0.,1.));
#1453=DIRECTION('',(1.,0.,0.));
#1454=DIRECTION('',(0.,-1.,0.));
#1455=DIRECTION('',(0.,0.,1.));
#1456=DIRECTION('',(1.,0.,0.));
#1457=DIRECTION('',(-1.,0.,0.));
#1458=DIRECTION('',(0.,0.,1.));
#1459=DIRECTION('',(1.,0.,0.));
#1460=DIRECTION('',(0.,-1.,0.));
#1461=DIRECTION('',(0.,0.,1.));
#1462=DIRECTION('',(1.,0.,0.));
#1463=DIRECTION('',(-1.,0.,0.));
#1464=DIRECTION('',(0.,0.,1.));
#1465=DIRECTION('',(1.,0.,0.));
#1466=DIRECTION('',(0.,-1.,0.));
#1467=DIRECTION('',(0.,0.,1.));
#1468=DIRECTION('',(1.,0.,0.));
#1469=DIRECTION('',(0.,0.,1.));
#1470=DIRECTION('',(1.,0.,0.));
#1471=DIRECTION('',(0.,1.,0.));
#1472=DIRECTION('',(0.,0.,1.));
#1473=DIRECTION('',(1.,0.,0.));
#1474=DIRECTION('',(1.,0.,0.));
#1475=DIRECTION('',(0.,0.,1.));
#1476=DIRECTION('',(1.,0.,0.));
#1477=DIRECTION('',(0.,1.,0.));
#1478=DIRECTION('',(0.,0.,1.));
#1479=DIRECTION('',(1.,0.,0.));
#1480=DIRECTION('',(1.,0.,0.));
#1481=DIRECTION('',(0.,0.,1.));
#1482=DIRECTION('',(1.,0.,0.));
#1483=DIRECTION('',(0.,0.,1.));
#1484=DIRECTION('',(1.,0.,0.));
#1485=DIRECTION('',(0.,0.,1.));
#1486=DIRECTION('',(1.,0.,0.));
#1487=DIRECTION('',(0.,0.,1.));
#1488=DIRECTION('',(1.,0.,0.));
#1489=DIRECTION('',(0.,0.,1.));
#1490=DIRECTION('',(1.,0.,0.));
#1491=DIRECTION('',(1.,0.,0.));
#1492=DIRECTION('',(0.,0.,1.));
#1493=DIRECTION('',(1.,0.,0.));
#1494=DIRECTION('',(-1.23908819712629E-16,1.,0.));
#1495=DIRECTION('',(0.,0.,1.));
#1496=DIRECTION('',(1.,0.,0.));
#1497=DIRECTION('',(1.,0.,0.));
#1498=DIRECTION('',(0.,0.,1.));
#1499=DIRECTION('',(1.,0.,0.));
#1500=DIRECTION('',(0.,-1.,0.));
#1501=DIRECTION('',(0.,0.,1.));
#1502=DIRECTION('',(1.,0.,0.));
#1503=DIRECTION('',(1.,0.,0.));
#1504=DIRECTION('',(-1.23908819712629E-16,1.,0.));
#1505=DIRECTION('',(0.,0.,1.));
#1506=DIRECTION('',(1.,0.,0.));
#1507=DIRECTION('',(1.,0.,0.));
#1508=DIRECTION('',(0.,0.,1.));
#1509=DIRECTION('',(1.,0.,0.));
#1510=DIRECTION('',(0.,1.,0.));
#1511=DIRECTION('',(0.,0.,1.));
#1512=DIRECTION('',(1.,0.,0.));
#1513=DIRECTION('',(-1.,0.,0.));
#1514=DIRECTION('',(0.,0.,1.));
#1515=DIRECTION('',(1.,0.,0.));
#1516=DIRECTION('',(0.,1.,0.));
#1517=DIRECTION('',(0.,0.,1.));
#1518=DIRECTION('',(1.,0.,0.));
#1519=DIRECTION('',(-1.,0.,0.));
#1520=DIRECTION('',(0.,0.,1.));
#1521=DIRECTION('',(1.,0.,0.));
#1522=DIRECTION('',(0.,1.,0.));
#1523=DIRECTION('',(0.,0.,1.));
#1524=DIRECTION('',(1.,0.,0.));
#1525=DIRECTION('',(1.,0.,0.));
#1526=DIRECTION('',(0.,0.,1.));
#1527=DIRECTION('',(1.,0.,0.));
#1528=DIRECTION('',(3.46944695195362E-16,1.,0.));
#1529=DIRECTION('',(0.,0.,1.));
#1530=DIRECTION('',(1.,0.,0.));
#1531=DIRECTION('',(1.,0.,0.));
#1532=DIRECTION('',(0.,0.,1.));
#1533=DIRECTION('',(1.,0.,0.));
#1534=DIRECTION('',(0.,1.,0.));
#1535=DIRECTION('',(0.,0.,1.));
#1536=DIRECTION('',(1.,0.,0.));
#1537=DIRECTION('',(0.,0.,1.));
#1538=DIRECTION('',(1.,0.,0.));
#1539=DIRECTION('',(0.,0.,1.));
#1540=DIRECTION('',(1.,0.,0.));
#1541=DIRECTION('',(0.,0.,-1.));
#1542=DIRECTION('',(1.,0.,0.));
#1543=DIRECTION('',(0.,1.,0.));
#1544=DIRECTION('',(0.,0.,1.));
#1545=DIRECTION('',(1.,0.,0.));
#1546=DIRECTION('',(1.,0.,0.));
#1547=DIRECTION('',(0.,0.,1.));
#1548=DIRECTION('',(1.,0.,0.));
#1549=DIRECTION('',(0.,1.,0.));
#1550=DIRECTION('',(0.,0.,1.));
#1551=DIRECTION('',(1.,0.,0.));
#1552=DIRECTION('',(1.,0.,0.));
#1553=DIRECTION('',(0.,0.,1.));
#1554=DIRECTION('',(1.,0.,0.));
#1555=DIRECTION('',(-1.,0.,0.));
#1556=DIRECTION('',(0.,0.,1.));
#1557=DIRECTION('',(0.,0.,1.));
#1558=DIRECTION('',(0.,1.,0.));
#1559=DIRECTION('',(0.,0.,-1.));
#1560=DIRECTION('',(-1.,-1.23908819712629E-16,0.));
#1561=DIRECTION('',(1.23908819712629E-16,-1.,0.));
#1562=DIRECTION('',(-1.23908819712629E-16,1.,0.));
#1563=DIRECTION('',(0.,0.,1.));
#1564=DIRECTION('',(0.,0.,-1.));
#1565=DIRECTION('',(0.,1.,0.));
#1566=DIRECTION('',(0.,0.,1.));
#1567=DIRECTION('',(0.,0.,1.));
#1568=DIRECTION('',(1.,0.,0.));
#1569=DIRECTION('',(0.,0.,-1.));
#1570=DIRECTION('',(0.,0.,-1.));
#1571=DIRECTION('',(-1.,0.,0.));
#1572=DIRECTION('',(0.,0.,-1.));
#1573=DIRECTION('',(-1.,0.,0.));
#1574=DIRECTION('',(0.,0.,-1.));
#1575=DIRECTION('',(-1.,0.,0.));
#1576=DIRECTION('',(0.,0.,-1.));
#1577=DIRECTION('',(-1.,0.,0.));
#1578=DIRECTION('',(-1.,-1.82145964977564E-16,0.));
#1579=DIRECTION('',(1.82145964977564E-16,-1.,0.));
#1580=DIRECTION('',(-1.82145964977564E-16,1.,0.));
#1581=DIRECTION('',(0.,0.,-1.));
#1582=DIRECTION('',(0.,0.,-1.));
#1583=DIRECTION('',(0.,1.,0.));
#1584=DIRECTION('',(0.,0.,1.));
#1585=DIRECTION('',(1.,0.,0.));
#1586=DIRECTION('',(0.,0.,-1.));
#1587=DIRECTION('',(0.,0.,-1.));
#1588=DIRECTION('',(-1.,-2.77555756156289E-16,0.));
#1589=DIRECTION('',(2.77555756156289E-16,-1.,0.));
#1590=DIRECTION('',(0.,0.,-1.));
#1591=DIRECTION('',(-2.77555756156289E-16,1.,0.));
#1592=DIRECTION('',(0.,0.,-1.));
#1593=DIRECTION('',(0.,1.,0.));
#1594=DIRECTION('',(0.,0.,1.));
#1595=DIRECTION('',(0.,0.,-1.));
#1596=DIRECTION('',(1.,0.,0.));
#1597=DIRECTION('',(0.,0.,-1.));
#1598=DIRECTION('',(-1.,0.,0.));
#1599=DIRECTION('',(0.,0.,1.));
#1600=DIRECTION('',(0.,0.,-1.));
#1601=DIRECTION('',(0.,1.,0.));
#1602=DIRECTION('',(0.,0.,1.));
#1603=DIRECTION('',(0.,1.,0.));
#1604=DIRECTION('',(0.,0.,1.));
#1605=DIRECTION('',(0.,0.,-1.));
#1606=DIRECTION('',(1.,0.,0.));
#1607=DIRECTION('',(0.,0.,-1.));
#1608=DIRECTION('',(-1.,-1.23908819712629E-16,0.));
#1609=DIRECTION('',(1.23908819712629E-16,-1.,0.));
#1610=DIRECTION('',(-1.23908819712629E-16,1.,0.));
#1611=DIRECTION('',(0.,0.,-1.));
#1612=DIRECTION('',(0.,0.,1.));
#1613=DIRECTION('',(0.,1.,0.));
#1614=DIRECTION('',(0.,0.,1.));
#1615=DIRECTION('',(1.,0.,0.));
#1616=DIRECTION('',(0.,0.,1.));
#1617=DIRECTION('',(0.,0.,-1.));
#1618=DIRECTION('',(0.,0.,1.));
#1619=DIRECTION('',(1.,0.,0.));
#1620=DIRECTION('',(0.,0.,1.));
#1621=DIRECTION('',(1.,0.,0.));
#1622=DIRECTION('',(0.,0.,1.));
#1623=DIRECTION('',(1.,0.,0.));
#1624=DIRECTION('',(0.,1.,0.));
#1625=DIRECTION('',(0.,0.,1.));
#1626=DIRECTION('',(1.,0.,0.));
#1627=DIRECTION('',(1.,0.,0.));
#1628=DIRECTION('',(0.,0.,1.));
#1629=DIRECTION('',(1.,0.,0.));
#1630=DIRECTION('',(3.46944695195362E-16,1.,0.));
#1631=DIRECTION('',(0.,0.,1.));
#1632=DIRECTION('',(1.,0.,0.));
#1633=DIRECTION('',(0.,0.,1.));
#1634=DIRECTION('',(1.,0.,0.));
#1635=DIRECTION('',(0.,0.,1.));
#1636=DIRECTION('',(1.,0.,0.));
#1637=DIRECTION('',(-1.,0.,0.));
#1638=DIRECTION('',(0.,0.,1.));
#1639=DIRECTION('',(1.,0.,0.));
#1640=DIRECTION('',(0.,1.,0.));
#1641=DIRECTION('',(0.,0.,1.));
#1642=DIRECTION('',(1.,0.,0.));
#1643=DIRECTION('',(-1.,0.,0.));
#1644=DIRECTION('',(0.,0.,1.));
#1645=DIRECTION('',(1.,0.,0.));
#1646=DIRECTION('',(0.,0.,1.));
#1647=DIRECTION('',(1.,0.,0.));
#1648=DIRECTION('',(0.,0.,1.));
#1649=DIRECTION('',(1.,0.,0.));
#1650=DIRECTION('',(1.,0.,0.));
#1651=DIRECTION('',(0.,0.,1.));
#1652=DIRECTION('',(1.,0.,0.));
#1653=DIRECTION('',(0.,-1.,0.));
#1654=DIRECTION('',(0.,0.,1.));
#1655=DIRECTION('',(1.,0.,0.));
#1656=DIRECTION('',(1.,0.,0.));
#1657=DIRECTION('',(0.,0.,1.));
#1658=DIRECTION('',(1.,0.,0.));
#1659=DIRECTION('',(0.,0.,1.));
#1660=DIRECTION('',(1.,0.,0.));
#1661=DIRECTION('',(0.,0.,1.));
#1662=DIRECTION('',(1.,0.,0.));
#1663=DIRECTION('',(0.,0.,1.));
#1664=DIRECTION('',(1.,0.,0.));
#1665=DIRECTION('',(0.,0.,1.));
#1666=DIRECTION('',(1.,0.,0.));
#1667=DIRECTION('',(0.,0.,1.));
#1668=DIRECTION('',(1.,0.,0.));
#1669=DIRECTION('',(0.,0.,1.));
#1670=DIRECTION('',(1.,0.,0.));
#1671=DIRECTION('',(0.,0.,-1.));
#1672=DIRECTION('',(1.,0.,0.));
#1673=DIRECTION('',(1.,-3.46944695195362E-16,0.));
#1674=DIRECTION('',(3.46944695195362E-16,1.,0.));
#1675=DIRECTION('',(0.,0.,1.));
#1676=DIRECTION('',(0.,0.,1.));
#1677=DIRECTION('',(1.,0.,0.));
#1678=DIRECTION('',(0.,0.,-1.));
#1679=DIRECTION('',(0.,0.,1.));
#1680=DIRECTION('',(0.,0.,1.));
#1681=DIRECTION('',(0.,-1.,0.));
#1682=DIRECTION('',(0.,0.,-1.));
#1683=DIRECTION('',(0.,0.,1.));
#1684=DIRECTION('',(0.,0.,1.));
#1685=DIRECTION('',(0.,0.,1.));
#1686=DIRECTION('',(1.,0.,0.));
#1687=DIRECTION('',(0.,-1.,0.));
#1688=DIRECTION('',(0.,0.,-1.));
#1689=DIRECTION('',(0.,0.,1.));
#1690=DIRECTION('',(0.,0.,1.));
#1691=DIRECTION('',(0.,-1.,0.));
#1692=DIRECTION('',(0.,0.,-1.));
#1693=DIRECTION('',(0.,0.,1.));
#1694=DIRECTION('',(-1.,0.,0.));
#1695=DIRECTION('',(0.,0.,1.));
#1696=DIRECTION('',(0.,0.,1.));
#1697=DIRECTION('',(0.,0.,1.));
#1698=DIRECTION('',(0.,0.,1.));
#1699=DIRECTION('',(1.,0.,0.));
#1700=DIRECTION('',(0.,1.,0.));
#1701=DIRECTION('',(0.,0.,1.));
#1702=DIRECTION('',(0.,0.,1.));
#1703=DIRECTION('',(0.,0.,1.));
#1704=DIRECTION('',(1.,0.,0.));
#1705=DIRECTION('',(0.,0.,-1.));
#1706=DIRECTION('',(0.,0.,1.));
#1707=DIRECTION('',(0.,0.,1.));
#1708=DIRECTION('',(0.,0.,1.));
#1709=DIRECTION('',(1.,0.,0.));
#1710=DIRECTION('',(0.,1.,0.));
#1711=DIRECTION('',(0.,0.,1.));
#1712=DIRECTION('',(0.,0.,1.));
#1713=DIRECTION('',(0.,0.,1.));
#1714=DIRECTION('',(0.,0.,1.));
#1715=DIRECTION('',(1.,0.,0.));
#1716=DIRECTION('',(0.,0.,-1.));
#1717=DIRECTION('',(-1.,0.,0.));
#1718=DIRECTION('',(0.,0.,-1.));
#1719=DIRECTION('',(-1.,0.,0.));
#1720=DIRECTION('',(0.,0.,1.));
#1721=DIRECTION('',(1.,0.,0.));
#1722=DIRECTION('',(0.,0.,-1.));
#1723=DIRECTION('',(-1.,0.,0.));
#1724=DIRECTION('',(0.,0.,-1.));
#1725=DIRECTION('',(-1.,0.,0.));
#1726=DIRECTION('',(0.,0.,1.));
#1727=DIRECTION('',(1.,0.,0.));
#1728=DIRECTION('',(0.,0.,1.));
#1729=DIRECTION('',(1.,0.,0.));
#1730=DIRECTION('',(0.,0.,-1.));
#1731=DIRECTION('',(-1.,0.,0.));
#1732=DIRECTION('',(0.,0.,-1.));
#1733=DIRECTION('',(-1.,0.,0.));
#1734=DIRECTION('',(0.,0.,1.));
#1735=DIRECTION('',(1.,0.,0.));
#1736=DIRECTION('',(0.,0.,1.));
#1737=DIRECTION('',(1.,0.,0.));
#1738=DIRECTION('',(0.,0.,1.));
#1739=DIRECTION('',(1.,0.,0.));
#1740=DIRECTION('',(0.,0.,-1.));
#1741=DIRECTION('',(-1.,0.,0.));
#1742=DIRECTION('',(0.,0.,-1.));
#1743=DIRECTION('',(-1.,0.,0.));
#1744=DIRECTION('',(0.,0.,-1.));
#1745=DIRECTION('',(-1.,0.,0.));
#1746=DIRECTION('',(0.,0.,1.));
#1747=DIRECTION('',(1.,0.,0.));
#1748=DIRECTION('',(0.,0.,1.));
#1749=DIRECTION('',(1.,0.,0.));
#1750=DIRECTION('',(0.,0.,-1.));
#1751=DIRECTION('',(-1.,0.,0.));
#1752=DIRECTION('',(0.,1.,0.));
#1753=DIRECTION('',(0.,0.,1.));
#1754=DIRECTION('',(0.,0.,-1.));
#1755=DIRECTION('',(0.,0.,-1.));
#1756=DIRECTION('',(-1.,0.,0.));
#1757=DIRECTION('',(0.,0.,1.));
#1758=DIRECTION('',(0.,0.,-1.));
#1759=DIRECTION('',(0.,0.,-1.));
#1760=DIRECTION('',(0.,1.,0.));
#1761=DIRECTION('',(0.,0.,1.));
#1762=DIRECTION('',(0.,0.,-1.));
#1763=DIRECTION('',(0.,0.,-1.));
#1764=DIRECTION('',(-1.,0.,0.));
#1765=DIRECTION('',(0.,0.,1.));
#1766=DIRECTION('',(0.,0.,-1.));
#1767=DIRECTION('',(0.,0.,-1.));
#1768=DIRECTION('',(0.,1.,0.));
#1769=DIRECTION('',(0.,0.,1.));
#1770=DIRECTION('',(0.,0.,-1.));
#1771=DIRECTION('',(0.,0.,-1.));
#1772=DIRECTION('',(-1.,0.,0.));
#1773=DIRECTION('',(0.,0.,1.));
#1774=DIRECTION('',(0.,0.,-1.));
#1775=DIRECTION('',(0.,0.,-1.));
#1776=DIRECTION('',(0.,1.,0.));
#1777=DIRECTION('',(0.,0.,1.));
#1778=DIRECTION('',(0.,0.,-1.));
#1779=DIRECTION('',(0.,0.,-1.));
#1780=DIRECTION('',(-1.,0.,0.));
#1781=DIRECTION('',(0.,0.,1.));
#1782=DIRECTION('',(0.,0.,-1.));
#1783=DIRECTION('',(0.,0.,-1.));
#1784=DIRECTION('',(0.,0.,-1.));
#1785=DIRECTION('',(-1.,0.,0.));
#1786=DIRECTION('',(0.,0.,-1.));
#1787=DIRECTION('',(-1.,0.,0.));
#1788=DIRECTION('',(0.,0.,1.));
#1789=DIRECTION('',(1.,0.,0.));
#1790=DIRECTION('',(0.,0.,1.));
#1791=DIRECTION('',(1.,0.,0.));
#1792=DIRECTION('',(0.,0.,-1.));
#1793=DIRECTION('',(-1.,0.,0.));
#1794=DIRECTION('',(0.,0.,1.));
#1795=DIRECTION('',(1.,0.,0.));
#1796=DIRECTION('',(0.,0.,1.));
#1797=DIRECTION('',(1.,0.,0.));
#1798=DIRECTION('',(0.,0.,-1.));
#1799=DIRECTION('',(-1.,0.,0.));
#1800=CARTESIAN_POINT('',(0.,0.,0.));
#1801=CARTESIAN_POINT('',(0.014,0.014,0.002));
#1802=CARTESIAN_POINT('',(0.014,0.0015,0.002));
#1803=CARTESIAN_POINT('',(0.0025,0.0015,0.002));
#1804=CARTESIAN_POINT('',(0.0255,0.0015,0.002));
#1805=CARTESIAN_POINT('',(0.0255,0.0025,0.002));
#1806=CARTESIAN_POINT('',(0.0265,0.0025,0.002));
#1807=CARTESIAN_POINT('',(0.0265,0.014,0.002));
#1808=CARTESIAN_POINT('',(0.0265,0.0255,0.002));
#1809=CARTESIAN_POINT('',(0.0255,0.0255,0.002));
#1810=CARTESIAN_POINT('',(0.0255,0.0265,0.002));
#1811=CARTESIAN_POINT('',(0.014,0.0265,0.002));
#1812=CARTESIAN_POINT('',(0.0025,0.0265,0.002));
#1813=CARTESIAN_POINT('',(0.0025,0.0255,0.002));
#1814=CARTESIAN_POINT('',(0.0015,0.0255,0.002));
#1815=CARTESIAN_POINT('',(0.0015,0.014,0.002));
#1816=CARTESIAN_POINT('',(0.0015,0.0025,0.002));
#1817=CARTESIAN_POINT('',(0.0025,0.0025,0.002));
#1818=CARTESIAN_POINT('',(0.006,0.022,0.002));
#1819=CARTESIAN_POINT('',(0.0075,0.022,0.002));
#1820=CARTESIAN_POINT('',(0.022,0.022,0.002));
#1821=CARTESIAN_POINT('',(0.0235,0.022,0.002));
#1822=CARTESIAN_POINT('',(0.022,0.006,0.002));
#1823=CARTESIAN_POINT('',(0.0235,0.006,0.002));
#1824=CARTESIAN_POINT('',(0.006,0.006,0.002));
#1825=CARTESIAN_POINT('',(0.0075,0.006,0.002));
#1826=CARTESIAN_POINT('',(0.014,0.0089178865738213,0.002));
#1827=CARTESIAN_POINT('',(0.0191414683014154,0.0089178865738213,0.002));
#1828=CARTESIAN_POINT('',(0.00917074076086283,0.0089178865738213,0.002));
#1829=CARTESIAN_POINT('',(0.0191414683014154,0.0084178865738213,0.002));
#1830=CARTESIAN_POINT('',(0.0196414683014155,0.0084178865738213,0.002));
#1831=CARTESIAN_POINT('',(0.0196414683014155,0.014,0.002));
#1832=CARTESIAN_POINT('',(0.0196414683014155,0.0049178865738213,0.002));
#1833=CARTESIAN_POINT('',(0.0191414683014154,0.0049178865738213,0.002));
#1834=CARTESIAN_POINT('',(0.0191414683014154,0.0044178865738213,0.002));
#1835=CARTESIAN_POINT('',(0.014,0.0044178865738213,0.002));
#1836=CARTESIAN_POINT('',(0.00917074076086283,0.0044178865738213,0.002));
#1837=CARTESIAN_POINT('',(0.00917074076086283,0.0049178865738213,0.002));
#1838=CARTESIAN_POINT('',(0.00867074076086283,0.0049178865738213,0.002));
#1839=CARTESIAN_POINT('',(0.00867074076086283,0.014,0.002));
#1840=CARTESIAN_POINT('',(0.00867074076086283,0.0084178865738213,0.002));
#1841=CARTESIAN_POINT('',(0.00917074076086283,0.0084178865738213,0.002));
#1842=CARTESIAN_POINT('',(0.014,0.02298085950315,0.002));
#1843=CARTESIAN_POINT('',(0.0197562082558871,0.02298085950315,0.002));
#1844=CARTESIAN_POINT('',(0.00813041293248534,0.02298085950315,0.002));
#1845=CARTESIAN_POINT('',(0.0197562082558871,0.02248085950315,0.002));
#1846=CARTESIAN_POINT('',(0.0202562082558871,0.02248085950315,0.002));
#1847=CARTESIAN_POINT('',(0.0202562082558871,0.014,0.002));
#1848=CARTESIAN_POINT('',(0.0202562082558871,0.01898085950315,0.002));
#1849=CARTESIAN_POINT('',(0.0197562082558871,0.01898085950315,0.002));
#1850=CARTESIAN_POINT('',(0.0197562082558871,0.01848085950315,0.002));
#1851=CARTESIAN_POINT('',(0.014,0.01848085950315,0.002));
#1852=CARTESIAN_POINT('',(0.00813041293248534,0.01848085950315,0.002));
#1853=CARTESIAN_POINT('',(0.00813041293248534,0.01898085950315,0.002));
#1854=CARTESIAN_POINT('',(0.00763041293248534,0.01898085950315,0.002));
#1855=CARTESIAN_POINT('',(0.00763041293248534,0.014,0.002));
#1856=CARTESIAN_POINT('',(0.00763041293248534,0.02248085950315,0.002));
#1857=CARTESIAN_POINT('',(0.00813041293248534,0.02248085950315,0.002));
#1858=CARTESIAN_POINT('',(0.014,0.014,0.));
#1859=CARTESIAN_POINT('',(0.00867074076086283,0.0066678865738213,0.));
#1860=CARTESIAN_POINT('',(0.00867074076086283,0.0049178865738213,0.));
#1861=CARTESIAN_POINT('',(0.00867074076086283,0.0084178865738213,0.));
#1862=CARTESIAN_POINT('',(0.00917074076086283,0.0049178865738213,0.));
#1863=CARTESIAN_POINT('',(0.00917074076086283,0.0044178865738213,0.));
#1864=CARTESIAN_POINT('',(0.0141561045311391,0.0044178865738213,0.));
#1865=CARTESIAN_POINT('',(0.0191414683014154,0.0044178865738213,0.));
#1866=CARTESIAN_POINT('',(0.0191414683014154,0.0049178865738213,0.));
#1867=CARTESIAN_POINT('',(0.0196414683014155,0.0049178865738213,0.));
#1868=CARTESIAN_POINT('',(0.0196414683014155,0.0066678865738213,0.));
#1869=CARTESIAN_POINT('',(0.0196414683014155,0.0084178865738213,0.));
#1870=CARTESIAN_POINT('',(0.0191414683014154,0.0084178865738213,0.));
#1871=CARTESIAN_POINT('',(0.0191414683014154,0.0089178865738213,0.));
#1872=CARTESIAN_POINT('',(0.0141561045311391,0.0089178865738213,0.));
#1873=CARTESIAN_POINT('',(0.00917074076086283,0.0089178865738213,0.));
#1874=CARTESIAN_POINT('',(0.00917074076086283,0.0084178865738213,0.));
#1875=CARTESIAN_POINT('',(0.006,0.022,0.));
#1876=CARTESIAN_POINT('',(0.0075,0.022,0.));
#1877=CARTESIAN_POINT('',(0.022,0.022,0.));
#1878=CARTESIAN_POINT('',(0.0235,0.022,0.));
#1879=CARTESIAN_POINT('',(0.022,0.006,0.));
#1880=CARTESIAN_POINT('',(0.0235,0.006,0.));
#1881=CARTESIAN_POINT('',(0.006,0.006,0.));
#1882=CARTESIAN_POINT('',(0.0075,0.006,0.));
#1883=CARTESIAN_POINT('',(0.014,0.028,0.));
#1884=CARTESIAN_POINT('',(0.0175,0.028,0.));
#1885=CARTESIAN_POINT('',(0.027,0.028,0.));
#1886=CARTESIAN_POINT('',(0.027,0.027,0.));
#1887=CARTESIAN_POINT('',(0.028,0.027,0.));
#1888=CARTESIAN_POINT('',(0.028,0.014,0.));
#1889=CARTESIAN_POINT('',(0.028,0.0175,0.));
#1890=CARTESIAN_POINT('',(0.029,0.0175,0.));
#1891=CARTESIAN_POINT('',(0.029,0.0165,0.));
#1892=CARTESIAN_POINT('',(0.0305,0.0165,0.));
#1893=CARTESIAN_POINT('',(0.032,0.0165,0.));
#1894=CARTESIAN_POINT('',(0.032,0.0155,0.));
#1895=CARTESIAN_POINT('',(0.033,0.0155,0.));
#1896=CARTESIAN_POINT('',(0.033,0.014,0.));
#1897=CARTESIAN_POINT('',(0.033,0.0125,0.));
#1898=CARTESIAN_POINT('',(0.032,0.0125,0.));
#1899=CARTESIAN_POINT('',(0.032,0.0115,0.));
#1900=CARTESIAN_POINT('',(0.0305,0.0115,0.));
#1901=CARTESIAN_POINT('',(0.028,0.0115,0.));
#1902=CARTESIAN_POINT('',(0.028,0.014,0.));
#1903=CARTESIAN_POINT('',(0.028,0.001,0.));
#1904=CARTESIAN_POINT('',(0.027,0.001,0.));
#1905=CARTESIAN_POINT('',(0.027,0.,0.));
#1906=CARTESIAN_POINT('',(0.014,0.,0.));
#1907=CARTESIAN_POINT('',(0.001,0.,0.));
#1908=CARTESIAN_POINT('',(0.001,0.001,0.));
#1909=CARTESIAN_POINT('',(0.,0.001,0.));
#1910=CARTESIAN_POINT('',(0.,0.014,0.));
#1911=CARTESIAN_POINT('',(0.,0.0105,0.));
#1912=CARTESIAN_POINT('',(-0.001,0.0105,0.));
#1913=CARTESIAN_POINT('',(-0.001,0.0115,0.));
#1914=CARTESIAN_POINT('',(-0.0025,0.0115,0.));
#1915=CARTESIAN_POINT('',(-0.004,0.0115,0.));
#1916=CARTESIAN_POINT('',(-0.004,0.0125,0.));
#1917=CARTESIAN_POINT('',(-0.005,0.0125,0.));
#1918=CARTESIAN_POINT('',(-0.005,0.014,0.));
#1919=CARTESIAN_POINT('',(-0.005,0.0155,0.));
#1920=CARTESIAN_POINT('',(-0.004,0.0155,0.));
#1921=CARTESIAN_POINT('',(-0.004,0.0165,0.));
#1922=CARTESIAN_POINT('',(-0.0025,0.0165,0.));
#1923=CARTESIAN_POINT('',(-0.001,0.0165,0.));
#1924=CARTESIAN_POINT('',(-0.001,0.0175,0.));
#1925=CARTESIAN_POINT('',(0.,0.0175,0.));
#1926=CARTESIAN_POINT('',(0.,0.014,0.));
#1927=CARTESIAN_POINT('',(0.,0.027,0.));
#1928=CARTESIAN_POINT('',(0.001,0.027,0.));
#1929=CARTESIAN_POINT('',(0.001,0.028,0.));
#1930=CARTESIAN_POINT('',(0.014,0.028,0.));
#1931=CARTESIAN_POINT('',(0.0105,0.028,0.));
#1932=CARTESIAN_POINT('',(0.0105,0.029,0.));
#1933=CARTESIAN_POINT('',(0.0115,0.029,0.));
#1934=CARTESIAN_POINT('',(0.0115,0.0305,0.));
#1935=CARTESIAN_POINT('',(0.0115,0.032,0.));
#1936=CARTESIAN_POINT('',(0.0125,0.032,0.));
#1937=CARTESIAN_POINT('',(0.0125,0.033,0.));
#1938=CARTESIAN_POINT('',(0.014,0.033,0.));
#1939=CARTESIAN_POINT('',(0.0155,0.033,0.));
#1940=CARTESIAN_POINT('',(0.0155,0.032,0.));
#1941=CARTESIAN_POINT('',(0.0165,0.032,0.));
#1942=CARTESIAN_POINT('',(0.0165,0.0305,0.));
#1943=CARTESIAN_POINT('',(0.0165,0.029,0.));
#1944=CARTESIAN_POINT('',(0.0175,0.029,0.));
#1945=CARTESIAN_POINT('',(0.014,0.0305,0.));
#1946=CARTESIAN_POINT('',(0.01555,0.0305,0.));
#1947=CARTESIAN_POINT('',(0.0305,0.014,0.));
#1948=CARTESIAN_POINT('',(0.03205,0.014,0.));
#1949=CARTESIAN_POINT('',(-0.0025,0.014,0.));
#1950=CARTESIAN_POINT('',(-0.00095,0.014,0.));
#1951=CARTESIAN_POINT('',(0.00763041293248534,0.02073085950315,0.));
#1952=CARTESIAN_POINT('',(0.00763041293248534,0.01898085950315,0.));
#1953=CARTESIAN_POINT('',(0.00763041293248534,0.02248085950315,0.));
#1954=CARTESIAN_POINT('',(0.00813041293248534,0.01898085950315,0.));
#1955=CARTESIAN_POINT('',(0.00813041293248534,0.01848085950315,0.));
#1956=CARTESIAN_POINT('',(0.0139433105941862,0.01848085950315,0.));
#1957=CARTESIAN_POINT('',(0.0197562082558871,0.01848085950315,0.));
#1958=CARTESIAN_POINT('',(0.0197562082558871,0.01898085950315,0.));
#1959=CARTESIAN_POINT('',(0.0202562082558871,0.01898085950315,0.));
#1960=CARTESIAN_POINT('',(0.0202562082558871,0.02073085950315,0.));
#1961=CARTESIAN_POINT('',(0.0202562082558871,0.02248085950315,0.));
#1962=CARTESIAN_POINT('',(0.0197562082558871,0.02248085950315,0.));
#1963=CARTESIAN_POINT('',(0.0197562082558871,0.02298085950315,0.));
#1964=CARTESIAN_POINT('',(0.0139433105941862,0.02298085950315,0.));
#1965=CARTESIAN_POINT('',(0.00813041293248534,0.02298085950315,0.));
#1966=CARTESIAN_POINT('',(0.00813041293248534,0.02248085950315,0.));
#1967=CARTESIAN_POINT('',(0.,0.014,0.007));
#1968=CARTESIAN_POINT('',(0.,0.0175,0.007));
#1969=CARTESIAN_POINT('',(0.,0.0175,0.007));
#1970=CARTESIAN_POINT('',(0.,0.014,0.007));
#1971=CARTESIAN_POINT('',(0.,0.027,0.007));
#1972=CARTESIAN_POINT('',(0.,0.027,0.007));
#1973=CARTESIAN_POINT('',(0.028,0.014,0.007));
#1974=CARTESIAN_POINT('',(0.028,0.014,0.007));
#1975=CARTESIAN_POINT('',(0.028,0.0175,0.007));
#1976=CARTESIAN_POINT('',(0.028,0.027,0.007));
#1977=CARTESIAN_POINT('',(0.028,0.0175,0.));
#1978=CARTESIAN_POINT('',(0.028,0.027,0.007));
#1979=CARTESIAN_POINT('',(0.014,0.028,0.007));
#1980=CARTESIAN_POINT('',(0.0175,0.028,0.007));
#1981=CARTESIAN_POINT('',(0.0175,0.028,0.007));
#1982=CARTESIAN_POINT('',(0.014,0.028,0.007));
#1983=CARTESIAN_POINT('',(0.027,0.028,0.007));
#1984=CARTESIAN_POINT('',(0.027,0.028,0.));
#1985=CARTESIAN_POINT('',(0.022,0.006,0.002));
#1986=CARTESIAN_POINT('',(0.022,0.022,0.002));
#1987=CARTESIAN_POINT('',(0.006,0.022,0.002));
#1988=CARTESIAN_POINT('',(0.006,0.006,0.002));
#1989=CARTESIAN_POINT('',(0.0015,0.014,0.007));
#1990=CARTESIAN_POINT('',(0.0015,0.014,0.007));
#1991=CARTESIAN_POINT('',(0.0015,0.0025,0.007));
#1992=CARTESIAN_POINT('',(0.0015,0.0255,0.007));
#1993=CARTESIAN_POINT('',(0.0015,0.0025,0.007));
#1994=CARTESIAN_POINT('',(0.0015,0.0255,0.007));
#1995=CARTESIAN_POINT('',(0.014,0.0015,0.007));
#1996=CARTESIAN_POINT('',(0.014,0.0015,0.007));
#1997=CARTESIAN_POINT('',(0.0025,0.0015,0.007));
#1998=CARTESIAN_POINT('',(0.0255,0.0015,0.007));
#1999=CARTESIAN_POINT('',(0.0255,0.0015,0.002));
#2000=CARTESIAN_POINT('',(0.0025,0.0015,0.007));
#2001=CARTESIAN_POINT('',(0.0265,0.014,0.007));
#2002=CARTESIAN_POINT('',(0.0265,0.0025,0.007));
#2003=CARTESIAN_POINT('',(0.0265,0.0025,0.007));
#2004=CARTESIAN_POINT('',(0.0265,0.014,0.007));
#2005=CARTESIAN_POINT('',(0.0265,0.0255,0.007));
#2006=CARTESIAN_POINT('',(0.0265,0.0255,0.007));
#2007=CARTESIAN_POINT('',(0.014,0.0265,0.007));
#2008=CARTESIAN_POINT('',(0.0255,0.0265,0.007));
#2009=CARTESIAN_POINT('',(0.0255,0.0265,0.007));
#2010=CARTESIAN_POINT('',(0.014,0.0265,0.007));
#2011=CARTESIAN_POINT('',(0.0025,0.0265,0.007));
#2012=CARTESIAN_POINT('',(0.0025,0.0265,0.002));
#2013=CARTESIAN_POINT('',(0.,0.014,0.007));
#2014=CARTESIAN_POINT('',(0.,0.001,0.007));
#2015=CARTESIAN_POINT('',(0.,0.001,0.007));
#2016=CARTESIAN_POINT('',(0.,0.014,0.007));
#2017=CARTESIAN_POINT('',(0.,0.0105,0.007));
#2018=CARTESIAN_POINT('',(0.,0.0105,0.007));
#2019=CARTESIAN_POINT('',(0.014,0.,0.007));
#2020=CARTESIAN_POINT('',(0.027,0.,0.007));
#2021=CARTESIAN_POINT('',(0.027,0.,0.007));
#2022=CARTESIAN_POINT('',(0.014,0.,0.007));
#2023=CARTESIAN_POINT('',(0.001,0.,0.007));
#2024=CARTESIAN_POINT('',(0.001,0.,0.));
#2025=CARTESIAN_POINT('',(0.028,0.014,0.007));
#2026=CARTESIAN_POINT('',(0.028,0.014,0.007));
#2027=CARTESIAN_POINT('',(0.028,0.001,0.007));
#2028=CARTESIAN_POINT('',(0.028,0.0115,0.007));
#2029=CARTESIAN_POINT('',(0.028,0.001,0.007));
#2030=CARTESIAN_POINT('',(0.028,0.0115,0.));
#2031=CARTESIAN_POINT('',(0.014,0.028,0.007));
#2032=CARTESIAN_POINT('',(0.014,0.028,0.007));
#2033=CARTESIAN_POINT('',(0.001,0.028,0.007));
#2034=CARTESIAN_POINT('',(0.0105,0.028,0.007));
#2035=CARTESIAN_POINT('',(0.0105,0.028,0.007));
#2036=CARTESIAN_POINT('',(0.001,0.028,0.007));
#2037=CARTESIAN_POINT('',(0.014,0.014,0.007));
#2038=CARTESIAN_POINT('',(0.027,0.027,0.007));
#2039=CARTESIAN_POINT('',(0.0175,0.029,0.007));
#2040=CARTESIAN_POINT('',(0.0165,0.029,0.007));
#2041=CARTESIAN_POINT('',(0.0165,0.0305,0.007));
#2042=CARTESIAN_POINT('',(0.0165,0.032,0.007));
#2043=CARTESIAN_POINT('',(0.0155,0.032,0.007));
#2044=CARTESIAN_POINT('',(0.0155,0.033,0.007));
#2045=CARTESIAN_POINT('',(0.014,0.033,0.007));
#2046=CARTESIAN_POINT('',(0.0125,0.033,0.007));
#2047=CARTESIAN_POINT('',(0.0125,0.032,0.007));
#2048=CARTESIAN_POINT('',(0.0115,0.032,0.007));
#2049=CARTESIAN_POINT('',(0.0115,0.0305,0.007));
#2050=CARTESIAN_POINT('',(0.0115,0.029,0.007));
#2051=CARTESIAN_POINT('',(0.0105,0.029,0.007));
#2052=CARTESIAN_POINT('',(0.001,0.027,0.007));
#2053=CARTESIAN_POINT('',(-0.001,0.0175,0.007));
#2054=CARTESIAN_POINT('',(-0.001,0.0165,0.007));
#2055=CARTESIAN_POINT('',(-0.0025,0.0165,0.007));
#2056=CARTESIAN_POINT('',(-0.004,0.0165,0.007));
#2057=CARTESIAN_POINT('',(-0.004,0.0155,0.007));
#2058=CARTESIAN_POINT('',(-0.005,0.0155,0.007));
#2059=CARTESIAN_POINT('',(-0.005,0.014,0.007));
#2060=CARTESIAN_POINT('',(-0.005,0.0125,0.007));
#2061=CARTESIAN_POINT('',(-0.004,0.0125,0.007));
#2062=CARTESIAN_POINT('',(-0.004,0.0115,0.007));
#2063=CARTESIAN_POINT('',(-0.0025,0.0115,0.007));
#2064=CARTESIAN_POINT('',(-0.001,0.0115,0.007));
#2065=CARTESIAN_POINT('',(-0.001,0.0105,0.007));
#2066=CARTESIAN_POINT('',(0.001,0.001,0.007));
#2067=CARTESIAN_POINT('',(0.027,0.001,0.007));
#2068=CARTESIAN_POINT('',(0.0305,0.0115,0.007));
#2069=CARTESIAN_POINT('',(0.032,0.0115,0.007));
#2070=CARTESIAN_POINT('',(0.032,0.0125,0.007));
#2071=CARTESIAN_POINT('',(0.033,0.0125,0.007));
#2072=CARTESIAN_POINT('',(0.033,0.014,0.007));
#2073=CARTESIAN_POINT('',(0.033,0.0155,0.007));
#2074=CARTESIAN_POINT('',(0.032,0.0155,0.007));
#2075=CARTESIAN_POINT('',(0.032,0.0165,0.007));
#2076=CARTESIAN_POINT('',(0.0305,0.0165,0.007));
#2077=CARTESIAN_POINT('',(0.029,0.0165,0.007));
#2078=CARTESIAN_POINT('',(0.029,0.0175,0.007));
#2079=CARTESIAN_POINT('',(0.0025,0.0025,0.007));
#2080=CARTESIAN_POINT('',(0.0025,0.0255,0.007));
#2081=CARTESIAN_POINT('',(0.0255,0.0255,0.007));
#2082=CARTESIAN_POINT('',(0.0255,0.0025,0.007));
#2083=CARTESIAN_POINT('',(0.014,0.0305,0.007));
#2084=CARTESIAN_POINT('',(0.01555,0.0305,0.007));
#2085=CARTESIAN_POINT('',(0.0305,0.014,0.007));
#2086=CARTESIAN_POINT('',(0.03205,0.014,0.007));
#2087=CARTESIAN_POINT('',(-0.0025,0.014,0.007));
#2088=CARTESIAN_POINT('',(-0.00095,0.014,0.007));
#2089=CARTESIAN_POINT('',(0.0115,0.0305,0.));
#2090=CARTESIAN_POINT('',(0.0115,0.032,0.));
#2091=CARTESIAN_POINT('',(0.0115,0.029,0.));
#2092=CARTESIAN_POINT('',(0.0165,0.0305,0.));
#2093=CARTESIAN_POINT('',(0.0165,0.029,0.));
#2094=CARTESIAN_POINT('',(0.0165,0.032,0.007));
#2095=CARTESIAN_POINT('',(0.014,0.033,0.));
#2096=CARTESIAN_POINT('',(0.0155,0.033,0.));
#2097=CARTESIAN_POINT('',(0.0125,0.033,0.));
#2098=CARTESIAN_POINT('',(0.014,0.0305,0.));
#2099=CARTESIAN_POINT('',(0.0305,0.0165,0.));
#2100=CARTESIAN_POINT('',(0.029,0.0165,0.007));
#2101=CARTESIAN_POINT('',(0.032,0.0165,0.));
#2102=CARTESIAN_POINT('',(0.0305,0.0115,0.));
#2103=CARTESIAN_POINT('',(0.032,0.0115,0.007));
#2104=CARTESIAN_POINT('',(0.033,0.014,0.));
#2105=CARTESIAN_POINT('',(0.033,0.0155,0.));
#2106=CARTESIAN_POINT('',(0.033,0.0125,0.));
#2107=CARTESIAN_POINT('',(0.0305,0.014,0.));
#2108=CARTESIAN_POINT('',(-0.0025,0.0165,0.));
#2109=CARTESIAN_POINT('',(-0.004,0.0165,0.007));
#2110=CARTESIAN_POINT('',(-0.001,0.0165,0.));
#2111=CARTESIAN_POINT('',(-0.005,0.014,0.));
#2112=CARTESIAN_POINT('',(-0.005,0.0125,0.));
#2113=CARTESIAN_POINT('',(-0.005,0.0155,0.));
#2114=CARTESIAN_POINT('',(-0.0025,0.014,0.));
#2115=CARTESIAN_POINT('',(-0.0025,0.0115,0.));
#2116=CARTESIAN_POINT('',(-0.001,0.0115,0.));
#2117=CARTESIAN_POINT('',(-0.004,0.0115,0.));
#2118=CARTESIAN_POINT('',(0.0255,0.0025,0.007));
#2119=CARTESIAN_POINT('',(0.0025,0.0025,0.007));
#2120=CARTESIAN_POINT('',(0.0255,0.0255,0.007));
#2121=CARTESIAN_POINT('',(0.0025,0.0255,0.007));
#2122=CARTESIAN_POINT('',(0.0175,0.029,0.007));
#2123=CARTESIAN_POINT('',(0.029,0.0175,0.));
#2124=CARTESIAN_POINT('',(0.027,0.027,0.007));
#2125=CARTESIAN_POINT('',(0.032,0.0155,0.));
#2126=CARTESIAN_POINT('',(0.032,0.0125,0.));
#2127=CARTESIAN_POINT('',(0.027,0.001,0.007));
#2128=CARTESIAN_POINT('',(0.001,0.001,0.007));
#2129=CARTESIAN_POINT('',(-0.001,0.0105,0.));
#2130=CARTESIAN_POINT('',(-0.004,0.0125,0.));
#2131=CARTESIAN_POINT('',(-0.004,0.0155,0.));
#2132=CARTESIAN_POINT('',(-0.001,0.0175,0.007));
#2133=CARTESIAN_POINT('',(0.0155,0.032,0.));
#2134=CARTESIAN_POINT('',(0.0125,0.032,0.));
#2135=CARTESIAN_POINT('',(0.0105,0.029,0.));
#2136=CARTESIAN_POINT('',(0.001,0.027,0.007));
#2137=CARTESIAN_POINT('',(0.0141561045311391,0.0044178865738213,0.025));
#2138=CARTESIAN_POINT('',(0.00917074076086283,0.0044178865738213,0.025));
#2139=CARTESIAN_POINT('',(0.0191414683014154,0.0044178865738213,0.));
#2140=CARTESIAN_POINT('',(0.00867074076086283,0.0066678865738213,0.025));
#2141=CARTESIAN_POINT('',(0.00867074076086283,0.0049178865738213,0.025));
#2142=CARTESIAN_POINT('',(0.00867074076086283,0.0084178865738213,0.002));
#2143=CARTESIAN_POINT('',(0.0141561045311391,0.0089178865738213,0.025));
#2144=CARTESIAN_POINT('',(0.0191414683014154,0.0089178865738213,0.025));
#2145=CARTESIAN_POINT('',(0.00917074076086283,0.0089178865738213,0.));
#2146=CARTESIAN_POINT('',(0.0196414683014155,0.0066678865738213,0.025));
#2147=CARTESIAN_POINT('',(0.0196414683014155,0.0084178865738213,0.025));
#2148=CARTESIAN_POINT('',(0.0196414683014155,0.0049178865738213,0.002));
#2149=CARTESIAN_POINT('',(0.0139433105941862,0.01848085950315,0.025));
#2150=CARTESIAN_POINT('',(0.00813041293248534,0.01848085950315,0.025));
#2151=CARTESIAN_POINT('',(0.0197562082558871,0.01848085950315,0.));
#2152=CARTESIAN_POINT('',(0.00763041293248534,0.02073085950315,0.025));
#2153=CARTESIAN_POINT('',(0.00763041293248534,0.01898085950315,0.025));
#2154=CARTESIAN_POINT('',(0.00763041293248534,0.02248085950315,0.002));
#2155=CARTESIAN_POINT('',(0.0139433105941862,0.02298085950315,0.025));
#2156=CARTESIAN_POINT('',(0.00813041293248534,0.02298085950315,0.));
#2157=CARTESIAN_POINT('',(0.0197562082558871,0.02298085950315,0.025));
#2158=CARTESIAN_POINT('',(0.0202562082558871,0.02073085950315,0.025));
#2159=CARTESIAN_POINT('',(0.0202562082558871,0.01898085950315,0.002));
#2160=CARTESIAN_POINT('',(0.0202562082558871,0.02248085950315,0.025));
#2161=CARTESIAN_POINT('',(0.00917074076086283,0.0049178865738213,0.025));
#2162=CARTESIAN_POINT('',(0.0191414683014154,0.0084178865738213,0.025));
#2163=CARTESIAN_POINT('',(0.00917074076086283,0.0084178865738213,0.025));
#2164=CARTESIAN_POINT('',(0.0191414683014154,0.0049178865738213,0.025));
#2165=CARTESIAN_POINT('',(0.00813041293248534,0.01898085950315,0.025));
#2166=CARTESIAN_POINT('',(0.0197562082558871,0.01898085950315,0.025));
#2167=CARTESIAN_POINT('',(0.00813041293248534,0.02248085950315,0.025));
#2168=CARTESIAN_POINT('',(0.0197562082558871,0.02248085950315,0.025));
#2169=MECHANICAL_DESIGN_GEOMETRIC_PRESENTATION_REPRESENTATION('',(#1276),
#2170);
#2170=(
GEOMETRIC_REPRESENTATION_CONTEXT(3)
GLOBAL_UNCERTAINTY_ASSIGNED_CONTEXT((#2171))
GLOBAL_UNIT_ASSIGNED_CONTEXT((#2174,#2173,#2172))
REPRESENTATION_CONTEXT('Part 1','TOP_LEVEL_ASSEMBLY_PART')
);
#2171=UNCERTAINTY_MEASURE_WITH_UNIT(LENGTH_MEASURE(1.E-8),#2174,
'DISTANCE_ACCURACY_VALUE','Maximum Tolerance applied to model');
#2172=(
NAMED_UNIT(*)
SI_UNIT($,.STERADIAN.)
SOLID_ANGLE_UNIT()
);
#2173=(
NAMED_UNIT(*)
PLANE_ANGLE_UNIT()
SI_UNIT($,.RADIAN.)
);
#2174=(
LENGTH_UNIT()
NAMED_UNIT(*)
SI_UNIT($,.METRE.)
);
#2175=PRODUCT_DEFINITION_SHAPE('','',#2176);
#2176=PRODUCT_DEFINITION('','',#2178,#2177);
#2177=PRODUCT_DEFINITION_CONTEXT('',#2184,'design');
#2178=PRODUCT_DEFINITION_FORMATION_WITH_SPECIFIED_SOURCE('','',#2180,
 .NOT_KNOWN.);
#2179=PRODUCT_RELATED_PRODUCT_CATEGORY('','',(#2180));
#2180=PRODUCT('Part 1','Part 1','Part 1',(#2182));
#2181=PRODUCT_CATEGORY('','');
#2182=PRODUCT_CONTEXT('',#2184,'mechanical');
#2183=APPLICATION_PROTOCOL_DEFINITION('international standard',
'ap242_managed_model_based_3d_engineering',2020,#2184);
#2184=APPLICATION_CONTEXT('managed model based 3d engineering');
ENDSEC;
END-ISO-10303-21;
