ISO-10303-21;
HEADER;
/* Generated by software containing ST-Developer
 * from STEP Tools, Inc. (www.steptools.com) 
 */
/* OPTION: using custom renumber hook */

FILE_DESCRIPTION(
/* description */ ('STEP AP242 Edition 2',
'CAx-IF Rec.Pracs.---Representation and Presentation of Product Manufa
cturing Information (PMI)---4.0---2014-10-13',
'CAx-IF Rec.Pracs.---3D Tessellated Geometry---0.4---2014-09-14','2;1',
'CAx-IF Rec.Pracs.---User Defined Attributes---1.5---2016-08-15'),
/* implementation_level */ '2;1');

FILE_NAME(
/* name */ 'pin',
/* time_stamp */ '2026-06-11T15:31:16Z',
/* author */ (''),
/* organization */ (''),
/* preprocessor_version */ 'ST-DEVELOPER v20',
/* originating_system */ 'ONSHAPE BY PTC INC, 1.216',
/* authorisation */ '  ');

FILE_SCHEMA (('AP242_MANAGED_MODEL_BASED_3D_ENGINEERING_MIM_LF { 1 0 10303 442 3 1 4 }'));
ENDSEC;

DATA;
#10=SHAPE_REPRESENTATION_RELATIONSHIP('','',#102,#11);
#11=ADVANCED_BREP_SHAPE_REPRESENTATION('',(#100),#175);
#12=TOROIDAL_SURFACE('',#118,0.002,0.001);
#13=PLANE('',#107);
#14=PLANE('',#108);
#15=PLANE('',#116);
#16=PLANE('',#117);
#17=ORIENTED_EDGE('',*,*,#31,.T.);
#18=ORIENTED_EDGE('',*,*,#32,.F.);
#19=ORIENTED_EDGE('',*,*,#32,.T.);
#20=ORIENTED_EDGE('',*,*,#33,.T.);
#21=ORIENTED_EDGE('',*,*,#34,.F.);
#22=ORIENTED_EDGE('',*,*,#35,.T.);
#23=ORIENTED_EDGE('',*,*,#36,.T.);
#24=ORIENTED_EDGE('',*,*,#37,.F.);
#25=ORIENTED_EDGE('',*,*,#34,.T.);
#26=ORIENTED_EDGE('',*,*,#36,.F.);
#27=ORIENTED_EDGE('',*,*,#37,.T.);
#28=ORIENTED_EDGE('',*,*,#35,.F.);
#29=ORIENTED_EDGE('',*,*,#33,.F.);
#30=ORIENTED_EDGE('',*,*,#31,.F.);
#31=EDGE_CURVE('',#38,#38,#45,.F.);
#32=EDGE_CURVE('',#39,#39,#46,.T.);
#33=EDGE_CURVE('',#40,#40,#47,.T.);
#34=EDGE_CURVE('',#41,#41,#48,.T.);
#35=EDGE_CURVE('',#42,#42,#49,.F.);
#36=EDGE_CURVE('',#43,#43,#50,.T.);
#37=EDGE_CURVE('',#44,#44,#51,.T.);
#38=VERTEX_POINT('',#154);
#39=VERTEX_POINT('',#156);
#40=VERTEX_POINT('',#160);
#41=VERTEX_POINT('',#162);
#42=VERTEX_POINT('',#165);
#43=VERTEX_POINT('',#167);
#44=VERTEX_POINT('',#170);
#45=CIRCLE('',#105,0.001);
#46=CIRCLE('',#106,0.001);
#47=CIRCLE('',#109,0.002);
#48=CIRCLE('',#110,0.00355);
#49=CIRCLE('',#112,0.00255);
#50=CIRCLE('',#113,0.00255);
#51=CIRCLE('',#115,0.00355);
#52=EDGE_LOOP('',(#17));
#53=EDGE_LOOP('',(#18));
#54=EDGE_LOOP('',(#19));
#55=EDGE_LOOP('',(#20));
#56=EDGE_LOOP('',(#21));
#57=EDGE_LOOP('',(#22));
#58=EDGE_LOOP('',(#23));
#59=EDGE_LOOP('',(#24));
#60=EDGE_LOOP('',(#25));
#61=EDGE_LOOP('',(#26));
#62=EDGE_LOOP('',(#27));
#63=EDGE_LOOP('',(#28));
#64=EDGE_LOOP('',(#29));
#65=EDGE_LOOP('',(#30));
#66=FACE_BOUND('',#52,.T.);
#67=FACE_BOUND('',#53,.T.);
#68=FACE_BOUND('',#54,.T.);
#69=FACE_BOUND('',#55,.T.);
#70=FACE_BOUND('',#56,.T.);
#71=FACE_BOUND('',#57,.T.);
#72=FACE_BOUND('',#58,.T.);
#73=FACE_BOUND('',#59,.T.);
#74=FACE_BOUND('',#60,.T.);
#75=FACE_BOUND('',#61,.T.);
#76=FACE_BOUND('',#62,.T.);
#77=FACE_BOUND('',#63,.T.);
#78=FACE_BOUND('',#64,.T.);
#79=FACE_BOUND('',#65,.T.);
#80=CYLINDRICAL_SURFACE('',#104,0.001);
#81=CYLINDRICAL_SURFACE('',#111,0.00255);
#82=CYLINDRICAL_SURFACE('',#114,0.00355);
#83=ADVANCED_FACE('',(#66,#67),#80,.T.);
#84=ADVANCED_FACE('',(#68),#13,.T.);
#85=ADVANCED_FACE('',(#69,#70),#14,.F.);
#86=ADVANCED_FACE('',(#71,#72),#81,.F.);
#87=ADVANCED_FACE('',(#73,#74),#82,.T.);
#88=ADVANCED_FACE('',(#75,#76),#15,.T.);
#89=ADVANCED_FACE('',(#77),#16,.T.);
#90=ADVANCED_FACE('',(#78,#79),#12,.F.);
#91=CLOSED_SHELL('',(#83,#84,#85,#86,#87,#88,#89,#90));
#92=STYLED_ITEM('',(#93),#100);
#93=PRESENTATION_STYLE_ASSIGNMENT((#94));
#94=SURFACE_STYLE_USAGE(.BOTH.,#95);
#95=SURFACE_SIDE_STYLE('',(#96));
#96=SURFACE_STYLE_FILL_AREA(#97);
#97=FILL_AREA_STYLE('',(#98));
#98=FILL_AREA_STYLE_COLOUR('',#99);
#99=COLOUR_RGB('',0.615686274509804,0.811764705882353,0.929411764705882);
#100=MANIFOLD_SOLID_BREP('Part 1',#91);
#101=SHAPE_DEFINITION_REPRESENTATION(#180,#102);
#102=SHAPE_REPRESENTATION('Part 1',(#103),#175);
#103=AXIS2_PLACEMENT_3D('',#151,#119,#120);
#104=AXIS2_PLACEMENT_3D('',#152,#121,#122);
#105=AXIS2_PLACEMENT_3D('',#153,#123,#124);
#106=AXIS2_PLACEMENT_3D('',#155,#125,#126);
#107=AXIS2_PLACEMENT_3D('',#157,#127,#128);
#108=AXIS2_PLACEMENT_3D('',#158,#129,#130);
#109=AXIS2_PLACEMENT_3D('',#159,#131,#132);
#110=AXIS2_PLACEMENT_3D('',#161,#133,#134);
#111=AXIS2_PLACEMENT_3D('',#163,#135,#136);
#112=AXIS2_PLACEMENT_3D('',#164,#137,#138);
#113=AXIS2_PLACEMENT_3D('',#166,#139,#140);
#114=AXIS2_PLACEMENT_3D('',#168,#141,#142);
#115=AXIS2_PLACEMENT_3D('',#169,#143,#144);
#116=AXIS2_PLACEMENT_3D('',#171,#145,#146);
#117=AXIS2_PLACEMENT_3D('',#172,#147,#148);
#118=AXIS2_PLACEMENT_3D('',#173,#149,#150);
#119=DIRECTION('',(0.,0.,1.));
#120=DIRECTION('',(1.,0.,0.));
#121=DIRECTION('',(0.,0.,-1.));
#122=DIRECTION('',(-1.,0.,0.));
#123=DIRECTION('',(0.,0.,-1.));
#124=DIRECTION('',(-1.,0.,0.));
#125=DIRECTION('',(0.,0.,1.));
#126=DIRECTION('',(1.,0.,0.));
#127=DIRECTION('',(0.,0.,1.));
#128=DIRECTION('',(1.,0.,0.));
#129=DIRECTION('',(0.,0.,-1.));
#130=DIRECTION('',(1.,0.,0.));
#131=DIRECTION('',(0.,0.,-1.));
#132=DIRECTION('',(-1.,0.,0.));
#133=DIRECTION('',(0.,0.,-1.));
#134=DIRECTION('',(-1.,0.,0.));
#135=DIRECTION('',(0.,0.,1.));
#136=DIRECTION('',(1.,0.,0.));
#137=DIRECTION('',(0.,0.,-1.));
#138=DIRECTION('',(-1.,0.,0.));
#139=DIRECTION('',(0.,0.,-1.));
#140=DIRECTION('',(-1.,0.,0.));
#141=DIRECTION('',(0.,0.,1.));
#142=DIRECTION('',(1.,0.,0.));
#143=DIRECTION('',(0.,0.,-1.));
#144=DIRECTION('',(-1.,0.,0.));
#145=DIRECTION('',(0.,0.,-1.));
#146=DIRECTION('',(1.,0.,0.));
#147=DIRECTION('',(0.,0.,-1.));
#148=DIRECTION('',(1.,0.,0.));
#149=DIRECTION('',(0.,0.,-1.));
#150=DIRECTION('',(-1.,0.,0.));
#151=CARTESIAN_POINT('',(0.,0.,0.));
#152=CARTESIAN_POINT('',(0.,6.12323399573677E-20,0.011));
#153=CARTESIAN_POINT('',(0.,6.12323399573677E-20,0.001));
#154=CARTESIAN_POINT('',(-0.001,6.12323399573677E-20,0.001));
#155=CARTESIAN_POINT('',(0.,6.12323399573677E-20,0.011));
#156=CARTESIAN_POINT('',(0.001,6.12323399573677E-20,0.011));
#157=CARTESIAN_POINT('',(0.,0.,0.011));
#158=CARTESIAN_POINT('',(0.,0.,0.));
#159=CARTESIAN_POINT('',(0.,6.12323399573677E-20,0.));
#160=CARTESIAN_POINT('',(-0.002,6.12323399573677E-20,0.));
#161=CARTESIAN_POINT('',(0.,-2.17374806848655E-19,0.));
#162=CARTESIAN_POINT('',(-0.00355,-2.17374806848655E-19,0.));
#163=CARTESIAN_POINT('',(0.,-1.56142466891287E-19,-0.003));
#164=CARTESIAN_POINT('',(0.,-1.56142466891287E-19,-0.001));
#165=CARTESIAN_POINT('',(-0.00255,-1.56142466891287E-19,-0.001));
#166=CARTESIAN_POINT('',(0.,-1.56142466891287E-19,-0.003));
#167=CARTESIAN_POINT('',(-0.00255,-1.56142466891287E-19,-0.003));
#168=CARTESIAN_POINT('',(0.,-2.17374806848655E-19,-0.003));
#169=CARTESIAN_POINT('',(0.,-2.17374806848655E-19,-0.003));
#170=CARTESIAN_POINT('',(-0.00355,-2.17374806848655E-19,-0.003));
#171=CARTESIAN_POINT('',(0.,0.,-0.003));
#172=CARTESIAN_POINT('',(0.,0.,-0.001));
#173=CARTESIAN_POINT('',(0.,6.12323399573677E-20,0.001));
#174=MECHANICAL_DESIGN_GEOMETRIC_PRESENTATION_REPRESENTATION('',(#92),#175);
#175=(
GEOMETRIC_REPRESENTATION_CONTEXT(3)
GLOBAL_UNCERTAINTY_ASSIGNED_CONTEXT((#176))
GLOBAL_UNIT_ASSIGNED_CONTEXT((#179,#178,#177))
REPRESENTATION_CONTEXT('Part 1','TOP_LEVEL_ASSEMBLY_PART')
);
#176=UNCERTAINTY_MEASURE_WITH_UNIT(LENGTH_MEASURE(1.E-8),#179,
'DISTANCE_ACCURACY_VALUE','Maximum Tolerance applied to model');
#177=(
NAMED_UNIT(*)
SI_UNIT($,.STERADIAN.)
SOLID_ANGLE_UNIT()
);
#178=(
NAMED_UNIT(*)
PLANE_ANGLE_UNIT()
SI_UNIT($,.RADIAN.)
);
#179=(
LENGTH_UNIT()
NAMED_UNIT(*)
SI_UNIT($,.METRE.)
);
#180=PRODUCT_DEFINITION_SHAPE('','',#181);
#181=PRODUCT_DEFINITION('','',#183,#182);
#182=PRODUCT_DEFINITION_CONTEXT('',#189,'design');
#183=PRODUCT_DEFINITION_FORMATION_WITH_SPECIFIED_SOURCE('','',#185,
 .NOT_KNOWN.);
#184=PRODUCT_RELATED_PRODUCT_CATEGORY('','',(#185));
#185=PRODUCT('Part 1','Part 1','Part 1',(#187));
#186=PRODUCT_CATEGORY('','');
#187=PRODUCT_CONTEXT('',#189,'mechanical');
#188=APPLICATION_PROTOCOL_DEFINITION('international standard',
'ap242_managed_model_based_3d_engineering',2020,#189);
#189=APPLICATION_CONTEXT('managed model based 3d engineering');
ENDSEC;
END-ISO-10303-21;
