ISO-10303-21;
HEADER;
/* Generated by software containing ST-Developer
 * from STEP Tools, Inc. (www.steptools.com) 
 */
/* OPTION: using custom renumber hook */

FILE_DESCRIPTION(
/* description */ ('STEP AP242 Edition 2',
'CAx-IF Rec.Pracs.---Representation and Presentation of Product Manufa
cturing Information (PMI)---4.0---2014-10-13',
'CAx-IF Rec.Pracs.---3D Tessellated Geometry---0.4---2014-09-14','2;1',
'CAx-IF Rec.Pracs.---User Defined Attributes---1.5---2016-08-15'),
/* implementation_level */ '2;1');

FILE_NAME(
/* name */ 'top_part',
/* time_stamp */ '2026-06-11T15:31:25Z',
/* author */ (''),
/* organization */ (''),
/* preprocessor_version */ 'ST-DEVELOPER v20',
/* originating_system */ 'ONSHAPE BY PTC INC, 1.216',
/* authorisation */ '  ');

FILE_SCHEMA (('AP242_MANAGED_MODEL_BASED_3D_ENGINEERING_MIM_LF { 1 0 10303 442 3 1 4 }'));
ENDSEC;

DATA;
#10=SHAPE_REPRESENTATION_RELATIONSHIP('','',#929,#11);
#11=ADVANCED_BREP_SHAPE_REPRESENTATION('',(#927),#1571);
#12=CONICAL_SURFACE('',#1029,0.0027,0.785398163397449);
#13=TOROIDAL_SURFACE('',#1012,0.005,0.001);
#14=LINE('',#1313,#90);
#15=LINE('',#1316,#91);
#16=LINE('',#1318,#92);
#17=LINE('',#1320,#93);
#18=LINE('',#1322,#94);
#19=LINE('',#1324,#95);
#20=LINE('',#1326,#96);
#21=LINE('',#1328,#97);
#22=LINE('',#1330,#98);
#23=LINE('',#1333,#99);
#24=LINE('',#1335,#100);
#25=LINE('',#1337,#101);
#26=LINE('',#1339,#102);
#27=LINE('',#1341,#103);
#28=LINE('',#1343,#104);
#29=LINE('',#1345,#105);
#30=LINE('',#1351,#106);
#31=LINE('',#1355,#107);
#32=LINE('',#1360,#108);
#33=LINE('',#1363,#109);
#34=LINE('',#1365,#110);
#35=LINE('',#1367,#111);
#36=LINE('',#1369,#112);
#37=LINE('',#1371,#113);
#38=LINE('',#1373,#114);
#39=LINE('',#1375,#115);
#40=LINE('',#1377,#116);
#41=LINE('',#1379,#117);
#42=LINE('',#1381,#118);
#43=LINE('',#1382,#119);
#44=LINE('',#1384,#120);
#45=LINE('',#1387,#121);
#46=LINE('',#1389,#122);
#47=LINE('',#1391,#123);
#48=LINE('',#1392,#124);
#49=LINE('',#1394,#125);
#50=LINE('',#1396,#126);
#51=LINE('',#1398,#127);
#52=LINE('',#1401,#128);
#53=LINE('',#1402,#129);
#54=LINE('',#1404,#130);
#55=LINE('',#1409,#131);
#56=LINE('',#1413,#132);
#57=LINE('',#1419,#133);
#58=LINE('',#1423,#134);
#59=LINE('',#1427,#135);
#60=LINE('',#1434,#136);
#61=LINE('',#1438,#137);
#62=LINE('',#1442,#138);
#63=LINE('',#1457,#139);
#64=LINE('',#1459,#140);
#65=LINE('',#1461,#141);
#66=LINE('',#1463,#142);
#67=LINE('',#1465,#143);
#68=LINE('',#1467,#144);
#69=LINE('',#1469,#145);
#70=LINE('',#1471,#146);
#71=LINE('',#1473,#147);
#72=LINE('',#1483,#148);
#73=LINE('',#1486,#149);
#74=LINE('',#1487,#150);
#75=LINE('',#1489,#151);
#76=LINE('',#1491,#152);
#77=LINE('',#1493,#153);
#78=LINE('',#1498,#154);
#79=LINE('',#1500,#155);
#80=LINE('',#1502,#156);
#81=LINE('',#1509,#157);
#82=LINE('',#1511,#158);
#83=LINE('',#1513,#159);
#84=LINE('',#1515,#160);
#85=LINE('',#1517,#161);
#86=LINE('',#1519,#162);
#87=LINE('',#1524,#163);
#88=LINE('',#1526,#164);
#89=LINE('',#1528,#165);
#90=VECTOR('',#1040,1.);
#91=VECTOR('',#1041,1.);
#92=VECTOR('',#1042,1.);
#93=VECTOR('',#1043,1.);
#94=VECTOR('',#1044,1.);
#95=VECTOR('',#1045,1.);
#96=VECTOR('',#1046,1.);
#97=VECTOR('',#1047,1.);
#98=VECTOR('',#1050,1.);
#99=VECTOR('',#1051,1.);
#100=VECTOR('',#1052,1.);
#101=VECTOR('',#1053,1.);
#102=VECTOR('',#1054,1.);
#103=VECTOR('',#1055,1.);
#104=VECTOR('',#1056,1.);
#105=VECTOR('',#1057,1.);
#106=VECTOR('',#1064,1.);
#107=VECTOR('',#1067,1.);
#108=VECTOR('',#1074,1.);
#109=VECTOR('',#1075,1.);
#110=VECTOR('',#1076,1.);
#111=VECTOR('',#1077,1.);
#112=VECTOR('',#1080,1.);
#113=VECTOR('',#1081,1.);
#114=VECTOR('',#1082,1.);
#115=VECTOR('',#1085,1.);
#116=VECTOR('',#1086,1.);
#117=VECTOR('',#1087,1.);
#118=VECTOR('',#1090,1.);
#119=VECTOR('',#1091,1.);
#120=VECTOR('',#1094,1.);
#121=VECTOR('',#1095,1.);
#122=VECTOR('',#1096,1.);
#123=VECTOR('',#1097,1.);
#124=VECTOR('',#1098,1.);
#125=VECTOR('',#1099,1.);
#126=VECTOR('',#1100,1.);
#127=VECTOR('',#1103,1.);
#128=VECTOR('',#1104,1.);
#129=VECTOR('',#1105,1.);
#130=VECTOR('',#1108,1.);
#131=VECTOR('',#1111,1.);
#132=VECTOR('',#1114,1.);
#133=VECTOR('',#1121,1.);
#134=VECTOR('',#1124,1.);
#135=VECTOR('',#1127,1.);
#136=VECTOR('',#1136,1.);
#137=VECTOR('',#1139,1.);
#138=VECTOR('',#1142,1.);
#139=VECTOR('',#1161,1.);
#140=VECTOR('',#1162,1.);
#141=VECTOR('',#1163,1.);
#142=VECTOR('',#1166,1.);
#143=VECTOR('',#1167,1.);
#144=VECTOR('',#1168,1.);
#145=VECTOR('',#1171,1.);
#146=VECTOR('',#1172,1.);
#147=VECTOR('',#1173,1.);
#148=VECTOR('',#1190,1.);
#149=VECTOR('',#1191,1.);
#150=VECTOR('',#1192,1.);
#151=VECTOR('',#1195,1.);
#152=VECTOR('',#1196,1.);
#153=VECTOR('',#1197,1.);
#154=VECTOR('',#1204,1.);
#155=VECTOR('',#1205,1.);
#156=VECTOR('',#1206,1.);
#157=VECTOR('',#1219,1.);
#158=VECTOR('',#1220,1.);
#159=VECTOR('',#1221,1.);
#160=VECTOR('',#1224,1.);
#161=VECTOR('',#1225,1.);
#162=VECTOR('',#1226,1.);
#163=VECTOR('',#1233,1.);
#164=VECTOR('',#1234,1.);
#165=VECTOR('',#1235,1.);
#166=PLANE('',#934);
#167=PLANE('',#935);
#168=PLANE('',#936);
#169=PLANE('',#942);
#170=PLANE('',#943);
#171=PLANE('',#944);
#172=PLANE('',#945);
#173=PLANE('',#946);
#174=PLANE('',#947);
#175=PLANE('',#948);
#176=PLANE('',#968);
#177=PLANE('',#970);
#178=PLANE('',#971);
#179=PLANE('',#972);
#180=PLANE('',#975);
#181=PLANE('',#980);
#182=PLANE('',#981);
#183=PLANE('',#984);
#184=PLANE('',#985);
#185=PLANE('',#990);
#186=PLANE('',#991);
#187=PLANE('',#994);
#188=PLANE('',#995);
#189=PLANE('',#1003);
#190=PLANE('',#1007);
#191=PLANE('',#1011);
#192=ORIENTED_EDGE('',*,*,#440,.T.);
#193=ORIENTED_EDGE('',*,*,#441,.T.);
#194=ORIENTED_EDGE('',*,*,#442,.F.);
#195=ORIENTED_EDGE('',*,*,#443,.T.);
#196=ORIENTED_EDGE('',*,*,#444,.F.);
#197=ORIENTED_EDGE('',*,*,#445,.T.);
#198=ORIENTED_EDGE('',*,*,#446,.T.);
#199=ORIENTED_EDGE('',*,*,#447,.T.);
#200=ORIENTED_EDGE('',*,*,#448,.F.);
#201=ORIENTED_EDGE('',*,*,#449,.T.);
#202=ORIENTED_EDGE('',*,*,#450,.F.);
#203=ORIENTED_EDGE('',*,*,#451,.T.);
#204=ORIENTED_EDGE('',*,*,#452,.F.);
#205=ORIENTED_EDGE('',*,*,#453,.T.);
#206=ORIENTED_EDGE('',*,*,#454,.T.);
#207=ORIENTED_EDGE('',*,*,#455,.T.);
#208=ORIENTED_EDGE('',*,*,#456,.F.);
#209=ORIENTED_EDGE('',*,*,#457,.T.);
#210=ORIENTED_EDGE('',*,*,#458,.T.);
#211=ORIENTED_EDGE('',*,*,#446,.F.);
#212=ORIENTED_EDGE('',*,*,#459,.T.);
#213=ORIENTED_EDGE('',*,*,#460,.T.);
#214=ORIENTED_EDGE('',*,*,#461,.T.);
#215=ORIENTED_EDGE('',*,*,#462,.T.);
#216=ORIENTED_EDGE('',*,*,#463,.T.);
#217=ORIENTED_EDGE('',*,*,#454,.F.);
#218=ORIENTED_EDGE('',*,*,#464,.T.);
#219=ORIENTED_EDGE('',*,*,#465,.T.);
#220=ORIENTED_EDGE('',*,*,#466,.T.);
#221=ORIENTED_EDGE('',*,*,#467,.F.);
#222=ORIENTED_EDGE('',*,*,#468,.F.);
#223=ORIENTED_EDGE('',*,*,#469,.F.);
#224=ORIENTED_EDGE('',*,*,#465,.F.);
#225=ORIENTED_EDGE('',*,*,#470,.T.);
#226=ORIENTED_EDGE('',*,*,#471,.T.);
#227=ORIENTED_EDGE('',*,*,#472,.F.);
#228=ORIENTED_EDGE('',*,*,#471,.F.);
#229=ORIENTED_EDGE('',*,*,#473,.T.);
#230=ORIENTED_EDGE('',*,*,#474,.T.);
#231=ORIENTED_EDGE('',*,*,#467,.T.);
#232=ORIENTED_EDGE('',*,*,#475,.T.);
#233=ORIENTED_EDGE('',*,*,#474,.F.);
#234=ORIENTED_EDGE('',*,*,#476,.F.);
#235=ORIENTED_EDGE('',*,*,#477,.T.);
#236=ORIENTED_EDGE('',*,*,#478,.T.);
#237=ORIENTED_EDGE('',*,*,#479,.T.);
#238=ORIENTED_EDGE('',*,*,#480,.T.);
#239=ORIENTED_EDGE('',*,*,#460,.F.);
#240=ORIENTED_EDGE('',*,*,#481,.T.);
#241=ORIENTED_EDGE('',*,*,#482,.T.);
#242=ORIENTED_EDGE('',*,*,#483,.T.);
#243=ORIENTED_EDGE('',*,*,#484,.T.);
#244=ORIENTED_EDGE('',*,*,#485,.T.);
#245=ORIENTED_EDGE('',*,*,#462,.F.);
#246=ORIENTED_EDGE('',*,*,#486,.T.);
#247=ORIENTED_EDGE('',*,*,#487,.T.);
#248=ORIENTED_EDGE('',*,*,#488,.T.);
#249=ORIENTED_EDGE('',*,*,#489,.T.);
#250=ORIENTED_EDGE('',*,*,#490,.T.);
#251=ORIENTED_EDGE('',*,*,#491,.F.);
#252=ORIENTED_EDGE('',*,*,#492,.T.);
#253=ORIENTED_EDGE('',*,*,#448,.T.);
#254=ORIENTED_EDGE('',*,*,#493,.T.);
#255=ORIENTED_EDGE('',*,*,#452,.T.);
#256=ORIENTED_EDGE('',*,*,#494,.T.);
#257=ORIENTED_EDGE('',*,*,#495,.T.);
#258=ORIENTED_EDGE('',*,*,#496,.T.);
#259=ORIENTED_EDGE('',*,*,#497,.F.);
#260=ORIENTED_EDGE('',*,*,#498,.T.);
#261=ORIENTED_EDGE('',*,*,#499,.F.);
#262=ORIENTED_EDGE('',*,*,#500,.T.);
#263=ORIENTED_EDGE('',*,*,#456,.T.);
#264=ORIENTED_EDGE('',*,*,#501,.T.);
#265=ORIENTED_EDGE('',*,*,#484,.F.);
#266=ORIENTED_EDGE('',*,*,#502,.T.);
#267=ORIENTED_EDGE('',*,*,#479,.F.);
#268=ORIENTED_EDGE('',*,*,#503,.T.);
#269=ORIENTED_EDGE('',*,*,#504,.T.);
#270=ORIENTED_EDGE('',*,*,#505,.T.);
#271=ORIENTED_EDGE('',*,*,#506,.F.);
#272=ORIENTED_EDGE('',*,*,#507,.T.);
#273=ORIENTED_EDGE('',*,*,#508,.F.);
#274=ORIENTED_EDGE('',*,*,#509,.T.);
#275=ORIENTED_EDGE('',*,*,#482,.F.);
#276=ORIENTED_EDGE('',*,*,#510,.T.);
#277=ORIENTED_EDGE('',*,*,#444,.T.);
#278=ORIENTED_EDGE('',*,*,#511,.T.);
#279=ORIENTED_EDGE('',*,*,#470,.F.);
#280=ORIENTED_EDGE('',*,*,#468,.T.);
#281=ORIENTED_EDGE('',*,*,#476,.T.);
#282=ORIENTED_EDGE('',*,*,#473,.F.);
#283=ORIENTED_EDGE('',*,*,#512,.F.);
#284=ORIENTED_EDGE('',*,*,#513,.T.);
#285=ORIENTED_EDGE('',*,*,#514,.T.);
#286=ORIENTED_EDGE('',*,*,#515,.T.);
#287=ORIENTED_EDGE('',*,*,#466,.F.);
#288=ORIENTED_EDGE('',*,*,#469,.T.);
#289=ORIENTED_EDGE('',*,*,#472,.T.);
#290=ORIENTED_EDGE('',*,*,#475,.F.);
#291=ORIENTED_EDGE('',*,*,#499,.T.);
#292=ORIENTED_EDGE('',*,*,#516,.T.);
#293=ORIENTED_EDGE('',*,*,#517,.F.);
#294=ORIENTED_EDGE('',*,*,#518,.T.);
#295=ORIENTED_EDGE('',*,*,#495,.F.);
#296=ORIENTED_EDGE('',*,*,#519,.T.);
#297=ORIENTED_EDGE('',*,*,#520,.T.);
#298=ORIENTED_EDGE('',*,*,#521,.T.);
#299=ORIENTED_EDGE('',*,*,#497,.T.);
#300=ORIENTED_EDGE('',*,*,#522,.T.);
#301=ORIENTED_EDGE('',*,*,#523,.F.);
#302=ORIENTED_EDGE('',*,*,#524,.T.);
#303=ORIENTED_EDGE('',*,*,#525,.F.);
#304=ORIENTED_EDGE('',*,*,#512,.T.);
#305=ORIENTED_EDGE('',*,*,#523,.T.);
#306=ORIENTED_EDGE('',*,*,#526,.T.);
#307=ORIENTED_EDGE('',*,*,#520,.F.);
#308=ORIENTED_EDGE('',*,*,#527,.T.);
#309=ORIENTED_EDGE('',*,*,#450,.T.);
#310=ORIENTED_EDGE('',*,*,#528,.T.);
#311=ORIENTED_EDGE('',*,*,#517,.T.);
#312=ORIENTED_EDGE('',*,*,#529,.T.);
#313=ORIENTED_EDGE('',*,*,#525,.T.);
#314=ORIENTED_EDGE('',*,*,#530,.T.);
#315=ORIENTED_EDGE('',*,*,#531,.T.);
#316=ORIENTED_EDGE('',*,*,#487,.F.);
#317=ORIENTED_EDGE('',*,*,#532,.T.);
#318=ORIENTED_EDGE('',*,*,#489,.F.);
#319=ORIENTED_EDGE('',*,*,#533,.T.);
#320=ORIENTED_EDGE('',*,*,#534,.T.);
#321=ORIENTED_EDGE('',*,*,#535,.T.);
#322=ORIENTED_EDGE('',*,*,#536,.T.);
#323=ORIENTED_EDGE('',*,*,#513,.F.);
#324=ORIENTED_EDGE('',*,*,#491,.T.);
#325=ORIENTED_EDGE('',*,*,#537,.T.);
#326=ORIENTED_EDGE('',*,*,#538,.F.);
#327=ORIENTED_EDGE('',*,*,#539,.T.);
#328=ORIENTED_EDGE('',*,*,#536,.F.);
#329=ORIENTED_EDGE('',*,*,#534,.F.);
#330=ORIENTED_EDGE('',*,*,#540,.T.);
#331=ORIENTED_EDGE('',*,*,#530,.F.);
#332=ORIENTED_EDGE('',*,*,#541,.T.);
#333=ORIENTED_EDGE('',*,*,#442,.T.);
#334=ORIENTED_EDGE('',*,*,#542,.T.);
#335=ORIENTED_EDGE('',*,*,#538,.T.);
#336=ORIENTED_EDGE('',*,*,#543,.T.);
#337=ORIENTED_EDGE('',*,*,#504,.F.);
#338=ORIENTED_EDGE('',*,*,#544,.T.);
#339=ORIENTED_EDGE('',*,*,#545,.T.);
#340=ORIENTED_EDGE('',*,*,#546,.T.);
#341=ORIENTED_EDGE('',*,*,#506,.T.);
#342=ORIENTED_EDGE('',*,*,#547,.T.);
#343=ORIENTED_EDGE('',*,*,#548,.F.);
#344=ORIENTED_EDGE('',*,*,#549,.T.);
#345=ORIENTED_EDGE('',*,*,#550,.T.);
#346=ORIENTED_EDGE('',*,*,#514,.F.);
#347=ORIENTED_EDGE('',*,*,#508,.T.);
#348=ORIENTED_EDGE('',*,*,#551,.T.);
#349=ORIENTED_EDGE('',*,*,#552,.F.);
#350=ORIENTED_EDGE('',*,*,#553,.T.);
#351=ORIENTED_EDGE('',*,*,#550,.F.);
#352=ORIENTED_EDGE('',*,*,#548,.T.);
#353=ORIENTED_EDGE('',*,*,#554,.T.);
#354=ORIENTED_EDGE('',*,*,#545,.F.);
#355=ORIENTED_EDGE('',*,*,#555,.T.);
#356=ORIENTED_EDGE('',*,*,#477,.F.);
#357=ORIENTED_EDGE('',*,*,#556,.T.);
#358=ORIENTED_EDGE('',*,*,#552,.T.);
#359=ORIENTED_EDGE('',*,*,#557,.T.);
#360=ORIENTED_EDGE('',*,*,#558,.T.);
#361=ORIENTED_EDGE('',*,*,#559,.F.);
#362=ORIENTED_EDGE('',*,*,#440,.F.);
#363=ORIENTED_EDGE('',*,*,#559,.T.);
#364=ORIENTED_EDGE('',*,*,#560,.T.);
#365=ORIENTED_EDGE('',*,*,#561,.F.);
#366=ORIENTED_EDGE('',*,*,#562,.F.);
#367=ORIENTED_EDGE('',*,*,#561,.T.);
#368=ORIENTED_EDGE('',*,*,#563,.F.);
#369=ORIENTED_EDGE('',*,*,#562,.T.);
#370=ORIENTED_EDGE('',*,*,#441,.F.);
#371=ORIENTED_EDGE('',*,*,#563,.T.);
#372=ORIENTED_EDGE('',*,*,#458,.F.);
#373=ORIENTED_EDGE('',*,*,#560,.F.);
#374=ORIENTED_EDGE('',*,*,#540,.F.);
#375=ORIENTED_EDGE('',*,*,#533,.F.);
#376=ORIENTED_EDGE('',*,*,#488,.F.);
#377=ORIENTED_EDGE('',*,*,#531,.F.);
#378=ORIENTED_EDGE('',*,*,#541,.F.);
#379=ORIENTED_EDGE('',*,*,#532,.F.);
#380=ORIENTED_EDGE('',*,*,#511,.F.);
#381=ORIENTED_EDGE('',*,*,#443,.F.);
#382=ORIENTED_EDGE('',*,*,#543,.F.);
#383=ORIENTED_EDGE('',*,*,#537,.F.);
#384=ORIENTED_EDGE('',*,*,#490,.F.);
#385=ORIENTED_EDGE('',*,*,#535,.F.);
#386=ORIENTED_EDGE('',*,*,#542,.F.);
#387=ORIENTED_EDGE('',*,*,#449,.F.);
#388=ORIENTED_EDGE('',*,*,#492,.F.);
#389=ORIENTED_EDGE('',*,*,#539,.F.);
#390=ORIENTED_EDGE('',*,*,#527,.F.);
#391=ORIENTED_EDGE('',*,*,#519,.F.);
#392=ORIENTED_EDGE('',*,*,#494,.F.);
#393=ORIENTED_EDGE('',*,*,#451,.F.);
#394=ORIENTED_EDGE('',*,*,#526,.F.);
#395=ORIENTED_EDGE('',*,*,#522,.F.);
#396=ORIENTED_EDGE('',*,*,#496,.F.);
#397=ORIENTED_EDGE('',*,*,#521,.F.);
#398=ORIENTED_EDGE('',*,*,#529,.F.);
#399=ORIENTED_EDGE('',*,*,#516,.F.);
#400=ORIENTED_EDGE('',*,*,#498,.F.);
#401=ORIENTED_EDGE('',*,*,#524,.F.);
#402=ORIENTED_EDGE('',*,*,#528,.F.);
#403=ORIENTED_EDGE('',*,*,#457,.F.);
#404=ORIENTED_EDGE('',*,*,#500,.F.);
#405=ORIENTED_EDGE('',*,*,#518,.F.);
#406=ORIENTED_EDGE('',*,*,#555,.F.);
#407=ORIENTED_EDGE('',*,*,#544,.F.);
#408=ORIENTED_EDGE('',*,*,#503,.F.);
#409=ORIENTED_EDGE('',*,*,#478,.F.);
#410=ORIENTED_EDGE('',*,*,#554,.F.);
#411=ORIENTED_EDGE('',*,*,#547,.F.);
#412=ORIENTED_EDGE('',*,*,#505,.F.);
#413=ORIENTED_EDGE('',*,*,#546,.F.);
#414=ORIENTED_EDGE('',*,*,#557,.F.);
#415=ORIENTED_EDGE('',*,*,#551,.F.);
#416=ORIENTED_EDGE('',*,*,#507,.F.);
#417=ORIENTED_EDGE('',*,*,#549,.F.);
#418=ORIENTED_EDGE('',*,*,#556,.F.);
#419=ORIENTED_EDGE('',*,*,#483,.F.);
#420=ORIENTED_EDGE('',*,*,#509,.F.);
#421=ORIENTED_EDGE('',*,*,#553,.F.);
#422=ORIENTED_EDGE('',*,*,#510,.F.);
#423=ORIENTED_EDGE('',*,*,#481,.F.);
#424=ORIENTED_EDGE('',*,*,#459,.F.);
#425=ORIENTED_EDGE('',*,*,#445,.F.);
#426=ORIENTED_EDGE('',*,*,#493,.F.);
#427=ORIENTED_EDGE('',*,*,#447,.F.);
#428=ORIENTED_EDGE('',*,*,#464,.F.);
#429=ORIENTED_EDGE('',*,*,#453,.F.);
#430=ORIENTED_EDGE('',*,*,#501,.F.);
#431=ORIENTED_EDGE('',*,*,#455,.F.);
#432=ORIENTED_EDGE('',*,*,#463,.F.);
#433=ORIENTED_EDGE('',*,*,#485,.F.);
#434=ORIENTED_EDGE('',*,*,#502,.F.);
#435=ORIENTED_EDGE('',*,*,#486,.F.);
#436=ORIENTED_EDGE('',*,*,#461,.F.);
#437=ORIENTED_EDGE('',*,*,#480,.F.);
#438=ORIENTED_EDGE('',*,*,#515,.F.);
#439=ORIENTED_EDGE('',*,*,#558,.F.);
#440=EDGE_CURVE('',#564,#564,#652,.T.);
#441=EDGE_CURVE('',#565,#565,#653,.T.);
#442=EDGE_CURVE('',#566,#567,#14,.T.);
#443=EDGE_CURVE('',#566,#568,#15,.T.);
#444=EDGE_CURVE('',#569,#568,#16,.T.);
#445=EDGE_CURVE('',#569,#570,#17,.T.);
#446=EDGE_CURVE('',#570,#571,#18,.T.);
#447=EDGE_CURVE('',#571,#572,#19,.F.);
#448=EDGE_CURVE('',#573,#572,#20,.T.);
#449=EDGE_CURVE('',#573,#567,#21,.F.);
#450=EDGE_CURVE('',#574,#575,#22,.T.);
#451=EDGE_CURVE('',#574,#576,#23,.T.);
#452=EDGE_CURVE('',#577,#576,#24,.T.);
#453=EDGE_CURVE('',#577,#578,#25,.T.);
#454=EDGE_CURVE('',#578,#579,#26,.T.);
#455=EDGE_CURVE('',#579,#580,#27,.F.);
#456=EDGE_CURVE('',#581,#580,#28,.T.);
#457=EDGE_CURVE('',#581,#575,#29,.F.);
#458=EDGE_CURVE('',#582,#582,#654,.T.);
#459=EDGE_CURVE('',#570,#583,#655,.F.);
#460=EDGE_CURVE('',#583,#584,#30,.T.);
#461=EDGE_CURVE('',#584,#585,#656,.F.);
#462=EDGE_CURVE('',#585,#586,#31,.T.);
#463=EDGE_CURVE('',#586,#579,#657,.F.);
#464=EDGE_CURVE('',#578,#571,#658,.F.);
#465=EDGE_CURVE('',#587,#588,#32,.T.);
#466=EDGE_CURVE('',#588,#589,#33,.T.);
#467=EDGE_CURVE('',#590,#589,#34,.T.);
#468=EDGE_CURVE('',#587,#590,#35,.T.);
#469=EDGE_CURVE('',#588,#591,#36,.T.);
#470=EDGE_CURVE('',#587,#592,#37,.T.);
#471=EDGE_CURVE('',#592,#591,#38,.T.);
#472=EDGE_CURVE('',#591,#593,#39,.T.);
#473=EDGE_CURVE('',#592,#594,#40,.T.);
#474=EDGE_CURVE('',#594,#593,#41,.T.);
#475=EDGE_CURVE('',#589,#593,#42,.T.);
#476=EDGE_CURVE('',#590,#594,#43,.T.);
#477=EDGE_CURVE('',#595,#596,#44,.T.);
#478=EDGE_CURVE('',#596,#597,#45,.T.);
#479=EDGE_CURVE('',#597,#598,#46,.T.);
#480=EDGE_CURVE('',#598,#584,#47,.T.);
#481=EDGE_CURVE('',#583,#599,#48,.F.);
#482=EDGE_CURVE('',#599,#600,#49,.T.);
#483=EDGE_CURVE('',#600,#595,#50,.F.);
#484=EDGE_CURVE('',#601,#602,#51,.T.);
#485=EDGE_CURVE('',#602,#586,#52,.T.);
#486=EDGE_CURVE('',#585,#601,#53,.F.);
#487=EDGE_CURVE('',#603,#604,#54,.T.);
#488=EDGE_CURVE('',#604,#605,#659,.T.);
#489=EDGE_CURVE('',#605,#606,#55,.T.);
#490=EDGE_CURVE('',#606,#607,#660,.T.);
#491=EDGE_CURVE('',#608,#607,#56,.T.);
#492=EDGE_CURVE('',#608,#573,#661,.F.);
#493=EDGE_CURVE('',#572,#577,#662,.T.);
#494=EDGE_CURVE('',#576,#609,#663,.F.);
#495=EDGE_CURVE('',#609,#610,#57,.T.);
#496=EDGE_CURVE('',#610,#611,#664,.T.);
#497=EDGE_CURVE('',#612,#611,#58,.T.);
#498=EDGE_CURVE('',#612,#613,#665,.T.);
#499=EDGE_CURVE('',#614,#613,#59,.T.);
#500=EDGE_CURVE('',#614,#581,#666,.F.);
#501=EDGE_CURVE('',#580,#602,#667,.T.);
#502=EDGE_CURVE('',#601,#598,#668,.T.);
#503=EDGE_CURVE('',#597,#615,#669,.F.);
#504=EDGE_CURVE('',#615,#616,#60,.T.);
#505=EDGE_CURVE('',#616,#617,#670,.T.);
#506=EDGE_CURVE('',#618,#617,#61,.T.);
#507=EDGE_CURVE('',#618,#619,#671,.T.);
#508=EDGE_CURVE('',#620,#619,#62,.T.);
#509=EDGE_CURVE('',#620,#600,#672,.F.);
#510=EDGE_CURVE('',#599,#569,#673,.T.);
#511=EDGE_CURVE('',#568,#603,#674,.F.);
#512=EDGE_CURVE('',#621,#621,#675,.T.);
#513=EDGE_CURVE('',#622,#622,#676,.T.);
#514=EDGE_CURVE('',#623,#623,#677,.T.);
#515=EDGE_CURVE('',#624,#624,#678,.F.);
#516=EDGE_CURVE('',#613,#625,#63,.F.);
#517=EDGE_CURVE('',#626,#625,#64,.T.);
#518=EDGE_CURVE('',#626,#614,#65,.T.);
#519=EDGE_CURVE('',#609,#627,#66,.F.);
#520=EDGE_CURVE('',#627,#628,#67,.T.);
#521=EDGE_CURVE('',#628,#610,#68,.T.);
#522=EDGE_CURVE('',#611,#629,#69,.F.);
#523=EDGE_CURVE('',#630,#629,#70,.T.);
#524=EDGE_CURVE('',#630,#612,#71,.T.);
#525=EDGE_CURVE('',#631,#631,#679,.T.);
#526=EDGE_CURVE('',#629,#628,#680,.F.);
#527=EDGE_CURVE('',#627,#574,#681,.T.);
#528=EDGE_CURVE('',#575,#626,#682,.T.);
#529=EDGE_CURVE('',#625,#630,#683,.F.);
#530=EDGE_CURVE('',#632,#633,#72,.T.);
#531=EDGE_CURVE('',#633,#604,#73,.T.);
#532=EDGE_CURVE('',#603,#632,#74,.F.);
#533=EDGE_CURVE('',#605,#634,#75,.F.);
#534=EDGE_CURVE('',#634,#635,#76,.T.);
#535=EDGE_CURVE('',#635,#606,#77,.T.);
#536=EDGE_CURVE('',#636,#636,#684,.T.);
#537=EDGE_CURVE('',#607,#637,#78,.F.);
#538=EDGE_CURVE('',#638,#637,#79,.T.);
#539=EDGE_CURVE('',#638,#608,#80,.T.);
#540=EDGE_CURVE('',#634,#633,#685,.F.);
#541=EDGE_CURVE('',#632,#566,#686,.T.);
#542=EDGE_CURVE('',#567,#638,#687,.T.);
#543=EDGE_CURVE('',#637,#635,#688,.F.);
#544=EDGE_CURVE('',#615,#639,#81,.F.);
#545=EDGE_CURVE('',#639,#640,#82,.T.);
#546=EDGE_CURVE('',#640,#616,#83,.T.);
#547=EDGE_CURVE('',#617,#641,#84,.F.);
#548=EDGE_CURVE('',#642,#641,#85,.T.);
#549=EDGE_CURVE('',#642,#618,#86,.T.);
#550=EDGE_CURVE('',#643,#643,#689,.T.);
#551=EDGE_CURVE('',#619,#644,#87,.F.);
#552=EDGE_CURVE('',#645,#644,#88,.T.);
#553=EDGE_CURVE('',#645,#620,#89,.T.);
#554=EDGE_CURVE('',#641,#640,#690,.F.);
#555=EDGE_CURVE('',#639,#596,#691,.T.);
#556=EDGE_CURVE('',#595,#645,#692,.T.);
#557=EDGE_CURVE('',#644,#642,#693,.F.);
#558=EDGE_CURVE('',#646,#646,#694,.T.);
#559=EDGE_CURVE('',#647,#647,#695,.T.);
#560=EDGE_CURVE('',#648,#648,#696,.F.);
#561=EDGE_CURVE('',#649,#649,#697,.T.);
#562=EDGE_CURVE('',#650,#650,#698,.T.);
#563=EDGE_CURVE('',#651,#651,#699,.T.);
#564=VERTEX_POINT('',#1309);
#565=VERTEX_POINT('',#1311);
#566=VERTEX_POINT('',#1314);
#567=VERTEX_POINT('',#1315);
#568=VERTEX_POINT('',#1317);
#569=VERTEX_POINT('',#1319);
#570=VERTEX_POINT('',#1321);
#571=VERTEX_POINT('',#1323);
#572=VERTEX_POINT('',#1325);
#573=VERTEX_POINT('',#1327);
#574=VERTEX_POINT('',#1331);
#575=VERTEX_POINT('',#1332);
#576=VERTEX_POINT('',#1334);
#577=VERTEX_POINT('',#1336);
#578=VERTEX_POINT('',#1338);
#579=VERTEX_POINT('',#1340);
#580=VERTEX_POINT('',#1342);
#581=VERTEX_POINT('',#1344);
#582=VERTEX_POINT('',#1348);
#583=VERTEX_POINT('',#1350);
#584=VERTEX_POINT('',#1352);
#585=VERTEX_POINT('',#1354);
#586=VERTEX_POINT('',#1356);
#587=VERTEX_POINT('',#1361);
#588=VERTEX_POINT('',#1362);
#589=VERTEX_POINT('',#1364);
#590=VERTEX_POINT('',#1366);
#591=VERTEX_POINT('',#1370);
#592=VERTEX_POINT('',#1372);
#593=VERTEX_POINT('',#1376);
#594=VERTEX_POINT('',#1378);
#595=VERTEX_POINT('',#1385);
#596=VERTEX_POINT('',#1386);
#597=VERTEX_POINT('',#1388);
#598=VERTEX_POINT('',#1390);
#599=VERTEX_POINT('',#1393);
#600=VERTEX_POINT('',#1395);
#601=VERTEX_POINT('',#1399);
#602=VERTEX_POINT('',#1400);
#603=VERTEX_POINT('',#1405);
#604=VERTEX_POINT('',#1406);
#605=VERTEX_POINT('',#1408);
#606=VERTEX_POINT('',#1410);
#607=VERTEX_POINT('',#1412);
#608=VERTEX_POINT('',#1414);
#609=VERTEX_POINT('',#1418);
#610=VERTEX_POINT('',#1420);
#611=VERTEX_POINT('',#1422);
#612=VERTEX_POINT('',#1424);
#613=VERTEX_POINT('',#1426);
#614=VERTEX_POINT('',#1428);
#615=VERTEX_POINT('',#1433);
#616=VERTEX_POINT('',#1435);
#617=VERTEX_POINT('',#1437);
#618=VERTEX_POINT('',#1439);
#619=VERTEX_POINT('',#1441);
#620=VERTEX_POINT('',#1443);
#621=VERTEX_POINT('',#1448);
#622=VERTEX_POINT('',#1450);
#623=VERTEX_POINT('',#1452);
#624=VERTEX_POINT('',#1455);
#625=VERTEX_POINT('',#1458);
#626=VERTEX_POINT('',#1460);
#627=VERTEX_POINT('',#1464);
#628=VERTEX_POINT('',#1466);
#629=VERTEX_POINT('',#1470);
#630=VERTEX_POINT('',#1472);
#631=VERTEX_POINT('',#1476);
#632=VERTEX_POINT('',#1484);
#633=VERTEX_POINT('',#1485);
#634=VERTEX_POINT('',#1490);
#635=VERTEX_POINT('',#1492);
#636=VERTEX_POINT('',#1496);
#637=VERTEX_POINT('',#1499);
#638=VERTEX_POINT('',#1501);
#639=VERTEX_POINT('',#1510);
#640=VERTEX_POINT('',#1512);
#641=VERTEX_POINT('',#1516);
#642=VERTEX_POINT('',#1518);
#643=VERTEX_POINT('',#1522);
#644=VERTEX_POINT('',#1525);
#645=VERTEX_POINT('',#1527);
#646=VERTEX_POINT('',#1536);
#647=VERTEX_POINT('',#1538);
#648=VERTEX_POINT('',#1542);
#649=VERTEX_POINT('',#1544);
#650=VERTEX_POINT('',#1547);
#651=VERTEX_POINT('',#1550);
#652=CIRCLE('',#932,0.0015);
#653=CIRCLE('',#933,0.0015);
#654=CIRCLE('',#937,0.005);
#655=CIRCLE('',#938,0.001);
#656=CIRCLE('',#939,0.001);
#657=CIRCLE('',#940,0.001);
#658=CIRCLE('',#941,0.001);
#659=CIRCLE('',#949,0.001);
#660=CIRCLE('',#950,0.001);
#661=CIRCLE('',#951,0.001);
#662=CIRCLE('',#952,0.001);
#663=CIRCLE('',#953,0.001);
#664=CIRCLE('',#954,0.001);
#665=CIRCLE('',#955,0.001);
#666=CIRCLE('',#956,0.001);
#667=CIRCLE('',#957,0.001);
#668=CIRCLE('',#958,0.001);
#669=CIRCLE('',#959,0.001);
#670=CIRCLE('',#960,0.001);
#671=CIRCLE('',#961,0.001);
#672=CIRCLE('',#962,0.001);
#673=CIRCLE('',#963,0.001);
#674=CIRCLE('',#964,0.001);
#675=CIRCLE('',#965,0.00165);
#676=CIRCLE('',#966,0.00165);
#677=CIRCLE('',#967,0.00165);
#678=CIRCLE('',#969,0.0032);
#679=CIRCLE('',#974,0.00165);
#680=CIRCLE('',#976,0.001);
#681=CIRCLE('',#977,0.001);
#682=CIRCLE('',#978,0.001);
#683=CIRCLE('',#979,0.001);
#684=CIRCLE('',#983,0.00165);
#685=CIRCLE('',#986,0.001);
#686=CIRCLE('',#987,0.001);
#687=CIRCLE('',#988,0.001);
#688=CIRCLE('',#989,0.001);
#689=CIRCLE('',#993,0.00165);
#690=CIRCLE('',#996,0.001);
#691=CIRCLE('',#997,0.001);
#692=CIRCLE('',#998,0.001);
#693=CIRCLE('',#999,0.001);
#694=CIRCLE('',#1001,0.0027);
#695=CIRCLE('',#1002,0.0027);
#696=CIRCLE('',#1005,0.004);
#697=CIRCLE('',#1006,0.004);
#698=CIRCLE('',#1008,0.00265);
#699=CIRCLE('',#1010,0.00265);
#700=EDGE_LOOP('',(#192));
#701=EDGE_LOOP('',(#193));
#702=EDGE_LOOP('',(#194,#195,#196,#197,#198,#199,#200,#201));
#703=EDGE_LOOP('',(#202,#203,#204,#205,#206,#207,#208,#209));
#704=EDGE_LOOP('',(#210));
#705=EDGE_LOOP('',(#211,#212,#213,#214,#215,#216,#217,#218));
#706=EDGE_LOOP('',(#219,#220,#221,#222));
#707=EDGE_LOOP('',(#223,#224,#225,#226));
#708=EDGE_LOOP('',(#227,#228,#229,#230));
#709=EDGE_LOOP('',(#231,#232,#233,#234));
#710=EDGE_LOOP('',(#235,#236,#237,#238,#239,#240,#241,#242));
#711=EDGE_LOOP('',(#243,#244,#245,#246));
#712=EDGE_LOOP('',(#247,#248,#249,#250,#251,#252,#253,#254,#255,#256,#257,
#258,#259,#260,#261,#262,#263,#264,#265,#266,#267,#268,#269,#270,#271,#272,
#273,#274,#275,#276,#277,#278));
#713=EDGE_LOOP('',(#279,#280,#281,#282));
#714=EDGE_LOOP('',(#283));
#715=EDGE_LOOP('',(#284));
#716=EDGE_LOOP('',(#285));
#717=EDGE_LOOP('',(#286));
#718=EDGE_LOOP('',(#287,#288,#289,#290));
#719=EDGE_LOOP('',(#291,#292,#293,#294));
#720=EDGE_LOOP('',(#295,#296,#297,#298));
#721=EDGE_LOOP('',(#299,#300,#301,#302));
#722=EDGE_LOOP('',(#303));
#723=EDGE_LOOP('',(#304));
#724=EDGE_LOOP('',(#305,#306,#307,#308,#309,#310,#311,#312));
#725=EDGE_LOOP('',(#313));
#726=EDGE_LOOP('',(#314,#315,#316,#317));
#727=EDGE_LOOP('',(#318,#319,#320,#321));
#728=EDGE_LOOP('',(#322));
#729=EDGE_LOOP('',(#323));
#730=EDGE_LOOP('',(#324,#325,#326,#327));
#731=EDGE_LOOP('',(#328));
#732=EDGE_LOOP('',(#329,#330,#331,#332,#333,#334,#335,#336));
#733=EDGE_LOOP('',(#337,#338,#339,#340));
#734=EDGE_LOOP('',(#341,#342,#343,#344));
#735=EDGE_LOOP('',(#345));
#736=EDGE_LOOP('',(#346));
#737=EDGE_LOOP('',(#347,#348,#349,#350));
#738=EDGE_LOOP('',(#351));
#739=EDGE_LOOP('',(#352,#353,#354,#355,#356,#357,#358,#359));
#740=EDGE_LOOP('',(#360));
#741=EDGE_LOOP('',(#361));
#742=EDGE_LOOP('',(#362));
#743=EDGE_LOOP('',(#363));
#744=EDGE_LOOP('',(#364));
#745=EDGE_LOOP('',(#365));
#746=EDGE_LOOP('',(#366));
#747=EDGE_LOOP('',(#367));
#748=EDGE_LOOP('',(#368));
#749=EDGE_LOOP('',(#369));
#750=EDGE_LOOP('',(#370));
#751=EDGE_LOOP('',(#371));
#752=EDGE_LOOP('',(#372));
#753=EDGE_LOOP('',(#373));
#754=EDGE_LOOP('',(#374,#375,#376,#377));
#755=EDGE_LOOP('',(#378,#379,#380,#381));
#756=EDGE_LOOP('',(#382,#383,#384,#385));
#757=EDGE_LOOP('',(#386,#387,#388,#389));
#758=EDGE_LOOP('',(#390,#391,#392,#393));
#759=EDGE_LOOP('',(#394,#395,#396,#397));
#760=EDGE_LOOP('',(#398,#399,#400,#401));
#761=EDGE_LOOP('',(#402,#403,#404,#405));
#762=EDGE_LOOP('',(#406,#407,#408,#409));
#763=EDGE_LOOP('',(#410,#411,#412,#413));
#764=EDGE_LOOP('',(#414,#415,#416,#417));
#765=EDGE_LOOP('',(#418,#419,#420,#421));
#766=EDGE_LOOP('',(#422,#423,#424,#425));
#767=EDGE_LOOP('',(#426,#427,#428,#429));
#768=EDGE_LOOP('',(#430,#431,#432,#433));
#769=EDGE_LOOP('',(#434,#435,#436,#437));
#770=EDGE_LOOP('',(#438));
#771=EDGE_LOOP('',(#439));
#772=FACE_BOUND('',#700,.T.);
#773=FACE_BOUND('',#701,.T.);
#774=FACE_BOUND('',#702,.T.);
#775=FACE_BOUND('',#703,.T.);
#776=FACE_BOUND('',#704,.T.);
#777=FACE_BOUND('',#705,.T.);
#778=FACE_BOUND('',#706,.T.);
#779=FACE_BOUND('',#707,.T.);
#780=FACE_BOUND('',#708,.T.);
#781=FACE_BOUND('',#709,.T.);
#782=FACE_BOUND('',#710,.T.);
#783=FACE_BOUND('',#711,.T.);
#784=FACE_BOUND('',#712,.T.);
#785=FACE_BOUND('',#713,.T.);
#786=FACE_BOUND('',#714,.T.);
#787=FACE_BOUND('',#715,.T.);
#788=FACE_BOUND('',#716,.T.);
#789=FACE_BOUND('',#717,.T.);
#790=FACE_BOUND('',#718,.T.);
#791=FACE_BOUND('',#719,.T.);
#792=FACE_BOUND('',#720,.T.);
#793=FACE_BOUND('',#721,.T.);
#794=FACE_BOUND('',#722,.T.);
#795=FACE_BOUND('',#723,.T.);
#796=FACE_BOUND('',#724,.T.);
#797=FACE_BOUND('',#725,.T.);
#798=FACE_BOUND('',#726,.T.);
#799=FACE_BOUND('',#727,.T.);
#800=FACE_BOUND('',#728,.T.);
#801=FACE_BOUND('',#729,.T.);
#802=FACE_BOUND('',#730,.T.);
#803=FACE_BOUND('',#731,.T.);
#804=FACE_BOUND('',#732,.T.);
#805=FACE_BOUND('',#733,.T.);
#806=FACE_BOUND('',#734,.T.);
#807=FACE_BOUND('',#735,.T.);
#808=FACE_BOUND('',#736,.T.);
#809=FACE_BOUND('',#737,.T.);
#810=FACE_BOUND('',#738,.T.);
#811=FACE_BOUND('',#739,.T.);
#812=FACE_BOUND('',#740,.T.);
#813=FACE_BOUND('',#741,.T.);
#814=FACE_BOUND('',#742,.T.);
#815=FACE_BOUND('',#743,.T.);
#816=FACE_BOUND('',#744,.T.);
#817=FACE_BOUND('',#745,.T.);
#818=FACE_BOUND('',#746,.T.);
#819=FACE_BOUND('',#747,.T.);
#820=FACE_BOUND('',#748,.T.);
#821=FACE_BOUND('',#749,.T.);
#822=FACE_BOUND('',#750,.T.);
#823=FACE_BOUND('',#751,.T.);
#824=FACE_BOUND('',#752,.T.);
#825=FACE_BOUND('',#753,.T.);
#826=FACE_BOUND('',#754,.T.);
#827=FACE_BOUND('',#755,.T.);
#828=FACE_BOUND('',#756,.T.);
#829=FACE_BOUND('',#757,.T.);
#830=FACE_BOUND('',#758,.T.);
#831=FACE_BOUND('',#759,.T.);
#832=FACE_BOUND('',#760,.T.);
#833=FACE_BOUND('',#761,.T.);
#834=FACE_BOUND('',#762,.T.);
#835=FACE_BOUND('',#763,.T.);
#836=FACE_BOUND('',#764,.T.);
#837=FACE_BOUND('',#765,.T.);
#838=FACE_BOUND('',#766,.T.);
#839=FACE_BOUND('',#767,.T.);
#840=FACE_BOUND('',#768,.T.);
#841=FACE_BOUND('',#769,.T.);
#842=FACE_BOUND('',#770,.T.);
#843=FACE_BOUND('',#771,.T.);
#844=CYLINDRICAL_SURFACE('',#931,0.0015);
#845=CYLINDRICAL_SURFACE('',#973,0.00165);
#846=CYLINDRICAL_SURFACE('',#982,0.00165);
#847=CYLINDRICAL_SURFACE('',#992,0.00165);
#848=CYLINDRICAL_SURFACE('',#1000,0.0027);
#849=CYLINDRICAL_SURFACE('',#1004,0.004);
#850=CYLINDRICAL_SURFACE('',#1009,0.00265);
#851=CYLINDRICAL_SURFACE('',#1013,0.001);
#852=CYLINDRICAL_SURFACE('',#1014,0.001);
#853=CYLINDRICAL_SURFACE('',#1015,0.001);
#854=CYLINDRICAL_SURFACE('',#1016,0.001);
#855=CYLINDRICAL_SURFACE('',#1017,0.001);
#856=CYLINDRICAL_SURFACE('',#1018,0.001);
#857=CYLINDRICAL_SURFACE('',#1019,0.001);
#858=CYLINDRICAL_SURFACE('',#1020,0.001);
#859=CYLINDRICAL_SURFACE('',#1021,0.001);
#860=CYLINDRICAL_SURFACE('',#1022,0.001);
#861=CYLINDRICAL_SURFACE('',#1023,0.001);
#862=CYLINDRICAL_SURFACE('',#1024,0.001);
#863=CYLINDRICAL_SURFACE('',#1025,0.001);
#864=CYLINDRICAL_SURFACE('',#1026,0.001);
#865=CYLINDRICAL_SURFACE('',#1027,0.001);
#866=CYLINDRICAL_SURFACE('',#1028,0.001);
#867=ADVANCED_FACE('',(#772,#773),#844,.F.);
#868=ADVANCED_FACE('',(#774),#166,.F.);
#869=ADVANCED_FACE('',(#775),#167,.F.);
#870=ADVANCED_FACE('',(#776,#777),#168,.F.);
#871=ADVANCED_FACE('',(#778),#169,.F.);
#872=ADVANCED_FACE('',(#779),#170,.T.);
#873=ADVANCED_FACE('',(#780),#171,.T.);
#874=ADVANCED_FACE('',(#781),#172,.F.);
#875=ADVANCED_FACE('',(#782),#173,.T.);
#876=ADVANCED_FACE('',(#783),#174,.T.);
#877=ADVANCED_FACE('',(#784,#785,#786,#787,#788),#175,.T.);
#878=ADVANCED_FACE('',(#789,#790),#176,.T.);
#879=ADVANCED_FACE('',(#791),#177,.F.);
#880=ADVANCED_FACE('',(#792),#178,.T.);
#881=ADVANCED_FACE('',(#793),#179,.F.);
#882=ADVANCED_FACE('',(#794,#795),#845,.F.);
#883=ADVANCED_FACE('',(#796,#797),#180,.F.);
#884=ADVANCED_FACE('',(#798),#181,.T.);
#885=ADVANCED_FACE('',(#799),#182,.T.);
#886=ADVANCED_FACE('',(#800,#801),#846,.F.);
#887=ADVANCED_FACE('',(#802),#183,.F.);
#888=ADVANCED_FACE('',(#803,#804),#184,.F.);
#889=ADVANCED_FACE('',(#805),#185,.T.);
#890=ADVANCED_FACE('',(#806),#186,.F.);
#891=ADVANCED_FACE('',(#807,#808),#847,.F.);
#892=ADVANCED_FACE('',(#809),#187,.F.);
#893=ADVANCED_FACE('',(#810,#811),#188,.F.);
#894=ADVANCED_FACE('',(#812,#813),#848,.F.);
#895=ADVANCED_FACE('',(#814,#815),#189,.T.);
#896=ADVANCED_FACE('',(#816,#817),#849,.T.);
#897=ADVANCED_FACE('',(#818,#819),#190,.T.);
#898=ADVANCED_FACE('',(#820,#821),#850,.F.);
#899=ADVANCED_FACE('',(#822,#823),#191,.T.);
#900=ADVANCED_FACE('',(#824,#825),#13,.F.);
#901=ADVANCED_FACE('',(#826),#851,.T.);
#902=ADVANCED_FACE('',(#827),#852,.F.);
#903=ADVANCED_FACE('',(#828),#853,.T.);
#904=ADVANCED_FACE('',(#829),#854,.F.);
#905=ADVANCED_FACE('',(#830),#855,.F.);
#906=ADVANCED_FACE('',(#831),#856,.T.);
#907=ADVANCED_FACE('',(#832),#857,.T.);
#908=ADVANCED_FACE('',(#833),#858,.F.);
#909=ADVANCED_FACE('',(#834),#859,.F.);
#910=ADVANCED_FACE('',(#835),#860,.T.);
#911=ADVANCED_FACE('',(#836),#861,.T.);
#912=ADVANCED_FACE('',(#837),#862,.F.);
#913=ADVANCED_FACE('',(#838),#863,.T.);
#914=ADVANCED_FACE('',(#839),#864,.T.);
#915=ADVANCED_FACE('',(#840),#865,.T.);
#916=ADVANCED_FACE('',(#841),#866,.T.);
#917=ADVANCED_FACE('',(#842,#843),#12,.F.);
#918=CLOSED_SHELL('',(#867,#868,#869,#870,#871,#872,#873,#874,#875,#876,
#877,#878,#879,#880,#881,#882,#883,#884,#885,#886,#887,#888,#889,#890,#891,
#892,#893,#894,#895,#896,#897,#898,#899,#900,#901,#902,#903,#904,#905,#906,
#907,#908,#909,#910,#911,#912,#913,#914,#915,#916,#917));
#919=STYLED_ITEM('',(#920),#927);
#920=PRESENTATION_STYLE_ASSIGNMENT((#921));
#921=SURFACE_STYLE_USAGE(.BOTH.,#922);
#922=SURFACE_SIDE_STYLE('',(#923));
#923=SURFACE_STYLE_FILL_AREA(#924);
#924=FILL_AREA_STYLE('',(#925));
#925=FILL_AREA_STYLE_COLOUR('',#926);
#926=COLOUR_RGB('',0.615686274509804,0.811764705882353,0.929411764705882);
#927=MANIFOLD_SOLID_BREP('Part 1',#918);
#928=SHAPE_DEFINITION_REPRESENTATION(#1576,#929);
#929=SHAPE_REPRESENTATION('Part 1',(#930),#1571);
#930=AXIS2_PLACEMENT_3D('',#1306,#1030,#1031);
#931=AXIS2_PLACEMENT_3D('',#1307,#1032,#1033);
#932=AXIS2_PLACEMENT_3D('',#1308,#1034,#1035);
#933=AXIS2_PLACEMENT_3D('',#1310,#1036,#1037);
#934=AXIS2_PLACEMENT_3D('',#1312,#1038,#1039);
#935=AXIS2_PLACEMENT_3D('',#1329,#1048,#1049);
#936=AXIS2_PLACEMENT_3D('',#1346,#1058,#1059);
#937=AXIS2_PLACEMENT_3D('',#1347,#1060,#1061);
#938=AXIS2_PLACEMENT_3D('',#1349,#1062,#1063);
#939=AXIS2_PLACEMENT_3D('',#1353,#1065,#1066);
#940=AXIS2_PLACEMENT_3D('',#1357,#1068,#1069);
#941=AXIS2_PLACEMENT_3D('',#1358,#1070,#1071);
#942=AXIS2_PLACEMENT_3D('',#1359,#1072,#1073);
#943=AXIS2_PLACEMENT_3D('',#1368,#1078,#1079);
#944=AXIS2_PLACEMENT_3D('',#1374,#1083,#1084);
#945=AXIS2_PLACEMENT_3D('',#1380,#1088,#1089);
#946=AXIS2_PLACEMENT_3D('',#1383,#1092,#1093);
#947=AXIS2_PLACEMENT_3D('',#1397,#1101,#1102);
#948=AXIS2_PLACEMENT_3D('',#1403,#1106,#1107);
#949=AXIS2_PLACEMENT_3D('',#1407,#1109,#1110);
#950=AXIS2_PLACEMENT_3D('',#1411,#1112,#1113);
#951=AXIS2_PLACEMENT_3D('',#1415,#1115,#1116);
#952=AXIS2_PLACEMENT_3D('',#1416,#1117,#1118);
#953=AXIS2_PLACEMENT_3D('',#1417,#1119,#1120);
#954=AXIS2_PLACEMENT_3D('',#1421,#1122,#1123);
#955=AXIS2_PLACEMENT_3D('',#1425,#1125,#1126);
#956=AXIS2_PLACEMENT_3D('',#1429,#1128,#1129);
#957=AXIS2_PLACEMENT_3D('',#1430,#1130,#1131);
#958=AXIS2_PLACEMENT_3D('',#1431,#1132,#1133);
#959=AXIS2_PLACEMENT_3D('',#1432,#1134,#1135);
#960=AXIS2_PLACEMENT_3D('',#1436,#1137,#1138);
#961=AXIS2_PLACEMENT_3D('',#1440,#1140,#1141);
#962=AXIS2_PLACEMENT_3D('',#1444,#1143,#1144);
#963=AXIS2_PLACEMENT_3D('',#1445,#1145,#1146);
#964=AXIS2_PLACEMENT_3D('',#1446,#1147,#1148);
#965=AXIS2_PLACEMENT_3D('',#1447,#1149,#1150);
#966=AXIS2_PLACEMENT_3D('',#1449,#1151,#1152);
#967=AXIS2_PLACEMENT_3D('',#1451,#1153,#1154);
#968=AXIS2_PLACEMENT_3D('',#1453,#1155,#1156);
#969=AXIS2_PLACEMENT_3D('',#1454,#1157,#1158);
#970=AXIS2_PLACEMENT_3D('',#1456,#1159,#1160);
#971=AXIS2_PLACEMENT_3D('',#1462,#1164,#1165);
#972=AXIS2_PLACEMENT_3D('',#1468,#1169,#1170);
#973=AXIS2_PLACEMENT_3D('',#1474,#1174,#1175);
#974=AXIS2_PLACEMENT_3D('',#1475,#1176,#1177);
#975=AXIS2_PLACEMENT_3D('',#1477,#1178,#1179);
#976=AXIS2_PLACEMENT_3D('',#1478,#1180,#1181);
#977=AXIS2_PLACEMENT_3D('',#1479,#1182,#1183);
#978=AXIS2_PLACEMENT_3D('',#1480,#1184,#1185);
#979=AXIS2_PLACEMENT_3D('',#1481,#1186,#1187);
#980=AXIS2_PLACEMENT_3D('',#1482,#1188,#1189);
#981=AXIS2_PLACEMENT_3D('',#1488,#1193,#1194);
#982=AXIS2_PLACEMENT_3D('',#1494,#1198,#1199);
#983=AXIS2_PLACEMENT_3D('',#1495,#1200,#1201);
#984=AXIS2_PLACEMENT_3D('',#1497,#1202,#1203);
#985=AXIS2_PLACEMENT_3D('',#1503,#1207,#1208);
#986=AXIS2_PLACEMENT_3D('',#1504,#1209,#1210);
#987=AXIS2_PLACEMENT_3D('',#1505,#1211,#1212);
#988=AXIS2_PLACEMENT_3D('',#1506,#1213,#1214);
#989=AXIS2_PLACEMENT_3D('',#1507,#1215,#1216);
#990=AXIS2_PLACEMENT_3D('',#1508,#1217,#1218);
#991=AXIS2_PLACEMENT_3D('',#1514,#1222,#1223);
#992=AXIS2_PLACEMENT_3D('',#1520,#1227,#1228);
#993=AXIS2_PLACEMENT_3D('',#1521,#1229,#1230);
#994=AXIS2_PLACEMENT_3D('',#1523,#1231,#1232);
#995=AXIS2_PLACEMENT_3D('',#1529,#1236,#1237);
#996=AXIS2_PLACEMENT_3D('',#1530,#1238,#1239);
#997=AXIS2_PLACEMENT_3D('',#1531,#1240,#1241);
#998=AXIS2_PLACEMENT_3D('',#1532,#1242,#1243);
#999=AXIS2_PLACEMENT_3D('',#1533,#1244,#1245);
#1000=AXIS2_PLACEMENT_3D('',#1534,#1246,#1247);
#1001=AXIS2_PLACEMENT_3D('',#1535,#1248,#1249);
#1002=AXIS2_PLACEMENT_3D('',#1537,#1250,#1251);
#1003=AXIS2_PLACEMENT_3D('',#1539,#1252,#1253);
#1004=AXIS2_PLACEMENT_3D('',#1540,#1254,#1255);
#1005=AXIS2_PLACEMENT_3D('',#1541,#1256,#1257);
#1006=AXIS2_PLACEMENT_3D('',#1543,#1258,#1259);
#1007=AXIS2_PLACEMENT_3D('',#1545,#1260,#1261);
#1008=AXIS2_PLACEMENT_3D('',#1546,#1262,#1263);
#1009=AXIS2_PLACEMENT_3D('',#1548,#1264,#1265);
#1010=AXIS2_PLACEMENT_3D('',#1549,#1266,#1267);
#1011=AXIS2_PLACEMENT_3D('',#1551,#1268,#1269);
#1012=AXIS2_PLACEMENT_3D('',#1552,#1270,#1271);
#1013=AXIS2_PLACEMENT_3D('',#1553,#1272,#1273);
#1014=AXIS2_PLACEMENT_3D('',#1554,#1274,#1275);
#1015=AXIS2_PLACEMENT_3D('',#1555,#1276,#1277);
#1016=AXIS2_PLACEMENT_3D('',#1556,#1278,#1279);
#1017=AXIS2_PLACEMENT_3D('',#1557,#1280,#1281);
#1018=AXIS2_PLACEMENT_3D('',#1558,#1282,#1283);
#1019=AXIS2_PLACEMENT_3D('',#1559,#1284,#1285);
#1020=AXIS2_PLACEMENT_3D('',#1560,#1286,#1287);
#1021=AXIS2_PLACEMENT_3D('',#1561,#1288,#1289);
#1022=AXIS2_PLACEMENT_3D('',#1562,#1290,#1291);
#1023=AXIS2_PLACEMENT_3D('',#1563,#1292,#1293);
#1024=AXIS2_PLACEMENT_3D('',#1564,#1294,#1295);
#1025=AXIS2_PLACEMENT_3D('',#1565,#1296,#1297);
#1026=AXIS2_PLACEMENT_3D('',#1566,#1298,#1299);
#1027=AXIS2_PLACEMENT_3D('',#1567,#1300,#1301);
#1028=AXIS2_PLACEMENT_3D('',#1568,#1302,#1303);
#1029=AXIS2_PLACEMENT_3D('',#1569,#1304,#1305);
#1030=DIRECTION('',(0.,0.,1.));
#1031=DIRECTION('',(1.,0.,0.));
#1032=DIRECTION('',(0.,0.,-1.));
#1033=DIRECTION('',(-1.,0.,0.));
#1034=DIRECTION('',(0.,0.,1.));
#1035=DIRECTION('',(1.,0.,0.));
#1036=DIRECTION('',(0.,0.,-1.));
#1037=DIRECTION('',(-1.,0.,0.));
#1038=DIRECTION('',(0.,1.,0.));
#1039=DIRECTION('',(0.,0.,1.));
#1040=DIRECTION('',(1.,0.,0.));
#1041=DIRECTION('',(0.,0.,1.));
#1042=DIRECTION('',(1.,0.,0.));
#1043=DIRECTION('',(0.,0.,-1.));
#1044=DIRECTION('',(1.,0.,0.));
#1045=DIRECTION('',(0.,0.,-1.));
#1046=DIRECTION('',(1.,0.,0.));
#1047=DIRECTION('',(0.,0.,1.));
#1048=DIRECTION('',(-1.,-1.23908819712629E-16,0.));
#1049=DIRECTION('',(1.23908819712629E-16,-1.,0.));
#1050=DIRECTION('',(-1.23908819712629E-16,1.,0.));
#1051=DIRECTION('',(0.,0.,1.));
#1052=DIRECTION('',(-1.23908819712629E-16,1.,0.));
#1053=DIRECTION('',(0.,0.,-1.));
#1054=DIRECTION('',(-1.23908819712629E-16,1.,0.));
#1055=DIRECTION('',(0.,0.,-1.));
#1056=DIRECTION('',(-1.23908819712629E-16,1.,0.));
#1057=DIRECTION('',(0.,0.,1.));
#1058=DIRECTION('',(0.,0.,1.));
#1059=DIRECTION('',(1.,0.,0.));
#1060=DIRECTION('',(0.,0.,1.));
#1061=DIRECTION('',(1.,0.,0.));
#1062=DIRECTION('',(0.,0.,1.));
#1063=DIRECTION('',(1.,0.,0.));
#1064=DIRECTION('',(0.,1.,0.));
#1065=DIRECTION('',(0.,0.,1.));
#1066=DIRECTION('',(1.,0.,0.));
#1067=DIRECTION('',(1.,0.,0.));
#1068=DIRECTION('',(0.,0.,1.));
#1069=DIRECTION('',(1.,0.,0.));
#1070=DIRECTION('',(0.,0.,1.));
#1071=DIRECTION('',(1.,0.,0.));
#1072=DIRECTION('',(-1.,-1.82145964977564E-16,0.));
#1073=DIRECTION('',(1.82145964977564E-16,-1.,0.));
#1074=DIRECTION('',(0.,0.,-1.));
#1075=DIRECTION('',(-1.82145964977564E-16,1.,0.));
#1076=DIRECTION('',(0.,0.,-1.));
#1077=DIRECTION('',(-1.82145964977564E-16,1.,0.));
#1078=DIRECTION('',(0.,1.,0.));
#1079=DIRECTION('',(0.,0.,1.));
#1080=DIRECTION('',(1.,0.,0.));
#1081=DIRECTION('',(1.,0.,0.));
#1082=DIRECTION('',(0.,0.,-1.));
#1083=DIRECTION('',(-1.,-2.77555756156289E-16,0.));
#1084=DIRECTION('',(2.77555756156289E-16,-1.,0.));
#1085=DIRECTION('',(-2.77555756156289E-16,1.,0.));
#1086=DIRECTION('',(-2.77555756156289E-16,1.,0.));
#1087=DIRECTION('',(0.,0.,-1.));
#1088=DIRECTION('',(0.,1.,0.));
#1089=DIRECTION('',(0.,0.,1.));
#1090=DIRECTION('',(1.,0.,0.));
#1091=DIRECTION('',(1.,0.,0.));
#1092=DIRECTION('',(-1.,0.,0.));
#1093=DIRECTION('',(0.,0.,1.));
#1094=DIRECTION('',(0.,1.,0.));
#1095=DIRECTION('',(0.,0.,1.));
#1096=DIRECTION('',(0.,1.,0.));
#1097=DIRECTION('',(0.,0.,-1.));
#1098=DIRECTION('',(0.,0.,-1.));
#1099=DIRECTION('',(0.,1.,0.));
#1100=DIRECTION('',(0.,0.,1.));
#1101=DIRECTION('',(0.,1.,0.));
#1102=DIRECTION('',(0.,0.,1.));
#1103=DIRECTION('',(1.,0.,0.));
#1104=DIRECTION('',(0.,0.,-1.));
#1105=DIRECTION('',(0.,0.,-1.));
#1106=DIRECTION('',(0.,0.,1.));
#1107=DIRECTION('',(1.,0.,0.));
#1108=DIRECTION('',(6.93889390390723E-16,-1.,0.));
#1109=DIRECTION('',(0.,0.,1.));
#1110=DIRECTION('',(1.,0.,0.));
#1111=DIRECTION('',(1.,1.7347234759768E-16,0.));
#1112=DIRECTION('',(0.,0.,1.));
#1113=DIRECTION('',(1.,0.,0.));
#1114=DIRECTION('',(0.,-1.,0.));
#1115=DIRECTION('',(0.,0.,1.));
#1116=DIRECTION('',(1.,0.,0.));
#1117=DIRECTION('',(0.,0.,1.));
#1118=DIRECTION('',(1.,0.,0.));
#1119=DIRECTION('',(0.,0.,1.));
#1120=DIRECTION('',(1.,0.,0.));
#1121=DIRECTION('',(1.,0.,0.));
#1122=DIRECTION('',(0.,0.,1.));
#1123=DIRECTION('',(1.,0.,0.));
#1124=DIRECTION('',(0.,-1.,0.));
#1125=DIRECTION('',(0.,0.,1.));
#1126=DIRECTION('',(1.,0.,0.));
#1127=DIRECTION('',(1.,0.,0.));
#1128=DIRECTION('',(0.,0.,1.));
#1129=DIRECTION('',(1.,0.,0.));
#1130=DIRECTION('',(0.,0.,1.));
#1131=DIRECTION('',(1.,0.,0.));
#1132=DIRECTION('',(0.,0.,1.));
#1133=DIRECTION('',(1.,0.,0.));
#1134=DIRECTION('',(0.,0.,1.));
#1135=DIRECTION('',(1.,0.,0.));
#1136=DIRECTION('',(-1.,0.,0.));
#1137=DIRECTION('',(0.,0.,1.));
#1138=DIRECTION('',(1.,0.,0.));
#1139=DIRECTION('',(-1.7347234759768E-16,1.,0.));
#1140=DIRECTION('',(0.,0.,1.));
#1141=DIRECTION('',(1.,0.,0.));
#1142=DIRECTION('',(-1.,-3.46944695195362E-16,0.));
#1143=DIRECTION('',(0.,0.,1.));
#1144=DIRECTION('',(1.,0.,0.));
#1145=DIRECTION('',(0.,0.,1.));
#1146=DIRECTION('',(1.,0.,0.));
#1147=DIRECTION('',(0.,0.,1.));
#1148=DIRECTION('',(1.,0.,0.));
#1149=DIRECTION('',(0.,0.,1.));
#1150=DIRECTION('',(1.,0.,0.));
#1151=DIRECTION('',(0.,0.,-1.));
#1152=DIRECTION('',(1.,0.,0.));
#1153=DIRECTION('',(0.,0.,-1.));
#1154=DIRECTION('',(1.,0.,0.));
#1155=DIRECTION('',(0.,0.,1.));
#1156=DIRECTION('',(1.,0.,0.));
#1157=DIRECTION('',(0.,0.,1.));
#1158=DIRECTION('',(1.,0.,0.));
#1159=DIRECTION('',(0.,-1.,0.));
#1160=DIRECTION('',(0.,0.,-1.));
#1161=DIRECTION('',(0.,0.,1.));
#1162=DIRECTION('',(1.,0.,0.));
#1163=DIRECTION('',(0.,0.,1.));
#1164=DIRECTION('',(0.,-1.,0.));
#1165=DIRECTION('',(0.,0.,-1.));
#1166=DIRECTION('',(0.,0.,1.));
#1167=DIRECTION('',(1.,0.,0.));
#1168=DIRECTION('',(0.,0.,1.));
#1169=DIRECTION('',(-1.,0.,0.));
#1170=DIRECTION('',(0.,0.,1.));
#1171=DIRECTION('',(0.,0.,1.));
#1172=DIRECTION('',(0.,-1.,0.));
#1173=DIRECTION('',(0.,0.,1.));
#1174=DIRECTION('',(0.,0.,1.));
#1175=DIRECTION('',(1.,0.,0.));
#1176=DIRECTION('',(0.,0.,1.));
#1177=DIRECTION('',(1.,0.,0.));
#1178=DIRECTION('',(0.,0.,1.));
#1179=DIRECTION('',(1.,0.,0.));
#1180=DIRECTION('',(0.,0.,1.));
#1181=DIRECTION('',(1.,0.,0.));
#1182=DIRECTION('',(0.,0.,1.));
#1183=DIRECTION('',(1.,0.,0.));
#1184=DIRECTION('',(0.,0.,1.));
#1185=DIRECTION('',(1.,0.,0.));
#1186=DIRECTION('',(0.,0.,1.));
#1187=DIRECTION('',(1.,0.,0.));
#1188=DIRECTION('',(-1.,-6.93889390390723E-16,0.));
#1189=DIRECTION('',(6.93889390390723E-16,-1.,0.));
#1190=DIRECTION('',(6.93889390390723E-16,-1.,0.));
#1191=DIRECTION('',(0.,0.,1.));
#1192=DIRECTION('',(0.,0.,1.));
#1193=DIRECTION('',(1.7347234759768E-16,-1.,0.));
#1194=DIRECTION('',(1.,1.7347234759768E-16,0.));
#1195=DIRECTION('',(0.,0.,1.));
#1196=DIRECTION('',(1.,1.7347234759768E-16,0.));
#1197=DIRECTION('',(0.,0.,1.));
#1198=DIRECTION('',(0.,0.,1.));
#1199=DIRECTION('',(1.,0.,0.));
#1200=DIRECTION('',(0.,0.,-1.));
#1201=DIRECTION('',(1.,0.,0.));
#1202=DIRECTION('',(-1.,0.,0.));
#1203=DIRECTION('',(0.,0.,1.));
#1204=DIRECTION('',(0.,0.,1.));
#1205=DIRECTION('',(0.,-1.,0.));
#1206=DIRECTION('',(0.,0.,1.));
#1207=DIRECTION('',(0.,0.,1.));
#1208=DIRECTION('',(1.,0.,0.));
#1209=DIRECTION('',(0.,0.,1.));
#1210=DIRECTION('',(1.,0.,0.));
#1211=DIRECTION('',(0.,0.,1.));
#1212=DIRECTION('',(1.,0.,0.));
#1213=DIRECTION('',(0.,0.,1.));
#1214=DIRECTION('',(1.,0.,0.));
#1215=DIRECTION('',(0.,0.,1.));
#1216=DIRECTION('',(1.,0.,0.));
#1217=DIRECTION('',(0.,1.,0.));
#1218=DIRECTION('',(0.,0.,1.));
#1219=DIRECTION('',(0.,0.,1.));
#1220=DIRECTION('',(-1.,0.,0.));
#1221=DIRECTION('',(0.,0.,1.));
#1222=DIRECTION('',(1.,1.73472347597681E-16,0.));
#1223=DIRECTION('',(-1.73472347597681E-16,1.,0.));
#1224=DIRECTION('',(0.,0.,1.));
#1225=DIRECTION('',(-1.7347234759768E-16,1.,0.));
#1226=DIRECTION('',(0.,0.,1.));
#1227=DIRECTION('',(0.,0.,1.));
#1228=DIRECTION('',(1.,0.,0.));
#1229=DIRECTION('',(0.,0.,-1.));
#1230=DIRECTION('',(1.,0.,0.));
#1231=DIRECTION('',(-3.46944695195362E-16,1.,0.));
#1232=DIRECTION('',(-1.,-3.46944695195362E-16,0.));
#1233=DIRECTION('',(0.,0.,1.));
#1234=DIRECTION('',(-1.,-3.46944695195362E-16,0.));
#1235=DIRECTION('',(0.,0.,1.));
#1236=DIRECTION('',(0.,0.,1.));
#1237=DIRECTION('',(1.,0.,0.));
#1238=DIRECTION('',(0.,0.,1.));
#1239=DIRECTION('',(1.,0.,0.));
#1240=DIRECTION('',(0.,0.,1.));
#1241=DIRECTION('',(1.,0.,0.));
#1242=DIRECTION('',(0.,0.,1.));
#1243=DIRECTION('',(1.,0.,0.));
#1244=DIRECTION('',(0.,0.,1.));
#1245=DIRECTION('',(1.,0.,0.));
#1246=DIRECTION('',(0.,0.,1.));
#1247=DIRECTION('',(1.,0.,0.));
#1248=DIRECTION('',(0.,0.,1.));
#1249=DIRECTION('',(1.,0.,0.));
#1250=DIRECTION('',(0.,0.,1.));
#1251=DIRECTION('',(1.,0.,0.));
#1252=DIRECTION('',(0.,0.,1.));
#1253=DIRECTION('',(1.,0.,0.));
#1254=DIRECTION('',(0.,0.,1.));
#1255=DIRECTION('',(1.,0.,0.));
#1256=DIRECTION('',(0.,0.,1.));
#1257=DIRECTION('',(1.,0.,0.));
#1258=DIRECTION('',(0.,0.,-1.));
#1259=DIRECTION('',(-1.,0.,0.));
#1260=DIRECTION('',(0.,0.,-1.));
#1261=DIRECTION('',(1.,0.,0.));
#1262=DIRECTION('',(0.,0.,-1.));
#1263=DIRECTION('',(-1.,0.,0.));
#1264=DIRECTION('',(0.,0.,-1.));
#1265=DIRECTION('',(-1.,0.,0.));
#1266=DIRECTION('',(0.,0.,-1.));
#1267=DIRECTION('',(-1.,0.,0.));
#1268=DIRECTION('',(0.,0.,-1.));
#1269=DIRECTION('',(1.,0.,0.));
#1270=DIRECTION('',(0.,0.,1.));
#1271=DIRECTION('',(1.,0.,0.));
#1272=DIRECTION('',(0.,0.,1.));
#1273=DIRECTION('',(1.,0.,0.));
#1274=DIRECTION('',(0.,0.,1.));
#1275=DIRECTION('',(1.,0.,0.));
#1276=DIRECTION('',(0.,0.,-1.));
#1277=DIRECTION('',(-1.,0.,0.));
#1278=DIRECTION('',(0.,0.,-1.));
#1279=DIRECTION('',(-1.,0.,0.));
#1280=DIRECTION('',(0.,0.,1.));
#1281=DIRECTION('',(1.,0.,0.));
#1282=DIRECTION('',(0.,0.,-1.));
#1283=DIRECTION('',(-1.,0.,0.));
#1284=DIRECTION('',(0.,0.,1.));
#1285=DIRECTION('',(1.,0.,0.));
#1286=DIRECTION('',(0.,0.,-1.));
#1287=DIRECTION('',(-1.,0.,0.));
#1288=DIRECTION('',(0.,0.,-1.));
#1289=DIRECTION('',(-1.,0.,0.));
#1290=DIRECTION('',(0.,0.,-1.));
#1291=DIRECTION('',(-1.,0.,0.));
#1292=DIRECTION('',(0.,0.,1.));
#1293=DIRECTION('',(1.,0.,0.));
#1294=DIRECTION('',(0.,0.,1.));
#1295=DIRECTION('',(1.,0.,0.));
#1296=DIRECTION('',(0.,0.,1.));
#1297=DIRECTION('',(1.,0.,0.));
#1298=DIRECTION('',(0.,0.,-1.));
#1299=DIRECTION('',(-1.,0.,0.));
#1300=DIRECTION('',(0.,0.,1.));
#1301=DIRECTION('',(1.,0.,0.));
#1302=DIRECTION('',(0.,0.,-1.));
#1303=DIRECTION('',(-1.,0.,0.));
#1304=DIRECTION('',(0.,0.,1.));
#1305=DIRECTION('',(1.,0.,0.));
#1306=CARTESIAN_POINT('',(0.,0.,0.));
#1307=CARTESIAN_POINT('',(0.014,0.014,0.025));
#1308=CARTESIAN_POINT('',(0.014,0.014,0.0005));
#1309=CARTESIAN_POINT('',(0.0155,0.014,0.0005));
#1310=CARTESIAN_POINT('',(0.014,0.014,-0.0015));
#1311=CARTESIAN_POINT('',(0.0125,0.014,-0.0015));
#1312=CARTESIAN_POINT('',(0.014,0.,0.007));
#1313=CARTESIAN_POINT('',(0.014,0.,0.002));
#1314=CARTESIAN_POINT('',(0.0105,0.,0.002));
#1315=CARTESIAN_POINT('',(0.0175,0.,0.002));
#1316=CARTESIAN_POINT('',(0.0105,0.,0.007));
#1317=CARTESIAN_POINT('',(0.0105,0.,0.007));
#1318=CARTESIAN_POINT('',(0.014,0.,0.007));
#1319=CARTESIAN_POINT('',(0.001,0.,0.007));
#1320=CARTESIAN_POINT('',(0.001,0.,0.));
#1321=CARTESIAN_POINT('',(0.001,0.,0.));
#1322=CARTESIAN_POINT('',(0.014,0.,0.));
#1323=CARTESIAN_POINT('',(0.027,0.,0.));
#1324=CARTESIAN_POINT('',(0.027,0.,0.007));
#1325=CARTESIAN_POINT('',(0.027,0.,0.007));
#1326=CARTESIAN_POINT('',(0.014,0.,0.007));
#1327=CARTESIAN_POINT('',(0.0175,0.,0.007));
#1328=CARTESIAN_POINT('',(0.0175,0.,0.002));
#1329=CARTESIAN_POINT('',(0.028,0.014,0.007));
#1330=CARTESIAN_POINT('',(0.028,0.014,0.002));
#1331=CARTESIAN_POINT('',(0.028,0.0105,0.002));
#1332=CARTESIAN_POINT('',(0.028,0.0175,0.002));
#1333=CARTESIAN_POINT('',(0.028,0.0105,0.007));
#1334=CARTESIAN_POINT('',(0.028,0.0105,0.007));
#1335=CARTESIAN_POINT('',(0.028,0.014,0.007));
#1336=CARTESIAN_POINT('',(0.028,0.001,0.007));
#1337=CARTESIAN_POINT('',(0.028,0.001,0.007));
#1338=CARTESIAN_POINT('',(0.028,0.001,0.));
#1339=CARTESIAN_POINT('',(0.028,0.014,0.));
#1340=CARTESIAN_POINT('',(0.028,0.027,0.));
#1341=CARTESIAN_POINT('',(0.028,0.027,0.007));
#1342=CARTESIAN_POINT('',(0.028,0.027,0.007));
#1343=CARTESIAN_POINT('',(0.028,0.014,0.007));
#1344=CARTESIAN_POINT('',(0.028,0.0175,0.007));
#1345=CARTESIAN_POINT('',(0.028,0.0175,0.002));
#1346=CARTESIAN_POINT('',(0.014,0.014,0.));
#1347=CARTESIAN_POINT('',(0.014,0.014,0.));
#1348=CARTESIAN_POINT('',(0.019,0.014,0.));
#1349=CARTESIAN_POINT('',(0.001,0.001,0.));
#1350=CARTESIAN_POINT('',(0.,0.001,0.));
#1351=CARTESIAN_POINT('',(0.,0.014,0.));
#1352=CARTESIAN_POINT('',(0.,0.027,0.));
#1353=CARTESIAN_POINT('',(0.001,0.027,0.));
#1354=CARTESIAN_POINT('',(0.001,0.028,0.));
#1355=CARTESIAN_POINT('',(0.014,0.028,0.));
#1356=CARTESIAN_POINT('',(0.027,0.028,0.));
#1357=CARTESIAN_POINT('',(0.027,0.027,0.));
#1358=CARTESIAN_POINT('',(0.027,0.001,0.));
#1359=CARTESIAN_POINT('',(0.0015,0.014,0.007));
#1360=CARTESIAN_POINT('',(0.0015,0.0015,0.007));
#1361=CARTESIAN_POINT('',(0.0015,0.0015,0.007));
#1362=CARTESIAN_POINT('',(0.0015,0.0015,0.003));
#1363=CARTESIAN_POINT('',(0.0015,0.014,0.003));
#1364=CARTESIAN_POINT('',(0.0015,0.0265,0.003));
#1365=CARTESIAN_POINT('',(0.0015,0.0265,0.007));
#1366=CARTESIAN_POINT('',(0.0015,0.0265,0.007));
#1367=CARTESIAN_POINT('',(0.0015,0.014,0.007));
#1368=CARTESIAN_POINT('',(0.014,0.0015,0.007));
#1369=CARTESIAN_POINT('',(0.014,0.0015,0.003));
#1370=CARTESIAN_POINT('',(0.0265,0.0015,0.003));
#1371=CARTESIAN_POINT('',(0.014,0.0015,0.007));
#1372=CARTESIAN_POINT('',(0.0265,0.0015,0.007));
#1373=CARTESIAN_POINT('',(0.0265,0.0015,0.007));
#1374=CARTESIAN_POINT('',(0.0265,0.014,0.007));
#1375=CARTESIAN_POINT('',(0.0265,0.014,0.003));
#1376=CARTESIAN_POINT('',(0.0265,0.0265,0.003));
#1377=CARTESIAN_POINT('',(0.0265,0.014,0.007));
#1378=CARTESIAN_POINT('',(0.0265,0.0265,0.007));
#1379=CARTESIAN_POINT('',(0.0265,0.0265,0.007));
#1380=CARTESIAN_POINT('',(0.014,0.0265,0.007));
#1381=CARTESIAN_POINT('',(0.014,0.0265,0.003));
#1382=CARTESIAN_POINT('',(0.014,0.0265,0.007));
#1383=CARTESIAN_POINT('',(0.,0.014,0.007));
#1384=CARTESIAN_POINT('',(0.,0.014,0.002));
#1385=CARTESIAN_POINT('',(0.,0.0105,0.002));
#1386=CARTESIAN_POINT('',(0.,0.0175,0.002));
#1387=CARTESIAN_POINT('',(0.,0.0175,0.007));
#1388=CARTESIAN_POINT('',(0.,0.0175,0.007));
#1389=CARTESIAN_POINT('',(0.,0.014,0.007));
#1390=CARTESIAN_POINT('',(0.,0.027,0.007));
#1391=CARTESIAN_POINT('',(0.,0.027,0.007));
#1392=CARTESIAN_POINT('',(0.,0.001,0.007));
#1393=CARTESIAN_POINT('',(0.,0.001,0.007));
#1394=CARTESIAN_POINT('',(0.,0.014,0.007));
#1395=CARTESIAN_POINT('',(0.,0.0105,0.007));
#1396=CARTESIAN_POINT('',(0.,0.0105,0.007));
#1397=CARTESIAN_POINT('',(0.014,0.028,0.007));
#1398=CARTESIAN_POINT('',(0.014,0.028,0.007));
#1399=CARTESIAN_POINT('',(0.001,0.028,0.007));
#1400=CARTESIAN_POINT('',(0.027,0.028,0.007));
#1401=CARTESIAN_POINT('',(0.027,0.028,0.));
#1402=CARTESIAN_POINT('',(0.001,0.028,0.007));
#1403=CARTESIAN_POINT('',(0.014,0.014,0.007));
#1404=CARTESIAN_POINT('',(0.0115,-0.0025,0.007));
#1405=CARTESIAN_POINT('',(0.0115,-0.001,0.007));
#1406=CARTESIAN_POINT('',(0.0115,-0.004,0.007));
#1407=CARTESIAN_POINT('',(0.0125,-0.004,0.007));
#1408=CARTESIAN_POINT('',(0.0125,-0.005,0.007));
#1409=CARTESIAN_POINT('',(0.014,-0.005,0.007));
#1410=CARTESIAN_POINT('',(0.0155,-0.005,0.007));
#1411=CARTESIAN_POINT('',(0.0155,-0.004,0.007));
#1412=CARTESIAN_POINT('',(0.0165,-0.004,0.007));
#1413=CARTESIAN_POINT('',(0.0165,-0.0025,0.007));
#1414=CARTESIAN_POINT('',(0.0165,-0.001,0.007));
#1415=CARTESIAN_POINT('',(0.0175,-0.001,0.007));
#1416=CARTESIAN_POINT('',(0.027,0.001,0.007));
#1417=CARTESIAN_POINT('',(0.029,0.0105,0.007));
#1418=CARTESIAN_POINT('',(0.029,0.0115,0.007));
#1419=CARTESIAN_POINT('',(0.0305,0.0115,0.007));
#1420=CARTESIAN_POINT('',(0.032,0.0115,0.007));
#1421=CARTESIAN_POINT('',(0.032,0.0125,0.007));
#1422=CARTESIAN_POINT('',(0.033,0.0125,0.007));
#1423=CARTESIAN_POINT('',(0.033,0.014,0.007));
#1424=CARTESIAN_POINT('',(0.033,0.0155,0.007));
#1425=CARTESIAN_POINT('',(0.032,0.0155,0.007));
#1426=CARTESIAN_POINT('',(0.032,0.0165,0.007));
#1427=CARTESIAN_POINT('',(0.0305,0.0165,0.007));
#1428=CARTESIAN_POINT('',(0.029,0.0165,0.007));
#1429=CARTESIAN_POINT('',(0.029,0.0175,0.007));
#1430=CARTESIAN_POINT('',(0.027,0.027,0.007));
#1431=CARTESIAN_POINT('',(0.001,0.027,0.007));
#1432=CARTESIAN_POINT('',(-0.001,0.0175,0.007));
#1433=CARTESIAN_POINT('',(-0.001,0.0165,0.007));
#1434=CARTESIAN_POINT('',(-0.0025,0.0165,0.007));
#1435=CARTESIAN_POINT('',(-0.004,0.0165,0.007));
#1436=CARTESIAN_POINT('',(-0.004,0.0155,0.007));
#1437=CARTESIAN_POINT('',(-0.005,0.0155,0.007));
#1438=CARTESIAN_POINT('',(-0.005,0.014,0.007));
#1439=CARTESIAN_POINT('',(-0.005,0.0125,0.007));
#1440=CARTESIAN_POINT('',(-0.004,0.0125,0.007));
#1441=CARTESIAN_POINT('',(-0.004,0.0115,0.007));
#1442=CARTESIAN_POINT('',(-0.0025,0.0115,0.007));
#1443=CARTESIAN_POINT('',(-0.001,0.0115,0.007));
#1444=CARTESIAN_POINT('',(-0.001,0.0105,0.007));
#1445=CARTESIAN_POINT('',(0.001,0.001,0.007));
#1446=CARTESIAN_POINT('',(0.0105,-0.001,0.007));
#1447=CARTESIAN_POINT('',(0.0305,0.014,0.007));
#1448=CARTESIAN_POINT('',(0.03215,0.014,0.007));
#1449=CARTESIAN_POINT('',(0.014,-0.0025,0.007));
#1450=CARTESIAN_POINT('',(0.01565,-0.0025,0.007));
#1451=CARTESIAN_POINT('',(-0.0025,0.014,0.007));
#1452=CARTESIAN_POINT('',(-0.00085,0.014,0.007));
#1453=CARTESIAN_POINT('',(0.014,0.014,0.003));
#1454=CARTESIAN_POINT('',(0.014,0.014,0.003));
#1455=CARTESIAN_POINT('',(0.0172,0.014,0.003));
#1456=CARTESIAN_POINT('',(0.0305,0.0165,0.002));
#1457=CARTESIAN_POINT('',(0.032,0.0165,0.002));
#1458=CARTESIAN_POINT('',(0.032,0.0165,0.002));
#1459=CARTESIAN_POINT('',(0.0305,0.0165,0.002));
#1460=CARTESIAN_POINT('',(0.029,0.0165,0.002));
#1461=CARTESIAN_POINT('',(0.029,0.0165,0.007));
#1462=CARTESIAN_POINT('',(0.0305,0.0115,0.002));
#1463=CARTESIAN_POINT('',(0.029,0.0115,0.002));
#1464=CARTESIAN_POINT('',(0.029,0.0115,0.002));
#1465=CARTESIAN_POINT('',(0.0305,0.0115,0.002));
#1466=CARTESIAN_POINT('',(0.032,0.0115,0.002));
#1467=CARTESIAN_POINT('',(0.032,0.0115,0.007));
#1468=CARTESIAN_POINT('',(0.033,0.014,0.002));
#1469=CARTESIAN_POINT('',(0.033,0.0125,0.002));
#1470=CARTESIAN_POINT('',(0.033,0.0125,0.002));
#1471=CARTESIAN_POINT('',(0.033,0.014,0.002));
#1472=CARTESIAN_POINT('',(0.033,0.0155,0.002));
#1473=CARTESIAN_POINT('',(0.033,0.0155,0.002));
#1474=CARTESIAN_POINT('',(0.0305,0.014,0.002));
#1475=CARTESIAN_POINT('',(0.0305,0.014,0.002));
#1476=CARTESIAN_POINT('',(0.03215,0.014,0.002));
#1477=CARTESIAN_POINT('',(0.014,0.014,0.002));
#1478=CARTESIAN_POINT('',(0.032,0.0125,0.002));
#1479=CARTESIAN_POINT('',(0.029,0.0105,0.002));
#1480=CARTESIAN_POINT('',(0.029,0.0175,0.002));
#1481=CARTESIAN_POINT('',(0.032,0.0155,0.002));
#1482=CARTESIAN_POINT('',(0.0115,-0.0025,0.002));
#1483=CARTESIAN_POINT('',(0.0115,-0.0025,0.002));
#1484=CARTESIAN_POINT('',(0.0115,-0.001,0.002));
#1485=CARTESIAN_POINT('',(0.0115,-0.004,0.002));
#1486=CARTESIAN_POINT('',(0.0115,-0.004,0.002));
#1487=CARTESIAN_POINT('',(0.0115,-0.001,0.002));
#1488=CARTESIAN_POINT('',(0.014,-0.005,0.002));
#1489=CARTESIAN_POINT('',(0.0125,-0.005,0.002));
#1490=CARTESIAN_POINT('',(0.0125,-0.005,0.002));
#1491=CARTESIAN_POINT('',(0.014,-0.005,0.002));
#1492=CARTESIAN_POINT('',(0.0155,-0.005,0.002));
#1493=CARTESIAN_POINT('',(0.0155,-0.005,0.007));
#1494=CARTESIAN_POINT('',(0.014,-0.0025,0.002));
#1495=CARTESIAN_POINT('',(0.014,-0.0025,0.002));
#1496=CARTESIAN_POINT('',(0.01565,-0.0025,0.002));
#1497=CARTESIAN_POINT('',(0.0165,-0.0025,0.002));
#1498=CARTESIAN_POINT('',(0.0165,-0.004,0.002));
#1499=CARTESIAN_POINT('',(0.0165,-0.004,0.002));
#1500=CARTESIAN_POINT('',(0.0165,-0.0025,0.002));
#1501=CARTESIAN_POINT('',(0.0165,-0.001,0.002));
#1502=CARTESIAN_POINT('',(0.0165,-0.001,0.007));
#1503=CARTESIAN_POINT('',(0.014,0.014,0.002));
#1504=CARTESIAN_POINT('',(0.0125,-0.004,0.002));
#1505=CARTESIAN_POINT('',(0.0105,-0.001,0.002));
#1506=CARTESIAN_POINT('',(0.0175,-0.001,0.002));
#1507=CARTESIAN_POINT('',(0.0155,-0.004,0.002));
#1508=CARTESIAN_POINT('',(-0.0025,0.0165,0.002));
#1509=CARTESIAN_POINT('',(-0.001,0.0165,0.002));
#1510=CARTESIAN_POINT('',(-0.001,0.0165,0.002));
#1511=CARTESIAN_POINT('',(-0.0025,0.0165,0.002));
#1512=CARTESIAN_POINT('',(-0.004,0.0165,0.002));
#1513=CARTESIAN_POINT('',(-0.004,0.0165,0.007));
#1514=CARTESIAN_POINT('',(-0.005,0.014,0.002));
#1515=CARTESIAN_POINT('',(-0.005,0.0155,0.002));
#1516=CARTESIAN_POINT('',(-0.005,0.0155,0.002));
#1517=CARTESIAN_POINT('',(-0.005,0.014,0.002));
#1518=CARTESIAN_POINT('',(-0.005,0.0125,0.002));
#1519=CARTESIAN_POINT('',(-0.005,0.0125,0.002));
#1520=CARTESIAN_POINT('',(-0.0025,0.014,0.002));
#1521=CARTESIAN_POINT('',(-0.0025,0.014,0.002));
#1522=CARTESIAN_POINT('',(-0.00085,0.014,0.002));
#1523=CARTESIAN_POINT('',(-0.0025,0.0115,0.002));
#1524=CARTESIAN_POINT('',(-0.004,0.0115,0.002));
#1525=CARTESIAN_POINT('',(-0.004,0.0115,0.002));
#1526=CARTESIAN_POINT('',(-0.0025,0.0115,0.002));
#1527=CARTESIAN_POINT('',(-0.001,0.0115,0.002));
#1528=CARTESIAN_POINT('',(-0.001,0.0115,0.002));
#1529=CARTESIAN_POINT('',(0.014,0.014,0.002));
#1530=CARTESIAN_POINT('',(-0.004,0.0155,0.002));
#1531=CARTESIAN_POINT('',(-0.001,0.0175,0.002));
#1532=CARTESIAN_POINT('',(-0.001,0.0105,0.002));
#1533=CARTESIAN_POINT('',(-0.004,0.0125,0.002));
#1534=CARTESIAN_POINT('',(0.014,0.014,0.0005));
#1535=CARTESIAN_POINT('',(0.014,0.014,0.0025));
#1536=CARTESIAN_POINT('',(0.0167,0.014,0.0025));
#1537=CARTESIAN_POINT('',(0.014,0.014,0.0005));
#1538=CARTESIAN_POINT('',(0.0167,0.014,0.0005));
#1539=CARTESIAN_POINT('',(0.014,0.014,0.0005));
#1540=CARTESIAN_POINT('',(0.014,0.014,-0.004));
#1541=CARTESIAN_POINT('',(0.014,0.014,-0.001));
#1542=CARTESIAN_POINT('',(0.018,0.014,-0.001));
#1543=CARTESIAN_POINT('',(0.014,0.014,-0.004));
#1544=CARTESIAN_POINT('',(0.01,0.014,-0.004));
#1545=CARTESIAN_POINT('',(0.014,0.014,-0.004));
#1546=CARTESIAN_POINT('',(0.014,0.014,-0.004));
#1547=CARTESIAN_POINT('',(0.01135,0.014,-0.004));
#1548=CARTESIAN_POINT('',(0.014,0.014,-0.0015));
#1549=CARTESIAN_POINT('',(0.014,0.014,-0.0015));
#1550=CARTESIAN_POINT('',(0.01135,0.014,-0.0015));
#1551=CARTESIAN_POINT('',(0.014,0.014,-0.0015));
#1552=CARTESIAN_POINT('',(0.014,0.014,-0.001));
#1553=CARTESIAN_POINT('',(0.0125,-0.004,0.002));
#1554=CARTESIAN_POINT('',(0.0105,-0.001,0.007));
#1555=CARTESIAN_POINT('',(0.0155,-0.004,0.002));
#1556=CARTESIAN_POINT('',(0.0175,-0.001,0.002));
#1557=CARTESIAN_POINT('',(0.029,0.0105,0.007));
#1558=CARTESIAN_POINT('',(0.032,0.0125,0.002));
#1559=CARTESIAN_POINT('',(0.032,0.0155,0.002));
#1560=CARTESIAN_POINT('',(0.029,0.0175,0.002));
#1561=CARTESIAN_POINT('',(-0.001,0.0175,0.007));
#1562=CARTESIAN_POINT('',(-0.004,0.0155,0.002));
#1563=CARTESIAN_POINT('',(-0.004,0.0125,0.002));
#1564=CARTESIAN_POINT('',(-0.001,0.0105,0.002));
#1565=CARTESIAN_POINT('',(0.001,0.001,0.007));
#1566=CARTESIAN_POINT('',(0.027,0.001,0.007));
#1567=CARTESIAN_POINT('',(0.027,0.027,0.007));
#1568=CARTESIAN_POINT('',(0.001,0.027,0.007));
#1569=CARTESIAN_POINT('',(0.014,0.014,0.0025));
#1570=MECHANICAL_DESIGN_GEOMETRIC_PRESENTATION_REPRESENTATION('',(#919),
#1571);
#1571=(
GEOMETRIC_REPRESENTATION_CONTEXT(3)
GLOBAL_UNCERTAINTY_ASSIGNED_CONTEXT((#1572))
GLOBAL_UNIT_ASSIGNED_CONTEXT((#1575,#1574,#1573))
REPRESENTATION_CONTEXT('Part 1','TOP_LEVEL_ASSEMBLY_PART')
);
#1572=UNCERTAINTY_MEASURE_WITH_UNIT(LENGTH_MEASURE(1.E-8),#1575,
'DISTANCE_ACCURACY_VALUE','Maximum Tolerance applied to model');
#1573=(
NAMED_UNIT(*)
SI_UNIT($,.STERADIAN.)
SOLID_ANGLE_UNIT()
);
#1574=(
NAMED_UNIT(*)
PLANE_ANGLE_UNIT()
SI_UNIT($,.RADIAN.)
);
#1575=(
LENGTH_UNIT()
NAMED_UNIT(*)
SI_UNIT($,.METRE.)
);
#1576=PRODUCT_DEFINITION_SHAPE('','',#1577);
#1577=PRODUCT_DEFINITION('','',#1579,#1578);
#1578=PRODUCT_DEFINITION_CONTEXT('',#1585,'design');
#1579=PRODUCT_DEFINITION_FORMATION_WITH_SPECIFIED_SOURCE('','',#1581,
 .NOT_KNOWN.);
#1580=PRODUCT_RELATED_PRODUCT_CATEGORY('','',(#1581));
#1581=PRODUCT('Part 1','Part 1','Part 1',(#1583));
#1582=PRODUCT_CATEGORY('','');
#1583=PRODUCT_CONTEXT('',#1585,'mechanical');
#1584=APPLICATION_PROTOCOL_DEFINITION('international standard',
'ap242_managed_model_based_3d_engineering',2020,#1585);
#1585=APPLICATION_CONTEXT('managed model based 3d engineering');
ENDSEC;
END-ISO-10303-21;
