ISO-10303-21;
HEADER;
/* Generated by software containing ST-Developer
 * from STEP Tools, Inc. (www.steptools.com) 
 */
/* OPTION: using custom renumber hook */

FILE_DESCRIPTION(
/* description */ ('STEP AP242 Edition 2',
'CAx-IF Rec.Pracs.---Representation and Presentation of Product Manufa
cturing Information (PMI)---4.0---2014-10-13',
'CAx-IF Rec.Pracs.---3D Tessellated Geometry---0.4---2014-09-14','2;1',
'CAx-IF Rec.Pracs.---User Defined Attributes---1.5---2016-08-15'),
/* implementation_level */ '2;1');

FILE_NAME(
/* name */ 'wing_aoa',
/* time_stamp */ '2026-06-11T15:31:03Z',
/* author */ (''),
/* organization */ (''),
/* preprocessor_version */ 'ST-DEVELOPER v20',
/* originating_system */ 'ONSHAPE BY PTC INC, 1.216',
/* authorisation */ '  ');

FILE_SCHEMA (('AP242_MANAGED_MODEL_BASED_3D_ENGINEERING_MIM_LF { 1 0 10303 442 3 1 4 }'));
ENDSEC;

DATA;
#10=SHAPE_REPRESENTATION_RELATIONSHIP('','',#284,#11);
#11=ADVANCED_BREP_SHAPE_REPRESENTATION('',(#282),#552);
#12=CYLINDRICAL_SURFACE('',#292,0.002);
#13=CYLINDRICAL_SURFACE('',#300,0.001075);
#14=B_SPLINE_SURFACE_WITH_KNOTS('',3,1,((#440,#441),(#442,#443),(#444,#445),
(#446,#447)),.RULED_SURF.,.F.,.F.,.F.,(4,4),(2,2),(0.,1.),(0.0314934770478307,
1.),.PIECEWISE_BEZIER_KNOTS.);
#15=B_SPLINE_SURFACE_WITH_KNOTS('',3,1,((#472,#473),(#474,#475),(#476,#477),
(#478,#479)),.RULED_SURF.,.F.,.F.,.F.,(4,4),(2,2),(0.,1.),(0.0314934770478307,
1.),.PIECEWISE_BEZIER_KNOTS.);
#16=LINE('',#439,#31);
#17=LINE('',#448,#32);
#18=LINE('',#455,#33);
#19=LINE('',#457,#34);
#20=LINE('',#459,#35);
#21=LINE('',#461,#36);
#22=LINE('',#463,#37);
#23=LINE('',#465,#38);
#24=LINE('',#471,#39);
#25=LINE('',#480,#40);
#26=LINE('',#483,#41);
#27=LINE('',#485,#42);
#28=LINE('',#493,#43);
#29=LINE('',#497,#44);
#30=LINE('',#506,#45);
#31=VECTOR('',#309,1.);
#32=VECTOR('',#310,1.);
#33=VECTOR('',#311,1.);
#34=VECTOR('',#312,1.);
#35=VECTOR('',#315,1.);
#36=VECTOR('',#316,1.);
#37=VECTOR('',#317,1.);
#38=VECTOR('',#318,1.);
#39=VECTOR('',#319,1.);
#40=VECTOR('',#320,1.);
#41=VECTOR('',#325,1.);
#42=VECTOR('',#326,1.);
#43=VECTOR('',#331,1.);
#44=VECTOR('',#336,1.);
#45=VECTOR('',#337,1.);
#46=CIRCLE('',#287,0.001075);
#47=CIRCLE('',#288,0.002);
#48=CIRCLE('',#293,0.002);
#49=CIRCLE('',#294,0.002);
#50=CIRCLE('',#297,0.001075);
#51=CIRCLE('',#299,0.001075);
#52=PLANE('',#286);
#53=PLANE('',#289);
#54=PLANE('',#290);
#55=PLANE('',#291);
#56=PLANE('',#295);
#57=PLANE('',#296);
#58=PLANE('',#298);
#59=ORIENTED_EDGE('',*,*,#137,.F.);
#60=ORIENTED_EDGE('',*,*,#138,.T.);
#61=ORIENTED_EDGE('',*,*,#139,.F.);
#62=ORIENTED_EDGE('',*,*,#140,.F.);
#63=ORIENTED_EDGE('',*,*,#141,.T.);
#64=ORIENTED_EDGE('',*,*,#142,.T.);
#65=ORIENTED_EDGE('',*,*,#143,.F.);
#66=ORIENTED_EDGE('',*,*,#144,.F.);
#67=ORIENTED_EDGE('',*,*,#145,.F.);
#68=ORIENTED_EDGE('',*,*,#146,.F.);
#69=ORIENTED_EDGE('',*,*,#143,.T.);
#70=ORIENTED_EDGE('',*,*,#147,.T.);
#71=ORIENTED_EDGE('',*,*,#148,.T.);
#72=ORIENTED_EDGE('',*,*,#149,.F.);
#73=ORIENTED_EDGE('',*,*,#150,.F.);
#74=ORIENTED_EDGE('',*,*,#151,.F.);
#75=ORIENTED_EDGE('',*,*,#152,.T.);
#76=ORIENTED_EDGE('',*,*,#153,.T.);
#77=ORIENTED_EDGE('',*,*,#154,.F.);
#78=ORIENTED_EDGE('',*,*,#155,.F.);
#79=ORIENTED_EDGE('',*,*,#145,.T.);
#80=ORIENTED_EDGE('',*,*,#156,.F.);
#81=ORIENTED_EDGE('',*,*,#157,.T.);
#82=ORIENTED_EDGE('',*,*,#158,.T.);
#83=ORIENTED_EDGE('',*,*,#159,.T.);
#84=ORIENTED_EDGE('',*,*,#151,.T.);
#85=ORIENTED_EDGE('',*,*,#160,.F.);
#86=ORIENTED_EDGE('',*,*,#153,.F.);
#87=ORIENTED_EDGE('',*,*,#146,.T.);
#88=ORIENTED_EDGE('',*,*,#155,.T.);
#89=ORIENTED_EDGE('',*,*,#161,.F.);
#90=ORIENTED_EDGE('',*,*,#160,.T.);
#91=ORIENTED_EDGE('',*,*,#154,.T.);
#92=ORIENTED_EDGE('',*,*,#161,.T.);
#93=ORIENTED_EDGE('',*,*,#156,.T.);
#94=ORIENTED_EDGE('',*,*,#144,.T.);
#95=ORIENTED_EDGE('',*,*,#150,.T.);
#96=ORIENTED_EDGE('',*,*,#162,.F.);
#97=ORIENTED_EDGE('',*,*,#163,.F.);
#98=ORIENTED_EDGE('',*,*,#149,.T.);
#99=ORIENTED_EDGE('',*,*,#164,.T.);
#100=ORIENTED_EDGE('',*,*,#140,.T.);
#101=ORIENTED_EDGE('',*,*,#165,.T.);
#102=ORIENTED_EDGE('',*,*,#166,.F.);
#103=ORIENTED_EDGE('',*,*,#167,.F.);
#104=ORIENTED_EDGE('',*,*,#162,.T.);
#105=ORIENTED_EDGE('',*,*,#168,.F.);
#106=ORIENTED_EDGE('',*,*,#169,.T.);
#107=ORIENTED_EDGE('',*,*,#158,.F.);
#108=ORIENTED_EDGE('',*,*,#170,.T.);
#109=ORIENTED_EDGE('',*,*,#166,.T.);
#110=ORIENTED_EDGE('',*,*,#171,.F.);
#111=ORIENTED_EDGE('',*,*,#163,.T.);
#112=ORIENTED_EDGE('',*,*,#167,.T.);
#113=ORIENTED_EDGE('',*,*,#170,.F.);
#114=ORIENTED_EDGE('',*,*,#157,.F.);
#115=ORIENTED_EDGE('',*,*,#139,.T.);
#116=ORIENTED_EDGE('',*,*,#172,.T.);
#117=ORIENTED_EDGE('',*,*,#173,.T.);
#118=ORIENTED_EDGE('',*,*,#168,.T.);
#119=ORIENTED_EDGE('',*,*,#165,.F.);
#120=ORIENTED_EDGE('',*,*,#173,.F.);
#121=ORIENTED_EDGE('',*,*,#174,.T.);
#122=ORIENTED_EDGE('',*,*,#141,.F.);
#123=ORIENTED_EDGE('',*,*,#152,.F.);
#124=ORIENTED_EDGE('',*,*,#159,.F.);
#125=ORIENTED_EDGE('',*,*,#169,.F.);
#126=ORIENTED_EDGE('',*,*,#148,.F.);
#127=ORIENTED_EDGE('',*,*,#175,.T.);
#128=ORIENTED_EDGE('',*,*,#137,.T.);
#129=ORIENTED_EDGE('',*,*,#164,.F.);
#130=ORIENTED_EDGE('',*,*,#171,.T.);
#131=ORIENTED_EDGE('',*,*,#172,.F.);
#132=ORIENTED_EDGE('',*,*,#138,.F.);
#133=ORIENTED_EDGE('',*,*,#175,.F.);
#134=ORIENTED_EDGE('',*,*,#147,.F.);
#135=ORIENTED_EDGE('',*,*,#142,.F.);
#136=ORIENTED_EDGE('',*,*,#174,.F.);
#137=EDGE_CURVE('',#176,#177,#202,.F.);
#138=EDGE_CURVE('',#176,#178,#203,.T.);
#139=EDGE_CURVE('',#179,#178,#204,.T.);
#140=EDGE_CURVE('',#177,#179,#205,.T.);
#141=EDGE_CURVE('',#180,#181,#206,.F.);
#142=EDGE_CURVE('',#181,#182,#207,.T.);
#143=EDGE_CURVE('',#183,#182,#208,.T.);
#144=EDGE_CURVE('',#184,#183,#209,.T.);
#145=EDGE_CURVE('',#185,#184,#210,.T.);
#146=EDGE_CURVE('',#180,#185,#211,.T.);
#147=EDGE_CURVE('',#182,#186,#46,.T.);
#148=EDGE_CURVE('',#186,#187,#212,.T.);
#149=EDGE_CURVE('',#188,#187,#47,.T.);
#150=EDGE_CURVE('',#183,#188,#16,.T.);
#151=EDGE_CURVE('',#189,#190,#17,.T.);
#152=EDGE_CURVE('',#189,#180,#213,.T.);
#153=EDGE_CURVE('',#180,#191,#18,.T.);
#154=EDGE_CURVE('',#190,#191,#19,.F.);
#155=EDGE_CURVE('',#185,#192,#20,.T.);
#156=EDGE_CURVE('',#193,#184,#21,.T.);
#157=EDGE_CURVE('',#193,#194,#22,.F.);
#158=EDGE_CURVE('',#194,#195,#23,.T.);
#159=EDGE_CURVE('',#195,#189,#214,.T.);
#160=EDGE_CURVE('',#192,#190,#24,.F.);
#161=EDGE_CURVE('',#191,#192,#25,.F.);
#162=EDGE_CURVE('',#196,#188,#26,.T.);
#163=EDGE_CURVE('',#193,#196,#27,.T.);
#164=EDGE_CURVE('',#187,#177,#215,.T.);
#165=EDGE_CURVE('',#179,#197,#48,.T.);
#166=EDGE_CURVE('',#198,#197,#28,.T.);
#167=EDGE_CURVE('',#196,#198,#49,.T.);
#168=EDGE_CURVE('',#199,#197,#29,.T.);
#169=EDGE_CURVE('',#199,#195,#216,.T.);
#170=EDGE_CURVE('',#194,#198,#30,.T.);
#171=EDGE_CURVE('',#200,#200,#50,.T.);
#172=EDGE_CURVE('',#178,#201,#51,.T.);
#173=EDGE_CURVE('',#201,#199,#217,.T.);
#174=EDGE_CURVE('',#201,#181,#218,.T.);
#175=EDGE_CURVE('',#186,#176,#219,.T.);
#176=VERTEX_POINT('',#365);
#177=VERTEX_POINT('',#366);
#178=VERTEX_POINT('',#371);
#179=VERTEX_POINT('',#376);
#180=VERTEX_POINT('',#399);
#181=VERTEX_POINT('',#400);
#182=VERTEX_POINT('',#406);
#183=VERTEX_POINT('',#411);
#184=VERTEX_POINT('',#419);
#185=VERTEX_POINT('',#424);
#186=VERTEX_POINT('',#431);
#187=VERTEX_POINT('',#436);
#188=VERTEX_POINT('',#438);
#189=VERTEX_POINT('',#449);
#190=VERTEX_POINT('',#450);
#191=VERTEX_POINT('',#456);
#192=VERTEX_POINT('',#460);
#193=VERTEX_POINT('',#462);
#194=VERTEX_POINT('',#464);
#195=VERTEX_POINT('',#466);
#196=VERTEX_POINT('',#484);
#197=VERTEX_POINT('',#492);
#198=VERTEX_POINT('',#494);
#199=VERTEX_POINT('',#498);
#200=VERTEX_POINT('',#509);
#201=VERTEX_POINT('',#512);
#202=B_SPLINE_CURVE_WITH_KNOTS('',3,(#361,#362,#363,#364),.UNSPECIFIED.,
 .F.,.F.,(4,4),(0.00363393573265422,0.00456123819379454),.UNSPECIFIED.);
#203=B_SPLINE_CURVE_WITH_KNOTS('',3,(#367,#368,#369,#370),.UNSPECIFIED.,
 .F.,.F.,(4,4),(0.000907166198942991,0.00155242551438555),.UNSPECIFIED.);
#204=B_SPLINE_CURVE_WITH_KNOTS('',3,(#372,#373,#374,#375),.UNSPECIFIED.,
 .F.,.F.,(4,4),(0.00372509436796121,0.00477777531564964),.UNSPECIFIED.);
#205=B_SPLINE_CURVE_WITH_KNOTS('',3,(#377,#378,#379,#380),.UNSPECIFIED.,
 .F.,.F.,(4,4),(1.68321282219233E-19,0.000471558313587841),
 .UNSPECIFIED.);
#206=B_SPLINE_CURVE_WITH_KNOTS('',3,(#393,#394,#395,#396,#397,#398),
 .UNSPECIFIED.,.F.,.F.,(4,1,1,4),(0.0067273406676577,0.00750533985541548,
0.00789433944929437,0.00828333904317326),.UNSPECIFIED.);
#207=B_SPLINE_CURVE_WITH_KNOTS('',3,(#401,#402,#403,#404,#405),
 .UNSPECIFIED.,.F.,.F.,(4,1,4),(0.000537865858966479,0.00104548692293992,
0.00155310798691336),.UNSPECIFIED.);
#208=B_SPLINE_CURVE_WITH_KNOTS('',3,(#407,#408,#409,#410),.UNSPECIFIED.,
 .F.,.F.,(4,4),(0.,0.010941424298288),.UNSPECIFIED.);
#209=B_SPLINE_CURVE_WITH_KNOTS('',3,(#412,#413,#414,#415,#416,#417,#418),
 .UNSPECIFIED.,.F.,.F.,(4,1,1,1,4),(0.,0.00211188900150457,0.00422377800300914,
0.00633566700451372,0.00844755600601829),.UNSPECIFIED.);
#210=B_SPLINE_CURVE_WITH_KNOTS('',3,(#420,#421,#422,#423),.UNSPECIFIED.,
 .F.,.F.,(4,4),(9.75781955236954E-19,0.000286612185877687),
 .UNSPECIFIED.);
#211=B_SPLINE_CURVE_WITH_KNOTS('',3,(#425,#426,#427,#428),.UNSPECIFIED.,
 .F.,.F.,(4,4),(3.91190750781372E-23,0.0176100843463708),.UNSPECIFIED.);
#212=B_SPLINE_CURVE_WITH_KNOTS('',3,(#432,#433,#434,#435),.UNSPECIFIED.,
 .F.,.F.,(4,4),(0.0125907726724904,0.0136434536201839),.UNSPECIFIED.);
#213=B_SPLINE_CURVE_WITH_KNOTS('',3,(#451,#452,#453,#454),.UNSPECIFIED.,
 .F.,.F.,(4,4),(0.,0.0176100843463708),.UNSPECIFIED.);
#214=B_SPLINE_CURVE_WITH_KNOTS('',3,(#467,#468,#469,#470),.UNSPECIFIED.,
 .F.,.F.,(4,4),(0.,0.000286612185877686),.UNSPECIFIED.);
#215=B_SPLINE_CURVE_WITH_KNOTS('',3,(#487,#488,#489,#490),.UNSPECIFIED.,
 .F.,.F.,(4,4),(0.,0.000471692506571901),.UNSPECIFIED.);
#216=B_SPLINE_CURVE_WITH_KNOTS('',3,(#499,#500,#501,#502,#503,#504,#505),
 .UNSPECIFIED.,.F.,.F.,(4,1,1,1,4),(0.,0.00211361944808658,0.00422723889617317,
0.00634085834425975,0.00845447779234634),.UNSPECIFIED.);
#217=B_SPLINE_CURVE_WITH_KNOTS('',3,(#513,#514,#515,#516),.UNSPECIFIED.,
 .F.,.F.,(4,4),(0.00642712368985843,0.0173685479881452),.UNSPECIFIED.);
#218=B_SPLINE_CURVE_WITH_KNOTS('',3,(#529,#530,#531,#532,#533),
 .UNSPECIFIED.,.F.,.F.,(4,1,4),(4.10075960005417E-18,0.000508294151559055,
0.00101658830311811),.UNSPECIFIED.);
#219=B_SPLINE_CURVE_WITH_KNOTS('',3,(#546,#547,#548,#549),.UNSPECIFIED.,
 .F.,.F.,(4,4),(0.,0.000647053046321723),.UNSPECIFIED.);
#220=EDGE_LOOP('',(#59,#60,#61,#62));
#221=EDGE_LOOP('',(#63,#64,#65,#66,#67,#68));
#222=EDGE_LOOP('',(#69,#70,#71,#72,#73));
#223=EDGE_LOOP('',(#74,#75,#76,#77));
#224=EDGE_LOOP('',(#78,#79,#80,#81,#82,#83,#84,#85));
#225=EDGE_LOOP('',(#86,#87,#88,#89));
#226=EDGE_LOOP('',(#90,#91,#92));
#227=EDGE_LOOP('',(#93,#94,#95,#96,#97));
#228=EDGE_LOOP('',(#98,#99,#100,#101,#102,#103,#104));
#229=EDGE_LOOP('',(#105,#106,#107,#108,#109));
#230=EDGE_LOOP('',(#110));
#231=EDGE_LOOP('',(#111,#112,#113,#114));
#232=EDGE_LOOP('',(#115,#116,#117,#118,#119));
#233=EDGE_LOOP('',(#120,#121,#122,#123,#124,#125));
#234=EDGE_LOOP('',(#126,#127,#128,#129));
#235=EDGE_LOOP('',(#130));
#236=EDGE_LOOP('',(#131,#132,#133,#134,#135,#136));
#237=FACE_BOUND('',#220,.T.);
#238=FACE_BOUND('',#221,.T.);
#239=FACE_BOUND('',#222,.T.);
#240=FACE_BOUND('',#223,.T.);
#241=FACE_BOUND('',#224,.T.);
#242=FACE_BOUND('',#225,.T.);
#243=FACE_BOUND('',#226,.T.);
#244=FACE_BOUND('',#227,.T.);
#245=FACE_BOUND('',#228,.T.);
#246=FACE_BOUND('',#229,.T.);
#247=FACE_BOUND('',#230,.T.);
#248=FACE_BOUND('',#231,.T.);
#249=FACE_BOUND('',#232,.T.);
#250=FACE_BOUND('',#233,.T.);
#251=FACE_BOUND('',#234,.T.);
#252=FACE_BOUND('',#235,.T.);
#253=FACE_BOUND('',#236,.T.);
#254=(
BOUNDED_SURFACE()
B_SPLINE_SURFACE(3,2,((#349,#350,#351),(#352,#353,#354),(#355,#356,#357),
(#358,#359,#360)),.UNSPECIFIED.,.F.,.F.,.F.)
B_SPLINE_SURFACE_WITH_KNOTS((4,4),(3,3),(0.0391290174200457,0.0403032866503452),
(0.598426885000208,1.),.PIECEWISE_BEZIER_KNOTS.)
GEOMETRIC_REPRESENTATION_ITEM()
RATIONAL_B_SPLINE_SURFACE(((0.870814143850873,0.892062122050982,1.),(0.870835244979662,
0.892079752549643,1.),(0.870856342838736,0.892097380316378,1.),(0.870877437425505,
0.892115005349024,1.)))
REPRESENTATION_ITEM('')
SURFACE()
);
#255=(
BOUNDED_SURFACE()
B_SPLINE_SURFACE(3,2,((#381,#382,#383),(#384,#385,#386),(#387,#388,#389),
(#390,#391,#392)),.UNSPECIFIED.,.F.,.F.,.F.)
B_SPLINE_SURFACE_WITH_KNOTS((4,4),(3,3),(0.0169203567587024,0.0364474221696879),
(0.,1.),.PIECEWISE_BEZIER_KNOTS.)
GEOMETRIC_REPRESENTATION_ITEM()
RATIONAL_B_SPLINE_SURFACE(((1.,0.731041124136726,1.),(1.,0.730310752132095,
1.),(1.,0.729578500775411,1.),(1.,0.728844395436509,1.)))
REPRESENTATION_ITEM('')
SURFACE()
);
#256=(
BOUNDED_SURFACE()
B_SPLINE_SURFACE(3,2,((#517,#518,#519),(#520,#521,#522),(#523,#524,#525),
(#526,#527,#528)),.UNSPECIFIED.,.F.,.F.,.F.)
B_SPLINE_SURFACE_WITH_KNOTS((4,4),(3,3),(0.0180753388204765,0.0376024042314619),
(0.,1.),.PIECEWISE_BEZIER_KNOTS.)
GEOMETRIC_REPRESENTATION_ITEM()
RATIONAL_B_SPLINE_SURFACE(((1.,0.728844395436509,1.),(1.,0.729578500775049,
1.),(1.,0.730310752132456,1.),(1.,0.731041124136726,1.)))
REPRESENTATION_ITEM('')
SURFACE()
);
#257=(
BOUNDED_SURFACE()
B_SPLINE_SURFACE(3,2,((#534,#535,#536),(#537,#538,#539),(#540,#541,#542),
(#543,#544,#545)),.UNSPECIFIED.,.F.,.F.,.F.)
B_SPLINE_SURFACE_WITH_KNOTS((4,4),(3,3),(0.0142194743398196,0.0153937435701207),
(0.598426885000208,1.),.PIECEWISE_BEZIER_KNOTS.)
GEOMETRIC_REPRESENTATION_ITEM()
RATIONAL_B_SPLINE_SURFACE(((0.870877437425505,0.892115005349024,1.),(0.870856342838767,
0.892097380316404,1.),(0.870835244979714,0.892079752549686,1.),(0.870814143850873,
0.892062122050982,1.)))
REPRESENTATION_ITEM('')
SURFACE()
);
#258=ADVANCED_FACE('',(#237),#254,.F.);
#259=ADVANCED_FACE('',(#238),#255,.F.);
#260=ADVANCED_FACE('',(#239),#52,.F.);
#261=ADVANCED_FACE('',(#240),#14,.T.);
#262=ADVANCED_FACE('',(#241),#53,.F.);
#263=ADVANCED_FACE('',(#242),#15,.T.);
#264=ADVANCED_FACE('',(#243),#54,.T.);
#265=ADVANCED_FACE('',(#244),#55,.F.);
#266=ADVANCED_FACE('',(#245),#12,.T.);
#267=ADVANCED_FACE('',(#246),#56,.T.);
#268=ADVANCED_FACE('',(#247,#248),#57,.T.);
#269=ADVANCED_FACE('',(#249),#58,.F.);
#270=ADVANCED_FACE('',(#250),#256,.F.);
#271=ADVANCED_FACE('',(#251),#257,.F.);
#272=ADVANCED_FACE('',(#252,#253),#13,.F.);
#273=CLOSED_SHELL('',(#258,#259,#260,#261,#262,#263,#264,#265,#266,#267,
#268,#269,#270,#271,#272));
#274=STYLED_ITEM('',(#275),#282);
#275=PRESENTATION_STYLE_ASSIGNMENT((#276));
#276=SURFACE_STYLE_USAGE(.BOTH.,#277);
#277=SURFACE_SIDE_STYLE('',(#278));
#278=SURFACE_STYLE_FILL_AREA(#279);
#279=FILL_AREA_STYLE('',(#280));
#280=FILL_AREA_STYLE_COLOUR('',#281);
#281=COLOUR_RGB('',0.615686274509804,0.811764705882353,0.929411764705882);
#282=MANIFOLD_SOLID_BREP('Part 1',#273);
#283=SHAPE_DEFINITION_REPRESENTATION(#557,#284);
#284=SHAPE_REPRESENTATION('Part 1',(#285),#552);
#285=AXIS2_PLACEMENT_3D('',#348,#301,#302);
#286=AXIS2_PLACEMENT_3D('',#429,#303,#304);
#287=AXIS2_PLACEMENT_3D('',#430,#305,#306);
#288=AXIS2_PLACEMENT_3D('',#437,#307,#308);
#289=AXIS2_PLACEMENT_3D('',#458,#313,#314);
#290=AXIS2_PLACEMENT_3D('',#481,#321,#322);
#291=AXIS2_PLACEMENT_3D('',#482,#323,#324);
#292=AXIS2_PLACEMENT_3D('',#486,#327,#328);
#293=AXIS2_PLACEMENT_3D('',#491,#329,#330);
#294=AXIS2_PLACEMENT_3D('',#495,#332,#333);
#295=AXIS2_PLACEMENT_3D('',#496,#334,#335);
#296=AXIS2_PLACEMENT_3D('',#507,#338,#339);
#297=AXIS2_PLACEMENT_3D('',#508,#340,#341);
#298=AXIS2_PLACEMENT_3D('',#510,#342,#343);
#299=AXIS2_PLACEMENT_3D('',#511,#344,#345);
#300=AXIS2_PLACEMENT_3D('',#550,#346,#347);
#301=DIRECTION('',(0.,0.,1.));
#302=DIRECTION('',(1.,0.,0.));
#303=DIRECTION('',(0.,0.,-1.));
#304=DIRECTION('',(1.,0.,0.));
#305=DIRECTION('',(0.,0.,-1.));
#306=DIRECTION('',(-1.,0.,0.));
#307=DIRECTION('',(0.,0.,-1.));
#308=DIRECTION('',(-1.,0.,0.));
#309=DIRECTION('',(-0.999944873344229,0.0105000129806134,0.));
#310=DIRECTION('',(0.,-0.0629383450289763,0.99801741704492));
#311=DIRECTION('',(0.488603368931844,-8.7029508455941E-17,0.87250601594972));
#312=DIRECTION('',(0.987688340595138,0.156434465040231,0.));
#313=DIRECTION('',(-1.,0.,0.));
#314=DIRECTION('',(0.,0.,1.));
#315=DIRECTION('',(0.,0.0629383450289763,0.99801741704492));
#316=DIRECTION('',(0.,0.,1.));
#317=DIRECTION('',(0.,-1.,0.));
#318=DIRECTION('',(0.,0.,1.));
#319=DIRECTION('',(0.,-1.,0.));
#320=DIRECTION('',(-0.987688340595138,0.156434465040231,0.));
#321=DIRECTION('',(0.,0.,1.));
#322=DIRECTION('',(1.,0.,0.));
#323=DIRECTION('',(0.0105000129806134,0.999944873344229,0.));
#324=DIRECTION('',(-0.999944873344229,0.0105000129806134,0.));
#325=DIRECTION('',(0.,0.,1.));
#326=DIRECTION('',(-0.999944873344229,0.0105000129806134,0.));
#327=DIRECTION('',(0.,0.,1.));
#328=DIRECTION('',(1.,0.,0.));
#329=DIRECTION('',(0.,0.,-1.));
#330=DIRECTION('',(-1.,0.,0.));
#331=DIRECTION('',(0.,0.,1.));
#332=DIRECTION('',(0.,0.,-1.));
#333=DIRECTION('',(-1.,0.,0.));
#334=DIRECTION('',(-0.0105000129806134,0.999944873344229,0.));
#335=DIRECTION('',(-0.999944873344229,-0.0105000129806134,0.));
#336=DIRECTION('',(-0.999944873344229,-0.0105000129806134,0.));
#337=DIRECTION('',(-0.999944873344229,-0.0105000129806134,0.));
#338=DIRECTION('',(0.,0.,-1.));
#339=DIRECTION('',(1.,0.,0.));
#340=DIRECTION('',(0.,0.,-1.));
#341=DIRECTION('',(-1.,0.,0.));
#342=DIRECTION('',(0.,0.,-1.));
#343=DIRECTION('',(1.,0.,0.));
#344=DIRECTION('',(0.,0.,-1.));
#345=DIRECTION('',(-1.,0.,0.));
#346=DIRECTION('',(0.,0.,-1.));
#347=DIRECTION('',(-1.,0.,0.));
#348=CARTESIAN_POINT('',(0.,0.,0.));
#349=CARTESIAN_POINT('',(-0.00282726824420587,2.75001227022192E-5,0.000172342892642823));
#350=CARTESIAN_POINT('',(-0.00285831739274572,0.000279752075241942,-4.33680868994202E-19));
#351=CARTESIAN_POINT('',(-0.00289583189997806,0.000584530407110799,-4.33680868994202E-19));
#352=CARTESIAN_POINT('',(-0.00321575509003494,-2.02763479771833E-5,0.000172314937444207));
#353=CARTESIAN_POINT('',(-0.00324680425655707,0.000231961524832525,-2.83714238098398E-17));
#354=CARTESIAN_POINT('',(-0.00328432309927078,0.000536711863659446,-4.33680868994202E-19));
#355=CARTESIAN_POINT('',(-0.00360425135571391,-6.80539516000284E-5,0.000172286985790272));
#356=CARTESIAN_POINT('',(-0.00363529880368742,0.00018417005260231,-2.79422094862697E-17));
#357=CARTESIAN_POINT('',(-0.0036728143016078,0.000488893344945564,0.));
#358=CARTESIAN_POINT('',(-0.00399275703180314,-0.000115832687012243,0.000172259037685843));
#359=CARTESIAN_POINT('',(-0.00402380102654062,0.000136377659481504,0.));
#360=CARTESIAN_POINT('',(-0.00406130550698904,0.00044107485096594,0.));
#361=CARTESIAN_POINT('',(-0.00399999999999989,-6.52857810299113E-19,0.000104598927245255));
#362=CARTESIAN_POINT('',(-0.00369149341593688,-4.69505521835541E-20,0.000123340691613052));
#363=CARTESIAN_POINT('',(-0.00338309521177209,-1.73603030099131E-19,0.000145010210735264));
#364=CARTESIAN_POINT('',(-0.003075,-4.17753888090622E-19,0.000170336544944242));
#365=CARTESIAN_POINT('',(-0.003075,-8.17233685158532E-20,0.00017033654494424));
#366=CARTESIAN_POINT('',(-0.004,-7.60596648862794E-20,0.000104598927247309));
#367=CARTESIAN_POINT('',(-0.003075,4.20428371026228E-19,0.000170336544944241));
#368=CARTESIAN_POINT('',(-0.003075,0.000178913107447418,5.08512439636776E-5));
#369=CARTESIAN_POINT('',(-0.00302143415252763,0.000400105742423514,3.7652958818376E-16));
#370=CARTESIAN_POINT('',(-0.00290274182249515,0.000583679879658486,-8.404585193808E-20));
#371=CARTESIAN_POINT('',(-0.0029027418225,0.000583679879660151,0.));
#372=CARTESIAN_POINT('',(-0.00394753787829018,0.000455078248910351,0.));
#373=CARTESIAN_POINT('',(-0.00359927252391334,0.000497945439281982,0.));
#374=CARTESIAN_POINT('',(-0.00325100717198317,0.000540812649530997,0.));
#375=CARTESIAN_POINT('',(-0.0029027418225,0.000583679879660152,0.));
#376=CARTESIAN_POINT('',(-0.00394753787828955,0.000455078248905231,0.));
#377=CARTESIAN_POINT('',(-0.004,-8.62685244319619E-20,0.000104598927247308));
#378=CARTESIAN_POINT('',(-0.00399999999999994,0.000143055057040183,3.39940753932449E-5));
#379=CARTESIAN_POINT('',(-0.00398382647654254,0.000299778759603271,1.66925231396801E-15));
#380=CARTESIAN_POINT('',(-0.00394753787828927,0.000455078248906398,3.01579023090567E-19));
#381=CARTESIAN_POINT('',(-0.00125877731278897,0.000219124433524679,0.000931157749641825));
#382=CARTESIAN_POINT('',(-0.0012666271451888,0.000155350290304193,1.0842021724855E-19));
#383=CARTESIAN_POINT('',(-0.00138065352229002,-0.000771030571574663,0.));
#384=CARTESIAN_POINT('',(0.00520150851689326,-0.00057591080524832,0.0009332934775249));
#385=CARTESIAN_POINT('',(0.00520034637816388,-0.000638636558398768,-1.05951446151601E-15));
#386=CARTESIAN_POINT('',(0.00507961360369585,-0.00156621199834585,0.));
#387=CARTESIAN_POINT('',(0.011661792683079,-0.00137095956863653,0.000935431500235386));
#388=CARTESIAN_POINT('',(0.0116608984962116,-0.00143183418938522,1.40999937583577E-15));
#389=CARTESIAN_POINT('',(0.0115398798874979,-0.00236140026724452,0.));
#390=CARTESIAN_POINT('',(0.0181220751783632,-0.00216602191603989,0.000937571694481579));
#391=CARTESIAN_POINT('',(0.018114910578198,-0.00222422803073658,0.));
#392=CARTESIAN_POINT('',(0.0180001453269904,-0.00315659539540135,0.));
#393=CARTESIAN_POINT('',(-0.000924999999999993,-2.54853676193019E-19,0.000428957787269247));
#394=CARTESIAN_POINT('',(-0.000669523211539558,-4.91080504138613E-19,0.000473825618573328));
#395=CARTESIAN_POINT('',(-0.000283208319386667,-1.28783830650695E-19,0.000547982356764248));
#396=CARTESIAN_POINT('',(0.000200925897936351,-3.6278880780509E-20,0.000710240512426486));
#397=CARTESIAN_POINT('',(0.000456518601541313,-8.10183307752643E-20,0.000815211788466626));
#398=CARTESIAN_POINT('',(0.000521778010605994,-9.02310966934475E-20,0.000931746447510697));
#399=CARTESIAN_POINT('',(0.000521778010605984,1.6417849358979E-18,0.000931746447510703));
#400=CARTESIAN_POINT('',(-0.000925,1.53035501019818E-18,0.000428957787269294));
#401=CARTESIAN_POINT('',(-0.000925,1.29339819809373E-18,0.000428957787269294));
#402=CARTESIAN_POINT('',(-0.000925,-9.72037270988302E-5,0.000290266028028362));
#403=CARTESIAN_POINT('',(-0.000953146685793184,-0.000369314493536955,5.84405052890445E-5));
#404=CARTESIAN_POINT('',(-0.00114013959090766,-0.000667712304880844,1.19244997794366E-19));
#405=CARTESIAN_POINT('',(-0.00126574758535538,-0.000785174115460101,1.70185937880011E-19));
#406=CARTESIAN_POINT('',(-0.00126574758535538,-0.0007851741154601,0.));
#407=CARTESIAN_POINT('',(0.0095937210971659,-0.00212185119257414,0.));
#408=CARTESIAN_POINT('',(0.00597389846765741,-0.00167629001667079,0.));
#409=CARTESIAN_POINT('',(0.00235407557335808,-0.00123073099197981,0.));
#410=CARTESIAN_POINT('',(-0.00126574758535538,-0.000785174115460101,0.));
#411=CARTESIAN_POINT('',(0.0095937210971659,-0.00212185119257414,0.));
#412=CARTESIAN_POINT('',(0.018,-0.00221012209625228,0.000657083554748928));
#413=CARTESIAN_POINT('',(0.0173219683353574,-0.00220300236248515,0.000449530460555037));
#414=CARTESIAN_POINT('',(0.0159202511087705,-0.00218828350200929,0.000279812684513152));
#415=CARTESIAN_POINT('',(0.0138156262103661,-0.00216618369496826,0.000102622515673241));
#416=CARTESIAN_POINT('',(0.011706139473438,-0.00214403283574529,1.91055539483668E-5));
#417=CARTESIAN_POINT('',(0.0102981685135796,-0.00212924830736885,9.44661658879793E-20));
#418=CARTESIAN_POINT('',(0.0095937210971659,-0.00212185119257414,8.4842204371328E-20));
#419=CARTESIAN_POINT('',(0.018,-0.00221012209625228,0.000657083554748928));
#420=CARTESIAN_POINT('',(0.018,-0.00215099821276729,0.000937531253072945));
#421=CARTESIAN_POINT('',(0.018,-0.00215707476824893,0.000841174918893463));
#422=CARTESIAN_POINT('',(0.018,-0.00217679470277766,0.000747694877006417));
#423=CARTESIAN_POINT('',(0.018,-0.0022101220962523,0.000657083554748929));
#424=CARTESIAN_POINT('',(0.018,-0.00215099821276729,0.000937531253072946));
#425=CARTESIAN_POINT('',(0.000521778010605984,1.6417849358979E-18,0.000931746447510704));
#426=CARTESIAN_POINT('',(0.00634785336366793,-0.000716988385905874,0.000933672888994722));
#427=CARTESIAN_POINT('',(0.0121739273619191,-0.00143398777566796,0.000935601187674106));
#428=CARTESIAN_POINT('',(0.018,-0.00215099821276729,0.000937531253072945));
#429=CARTESIAN_POINT('',(0.007,0.,0.));
#430=CARTESIAN_POINT('',(-0.002,0.,0.));
#431=CARTESIAN_POINT('',(-0.00290274182249355,-0.000583679879660945,2.16840434497101E-19));
#432=CARTESIAN_POINT('',(-0.00290274182249355,-0.000583679879660946,0.));
#433=CARTESIAN_POINT('',(-0.00325100717197838,-0.000540812649531587,0.));
#434=CARTESIAN_POINT('',(-0.00359927252391021,-0.000497945439282369,0.));
#435=CARTESIAN_POINT('',(-0.00394753787828871,-0.000455078248910533,0.));
#436=CARTESIAN_POINT('',(-0.00394753787828872,-0.000455078248910531,0.));
#437=CARTESIAN_POINT('',(-0.002,-8.72565908416334E-16,0.));
#438=CARTESIAN_POINT('',(-0.00202100002596123,-0.00199988974668846,0.));
#439=CARTESIAN_POINT('',(0.00798949998701939,-0.00210500592147037,0.));
#440=CARTESIAN_POINT('',(0.018,0.00216046997368543,0.000787336926195767));
#441=CARTESIAN_POINT('',(0.018,0.000633537761298147,0.025));
#442=CARTESIAN_POINT('',(0.0121469695595565,0.00144031331579029,0.000787336926195767));
#443=CARTESIAN_POINT('',(0.0166666666666666,0.000422358507532096,0.025));
#444=CARTESIAN_POINT('',(0.00629393911911309,0.000720156657895144,0.000787336926195767));
#445=CARTESIAN_POINT('',(0.0153333333333333,0.00021117925376605,0.025));
#446=CARTESIAN_POINT('',(0.000440908678669619,-1.88498058281687E-18,0.000787336926195767));
#447=CARTESIAN_POINT('',(0.014,1.62630325872826E-19,0.025));
#448=CARTESIAN_POINT('',(0.018,0.00221012209625228,0.));
#449=CARTESIAN_POINT('',(0.018,0.00215099821276729,0.000937531253072945));
#450=CARTESIAN_POINT('',(0.018,0.000633537761298146,0.025));
#451=CARTESIAN_POINT('',(0.018,0.00215099821276729,0.000937531253072945));
#452=CARTESIAN_POINT('',(0.0121739273619191,0.00143398777566796,0.000935601187674106));
#453=CARTESIAN_POINT('',(0.00634785336366791,0.000716988385905874,0.000933672888994723));
#454=CARTESIAN_POINT('',(0.000521778010605984,-1.87276819171136E-18,0.000931746447510704));
#455=CARTESIAN_POINT('',(0.007,4.87890977618477E-19,0.0125));
#456=CARTESIAN_POINT('',(0.014,-3.59141969635823E-19,0.025));
#457=CARTESIAN_POINT('',(0.016,0.000316768880649074,0.025));
#458=CARTESIAN_POINT('',(0.018,0.,0.));
#459=CARTESIAN_POINT('',(0.018,-0.00142182992877521,0.0125));
#460=CARTESIAN_POINT('',(0.018,-0.000633537761298146,0.025));
#461=CARTESIAN_POINT('',(0.018,-0.00221012209625228,-0.002));
#462=CARTESIAN_POINT('',(0.018,-0.00221012209625228,-0.002));
#463=CARTESIAN_POINT('',(0.018,-0.00110506104812614,-0.002));
#464=CARTESIAN_POINT('',(0.018,0.00221012209625228,-0.002));
#465=CARTESIAN_POINT('',(0.018,0.00221012209625228,-0.002));
#466=CARTESIAN_POINT('',(0.018,0.00221012209625228,0.000657083554748928));
#467=CARTESIAN_POINT('',(0.018,0.00221012209625228,0.000657083554748928));
#468=CARTESIAN_POINT('',(0.018,0.00217679470277764,0.000747694877006418));
#469=CARTESIAN_POINT('',(0.018,0.00215707476824893,0.000841174918893463));
#470=CARTESIAN_POINT('',(0.018,0.00215099821276729,0.000937531253072944));
#471=CARTESIAN_POINT('',(0.018,-0.000316768880649073,0.025));
#472=CARTESIAN_POINT('',(0.00044090867866962,1.65618929463773E-18,0.000787336926195767));
#473=CARTESIAN_POINT('',(0.014,-7.58941520739853E-19,0.025));
#474=CARTESIAN_POINT('',(0.00629393911911309,-0.000720156657895143,0.000787336926195767));
#475=CARTESIAN_POINT('',(0.0153333333333333,-0.000211179253766051,0.025));
#476=CARTESIAN_POINT('',(0.0121469695595565,-0.00144031331579029,0.000787336926195767));
#477=CARTESIAN_POINT('',(0.0166666666666666,-0.000422358507532096,0.025));
#478=CARTESIAN_POINT('',(0.018,-0.00216046997368543,0.000787336926195767));
#479=CARTESIAN_POINT('',(0.018,-0.000633537761298146,0.025));
#480=CARTESIAN_POINT('',(0.016,-0.000316768880649074,0.025));
#481=CARTESIAN_POINT('',(0.016,0.,0.025));
#482=CARTESIAN_POINT('',(0.00798949998701939,-0.00210500592147037,-0.002));
#483=CARTESIAN_POINT('',(-0.00202100002596123,-0.00199988974668846,-0.002));
#484=CARTESIAN_POINT('',(-0.00202100002596123,-0.00199988974668846,-0.002));
#485=CARTESIAN_POINT('',(0.00798949998701939,-0.00210500592147037,-0.002));
#486=CARTESIAN_POINT('',(-0.002,-8.72565908416334E-16,-0.002));
#487=CARTESIAN_POINT('',(-0.00394753787828872,-0.000455078248910531,0.));
#488=CARTESIAN_POINT('',(-0.00398380699230804,-0.000299862143693779,1.36827196709636E-19));
#489=CARTESIAN_POINT('',(-0.00400000000000006,-0.00014303701938472,3.40029778816583E-5));
#490=CARTESIAN_POINT('',(-0.004,-7.60596648862794E-20,0.000104598927247309));
#491=CARTESIAN_POINT('',(-0.002,-8.72565908416334E-16,0.));
#492=CARTESIAN_POINT('',(-0.00202100002596123,0.00199988974668846,0.));
#493=CARTESIAN_POINT('',(-0.00202100002596123,0.00199988974668846,-0.002));
#494=CARTESIAN_POINT('',(-0.00202100002596123,0.00199988974668846,-0.002));
#495=CARTESIAN_POINT('',(-0.002,-8.72565908416334E-16,-0.002));
#496=CARTESIAN_POINT('',(0.00798949998701939,0.00210500592147037,-0.002));
#497=CARTESIAN_POINT('',(0.00798949998701939,0.00210500592147037,0.));
#498=CARTESIAN_POINT('',(0.0095937210971659,0.00212185119257414,0.));
#499=CARTESIAN_POINT('',(0.0095937210971659,0.00212185119257414,0.));
#500=CARTESIAN_POINT('',(0.0102982784005382,0.00212924946124695,9.62546276122484E-21));
#501=CARTESIAN_POINT('',(0.0117076119662914,0.00214404829779174,1.91659320485581E-5));
#502=CARTESIAN_POINT('',(0.0138181079234914,0.00216620975442486,0.000102622955798433));
#503=CARTESIAN_POINT('',(0.0159187996169035,0.00218826826048563,0.000280345347779942));
#504=CARTESIAN_POINT('',(0.0173145808893141,0.00220292478992949,0.000447269080497973));
#505=CARTESIAN_POINT('',(0.018,0.00221012209625228,0.000657083554748987));
#506=CARTESIAN_POINT('',(0.00798949998701939,0.00210500592147037,-0.002));
#507=CARTESIAN_POINT('',(0.007,0.,-0.002));
#508=CARTESIAN_POINT('',(-0.002,0.,-0.002));
#509=CARTESIAN_POINT('',(-0.003075,0.,-0.002));
#510=CARTESIAN_POINT('',(0.007,0.,0.));
#511=CARTESIAN_POINT('',(-0.002,0.,0.));
#512=CARTESIAN_POINT('',(-0.00126574758535538,0.0007851741154601,0.));
#513=CARTESIAN_POINT('',(-0.00126574758535538,0.0007851741154601,0.));
#514=CARTESIAN_POINT('',(0.00235407557335808,0.00123073099197981,0.));
#515=CARTESIAN_POINT('',(0.0059738984676575,0.0016762900166708,0.));
#516=CARTESIAN_POINT('',(0.0095937210971659,0.00212185119257414,0.));
#517=CARTESIAN_POINT('',(0.0181220751783632,0.00216602191603988,0.000937571694481579));
#518=CARTESIAN_POINT('',(0.0181149105781979,0.00222422803073658,0.));
#519=CARTESIAN_POINT('',(0.0180001453269903,0.00315659539540135,0.));
#520=CARTESIAN_POINT('',(0.0116617926830345,0.00137095956863112,0.000935431500234339));
#521=CARTESIAN_POINT('',(0.0116608984961787,0.001431834189384,0.));
#522=CARTESIAN_POINT('',(0.0115398798874527,0.00236140026724452,0.));
#523=CARTESIAN_POINT('',(0.00520150851697588,0.000575910805258347,0.000933293477526978));
#524=CARTESIAN_POINT('',(0.00520034637823956,0.00063863655840932,-3.52991148240923E-16));
#525=CARTESIAN_POINT('',(0.00507961360377769,0.00156621199835643,0.));
#526=CARTESIAN_POINT('',(-0.00125877731278896,-0.000219124433524678,0.000931157749641825));
#527=CARTESIAN_POINT('',(-0.00126662714518879,-0.000155350290304192,2.16840434497101E-19));
#528=CARTESIAN_POINT('',(-0.00138065352229001,0.000771030571574663,0.));
#529=CARTESIAN_POINT('',(-0.00126574758535538,0.000785174115460101,0.));
#530=CARTESIAN_POINT('',(-0.00114041785723732,0.00066797252451933,-1.27070219516741E-20));
#531=CARTESIAN_POINT('',(-0.000953559935852117,0.000370415636824605,5.8042847033154E-5));
#532=CARTESIAN_POINT('',(-0.000924999999999952,9.76979957900814E-5,0.000289560797926872));
#533=CARTESIAN_POINT('',(-0.000924999999999952,2.12180771010225E-18,0.000428957787269292));
#534=CARTESIAN_POINT('',(-0.00399275703180316,0.000115832687012244,0.000172259037685844));
#535=CARTESIAN_POINT('',(-0.00402380102654063,-0.000136377659481504,0.));
#536=CARTESIAN_POINT('',(-0.00406130550698906,-0.00044107485096594,0.));
#537=CARTESIAN_POINT('',(-0.003604251355713,6.80539516001291E-5,0.000172286985790266));
#538=CARTESIAN_POINT('',(-0.00363529880368646,-0.000184170052602205,-2.79422052022708E-17));
#539=CARTESIAN_POINT('',(-0.00367281430160678,-0.000488893344945564,0.));
#540=CARTESIAN_POINT('',(-0.00321575509003521,2.02763479775353E-5,0.000172314937444382));
#541=CARTESIAN_POINT('',(-0.00324680425655732,-0.000231961524832086,9.08333412322191E-17));
#542=CARTESIAN_POINT('',(-0.00328432309927103,-0.000536711863659,0.));
#543=CARTESIAN_POINT('',(-0.00282726824420397,-2.75001227024531E-5,0.000172342892642824));
#544=CARTESIAN_POINT('',(-0.00285831739274382,-0.000279752075242177,3.56880932458817E-20));
#545=CARTESIAN_POINT('',(-0.00289583189997617,-0.000584530407111033,0.));
#546=CARTESIAN_POINT('',(-0.00290274182249355,-0.000583679879660945,2.16840434497101E-19));
#547=CARTESIAN_POINT('',(-0.00302134262286246,-0.000400247305736326,3.04620132937283E-19));
#548=CARTESIAN_POINT('',(-0.00307500000000237,-0.000179670258676043,5.03455882082262E-5));
#549=CARTESIAN_POINT('',(-0.00307500000000235,1.18746751182601E-16,0.000170336544944127));
#550=CARTESIAN_POINT('',(-0.002,0.,0.0083));
#551=MECHANICAL_DESIGN_GEOMETRIC_PRESENTATION_REPRESENTATION('',(#274),
#552);
#552=(
GEOMETRIC_REPRESENTATION_CONTEXT(3)
GLOBAL_UNCERTAINTY_ASSIGNED_CONTEXT((#553))
GLOBAL_UNIT_ASSIGNED_CONTEXT((#556,#555,#554))
REPRESENTATION_CONTEXT('Part 1','TOP_LEVEL_ASSEMBLY_PART')
);
#553=UNCERTAINTY_MEASURE_WITH_UNIT(LENGTH_MEASURE(2.E-5),#556,
'DISTANCE_ACCURACY_VALUE','Maximum Tolerance applied to model');
#554=(
NAMED_UNIT(*)
SI_UNIT($,.STERADIAN.)
SOLID_ANGLE_UNIT()
);
#555=(
NAMED_UNIT(*)
PLANE_ANGLE_UNIT()
SI_UNIT($,.RADIAN.)
);
#556=(
LENGTH_UNIT()
NAMED_UNIT(*)
SI_UNIT($,.METRE.)
);
#557=PRODUCT_DEFINITION_SHAPE('','',#558);
#558=PRODUCT_DEFINITION('','',#560,#559);
#559=PRODUCT_DEFINITION_CONTEXT('',#566,'design');
#560=PRODUCT_DEFINITION_FORMATION_WITH_SPECIFIED_SOURCE('','',#562,
 .NOT_KNOWN.);
#561=PRODUCT_RELATED_PRODUCT_CATEGORY('','',(#562));
#562=PRODUCT('Part 1','Part 1','Part 1',(#564));
#563=PRODUCT_CATEGORY('','');
#564=PRODUCT_CONTEXT('',#566,'mechanical');
#565=APPLICATION_PROTOCOL_DEFINITION('international standard',
'ap242_managed_model_based_3d_engineering',2020,#566);
#566=APPLICATION_CONTEXT('managed model based 3d engineering');
ENDSEC;
END-ISO-10303-21;
